  0
SECTION
  2
HEADER
  9
$ACADVER
  1
AC1015
  9
$ACADMAINTVER
 70
     6
  9
$DWGCODEPAGE
  3
ANSI_936
  9
$INSBASE
 10
0.0
 20
0.0
 30
0.0
  9
$EXTMIN
 10
0.0
 20
0.0
 30
0.0
  9
$EXTMAX
 10
1189.0
 20
841.0
 30
0.0
  9
$LIMMIN
 10
0.0
 20
0.0
  9
$LIMMAX
 10
1189.0
 20
841.0
  9
$ORTHOMODE
 70
     0
  9
$REGENMODE
 70
     1
  9
$FILLMODE
 70
     1
  9
$QTEXTMODE
 70
     0
  9
$MIRRTEXT
 70
     1
  9
$LTSCALE
 40
1.0
  9
$ATTMODE
 70
     1
  9
$TEXTSIZE
 40
3.5
  9
$TRACEWID
 40
1.0
  9
$TEXTSTYLE
  7
Standard
  9
$CLAYER
  8
0
  9
$CELTYPE
  6
ByLayer
  9
$CECOLOR
 62
   256
  9
$CELTSCALE
 40
1.0
  9
$DISPSILH
 70
     0
  9
$DIMSCALE
 40
1.0
  9
$DIMASZ
 40
4.08
  9
$DIMEXO
 40
0.0
  9
$DIMDLI
 40
3.75
  9
$DIMRND
 40
0.0
  9
$DIMDLE
 40
0.0
  9
$DIMEXE
 40
2.0
  9
$DIMTP
 40
0.0
  9
$DIMTM
 40
0.0
  9
$DIMTXT
 40
3.5
  9
$DIMCEN
 40
2.5
  9
$DIMTSZ
 40
0.0
  9
$DIMTOL
 70
     0
  9
$DIMLIM
 70
     0
  9
$DIMTIH
 70
     1
  9
$DIMTOH
 70
     1
  9
$DIMSE1
 70
     0
  9
$DIMSE2
 70
     0
  9
$DIMTAD
 70
     1
  9
$DIMZIN
 70
     0
  9
$DIMBLK
  1

  9
$DIMASO
 70
     1
  9
$DIMSHO
 70
     1
  9
$DIMPOST
  1

  9
$DIMAPOST
  1

  9
$DIMALT
 70
     0
  9
$DIMALTD
 70
     3
  9
$DIMALTF
 40
0.0393700787
  9
$DIMLFAC
 40
0.1
  9
$DIMTOFL
 70
     1
  9
$DIMTVP
 40
0.0
  9
$DIMTIX
 70
     0
  9
$DIMSOXD
 70
     0
  9
$DIMSAH
 70
     0
  9
$DIMBLK1
  1

  9
$DIMBLK2
  1

  9
$DIMSTYLE
  2
ISO-25
  9
$DIMCLRD
 70
     0
  9
$DIMCLRE
 70
     0
  9
$DIMCLRT
 70
     0
  9
$DIMTFAC
 40
1.0
  9
$DIMGAP
 40
1.524
  9
$DIMJUST
 70
     0
  9
$DIMSD1
 70
     0
  9
$DIMSD2
 70
     0
  9
$DIMTOLJ
 70
     0
  9
$DIMTZIN
 70
     0
  9
$DIMALTZ
 70
     0
  9
$DIMALTTZ
 70
     0
  9
$DIMUPT
 70
     0
  9
$DIMDEC
 70
     2
  9
$DIMTDEC
 70
     2
  9
$DIMALTU
 70
     2
  9
$DIMALTTD
 70
     3
  9
$DIMTXSTY
  7
Standard
  9
$DIMAUNIT
 70
     0
  9
$DIMADEC
 70
     2
  9
$DIMALTRND
 40
0.0
  9
$DIMAZIN
 70
     0
  9
$DIMDSEP
 70
    44
  9
$DIMATFIT
 70
     3
  9
$DIMFRAC
 70
     0
  9
$DIMLDRBLK
  1

  9
$DIMLUNIT
 70
     2
  9
$DIMLWD
 70
    -2
  9
$DIMLWE
 70
    -2
  9
$DIMTMOVE
 70
     0
  9
$LUNITS
 70
     2
  9
$LUPREC
 70
     2
  9
$SKETCHINC
 40
1.0
  9
$FILLETRAD
 40
0.0
  9
$AUNITS
 70
     0
  9
$AUPREC
 70
     2
  9
$MENU
  1
.
  9
$ELEVATION
 40
0.0
  9
$PELEVATION
 40
0.0
  9
$THICKNESS
 40
0.0
  9
$LIMCHECK
 70
     0
  9
$CHAMFERA
 40
0.0
  9
$CHAMFERB
 40
0.0
  9
$CHAMFERC
 40
0.0
  9
$CHAMFERD
 40
0.0
  9
$SKPOLY
 70
     0
  9
$TDCREATE
 40
2460360.582532083
  9
$TDUCREATE
 40
2460360.24919875
  9
$TDUPDATE
 40
2460360.582534907
  9
$TDUUPDATE
 40
2460360.249201574
  9
$TDINDWG
 40
0.0000000116
  9
$TDUSRTIMER
 40
0.0000000116
  9
$USRTIMER
 70
     1
  9
$ANGBASE
 50
0.0
  9
$ANGDIR
 70
     0
  9
$PDMODE
 70
     0
  9
$PDSIZE
 40
-1.0
  9
$PLINEWID
 40
0.0
  9
$SPLFRAME
 70
     0
  9
$SPLINETYPE
 70
     6
  9
$SPLINESEGS
 70
     8
  9
$HANDSEED
  5
17F
  9
$SURFTAB1
 70
     6
  9
$SURFTAB2
 70
     6
  9
$SURFTYPE
 70
     6
  9
$SURFU
 70
     6
  9
$SURFV
 70
     6
  9
$UCSBASE
  2

  9
$UCSNAME
  2

  9
$UCSORG
 10
0.0
 20
0.0
 30
0.0
  9
$UCSXDIR
 10
1.0
 20
0.0
 30
0.0
  9
$UCSYDIR
 10
0.0
 20
1.0
 30
0.0
  9
$UCSORTHOREF
  2

  9
$UCSORTHOVIEW
 70
     0
  9
$UCSORGTOP
 10
0.0
 20
0.0
 30
0.0
  9
$UCSORGBOTTOM
 10
0.0
 20
0.0
 30
0.0
  9
$UCSORGLEFT
 10
0.0
 20
0.0
 30
0.0
  9
$UCSORGRIGHT
 10
0.0
 20
0.0
 30
0.0
  9
$UCSORGFRONT
 10
0.0
 20
0.0
 30
0.0
  9
$UCSORGBACK
 10
0.0
 20
0.0
 30
0.0
  9
$PUCSBASE
  2

  9
$PUCSNAME
  2

  9
$PUCSORG
 10
0.0
 20
0.0
 30
0.0
  9
$PUCSXDIR
 10
1.0
 20
0.0
 30
0.0
  9
$PUCSYDIR
 10
0.0
 20
1.0
 30
0.0
  9
$PUCSORTHOREF
  2

  9
$PUCSORTHOVIEW
 70
     0
  9
$PUCSORGTOP
 10
0.0
 20
0.0
 30
0.0
  9
$PUCSORGBOTTOM
 10
0.0
 20
0.0
 30
0.0
  9
$PUCSORGLEFT
 10
0.0
 20
0.0
 30
0.0
  9
$PUCSORGRIGHT
 10
0.0
 20
0.0
 30
0.0
  9
$PUCSORGFRONT
 10
0.0
 20
0.0
 30
0.0
  9
$PUCSORGBACK
 10
0.0
 20
0.0
 30
0.0
  9
$USERI1
 70
     0
  9
$USERI2
 70
     0
  9
$USERI3
 70
     0
  9
$USERI4
 70
     0
  9
$USERI5
 70
     0
  9
$USERR1
 40
0.0
  9
$USERR2
 40
0.0
  9
$USERR3
 40
0.0
  9
$USERR4
 40
0.0
  9
$USERR5
 40
0.0
  9
$WORLDVIEW
 70
     1
  9
$SHADEDGE
 70
     3
  9
$SHADEDIF
 70
    70
  9
$TILEMODE
 70
     1
  9
$MAXACTVP
 70
    64
  9
$PINSBASE
 10
0.0
 20
0.0
 30
0.0
  9
$PLIMCHECK
 70
     0
  9
$PEXTMIN
 10
1.0000000000E+20
 20
1.0000000000E+20
 30
1.0000000000E+20
  9
$PEXTMAX
 10
-1.0000000000E+20
 20
-1.0000000000E+20
 30
-1.0000000000E+20
  9
$PLIMMIN
 10
0.0
 20
0.0
  9
$PLIMMAX
 10
420.0
 20
297.0
  9
$UNITMODE
 70
     0
  9
$VISRETAIN
 70
     1
  9
$PLINEGEN
 70
     0
  9
$PSLTSCALE
 70
     1
  9
$TREEDEPTH
 70
  3020
  9
$CMLSTYLE
  2
Standard
  9
$CMLJUST
 70
     0
  9
$CMLSCALE
 40
20.0
  9
$PROXYGRAPHICS
 70
     1
  9
$MEASUREMENT
 70
     1
  9
$CELWEIGHT
370
    -1
  9
$ENDCAPS
280
     0
  9
$JOINSTYLE
280
     0
  9
$LWDISPLAY
290
     1
  9
$INSUNITS
 70
     4
  9
$HYPERLINKBASE
  1

  9
$STYLESHEET
  1

  9
$XEDIT
290
     1
  9
$CEPSNTYPE
380
     0
  9
$PSTYLEMODE
290
     1
  9
$FINGERPRINTGUID
  2
{52f8547c-3b80-48fe-a35f-2a6ce4afc32d}
  9
$VERSIONGUID
  2
{FAEB1C32-E019-11D5-929B-00C0DF256EC4}
  9
$EXTNAMES
290
     1
  9
$PSVPSCALE
 40
0.0
  9
$OLESTARTUP
290
     0
  0
ENDSEC
  0
SECTION
  2
CLASSES
  0
CLASS
  1
ACDBDICTIONARYWDFLT
  2
AcDbDictionaryWithDefault
  3
ObjectDBX Classes
 90
        0
280
     0
281
     0
  0
CLASS
  1
VISUALSTYLE
  2
AcDbVisualStyle
  3
ObjectDBX Classes
 90
     4095
280
     0
281
     0
  0
CLASS
  1
MATERIAL
  2
AcDbMaterial
  3
ObjectDBX Classes
 90
     1153
280
     0
281
     0
  0
CLASS
  1
SCALE
  2
AcDbScale
  3
ObjectDBX Classes
 90
     1153
280
     0
281
     0
  0
CLASS
  1
TABLESTYLE
  2
AcDbTableStyle
  3
ObjectDBX Classes
 90
     4095
280
     0
281
     0
  0
CLASS
  1
MLEADERSTYLE
  2
AcDbMLeaderStyle
  3
ACDB_MLEADERSTYLE_CLASS
 90
     4095
280
     0
281
     0
  0
CLASS
  1
SUN
  2
AcDbSun
  3
SCENEOE
 90
     1153
280
     0
281
     0
  0
CLASS
  1
ACDBPLACEHOLDER
  2
AcDbPlaceHolder
  3
ObjectDBX Classes
 90
        0
280
     0
281
     0
  0
CLASS
  1
LAYOUT
  2
AcDbLayout
  3
ObjectDBX Classes
 90
        0
280
     0
281
     0
  0
ENDSEC
  0
SECTION
  2
TABLES
  0
TABLE
  2
VPORT
  5
8
330
0
100
AcDbSymbolTable
 70
     1
  0
VPORT
  5
29
330
8
100
AcDbSymbolTableRecord
100
AcDbViewportTableRecord
  2
*Active
 70
     0
 10
0.0
 20
0.0
 11
1.0
 21
1.0
 12
594.5
 22
420.5
 13
0.0
 23
0.0
 14
10.0
 24
10.0
 15
10.0
 25
10.0
 16
0.0
 26
0.0
 36
1.0
 17
0.0
 27
0.0
 37
0.0
 40
841.0
 41
1.4137931034
 42
50.0
 43
0.0
 44
0.0
 50
0.0
 51
0.0
 71
     0
 72
  2000
 73
     1
 74
     3
 75
     0
 76
     0
 77
     0
 78
     0
281
     0
 65
     1
110
0.0
120
0.0
130
0.0
111
1.0
121
0.0
131
0.0
112
0.0
122
1.0
132
0.0
 79
     0
146
0.0
  0
ENDTAB
  0
TABLE
  2
LTYPE
  5
5
330
0
100
AcDbSymbolTable
 70
     6
  0
LTYPE
  5
14
330
5
100
AcDbSymbolTableRecord
100
AcDbLinetypeTableRecord
  2
ByBlock
 70
     0
  3

 72
    65
 73
     0
 40
0.0
  0
LTYPE
  5
15
330
5
100
AcDbSymbolTableRecord
100
AcDbLinetypeTableRecord
  2
ByLayer
 70
     0
  3

 72
    65
 73
     0
 40
0.0
  0
LTYPE
  5
16
330
5
100
AcDbSymbolTableRecord
100
AcDbLinetypeTableRecord
  2
Continuous
 70
     0
  3
Solid line
 72
    65
 73
     0
 40
0.0
  0
LTYPE
  5
5E
330
5
100
AcDbSymbolTableRecord
100
AcDbLinetypeTableRecord
  2
HIDDEN
 70
     0
  3
Hidden __ __ __ __ __ __ __ __ __ __ __ __ __ __
 72
    65
 73
     2
 40
1.905
 49
1.27
 74
     0
 49
-0.635
 74
     0
  0
LTYPE
  5
5F
330
5
100
AcDbSymbolTableRecord
100
AcDbLinetypeTableRecord
  2
PHANTOM
 70
     0
  3
Phantom ______  __  __  ______  __  __  ______
 72
    65
 73
     6
 40
12.7
 49
6.35
 74
     0
 49
-1.27
 74
     0
 49
1.27
 74
     0
 49
-1.27
 74
     0
 49
1.27
 74
     0
 49
-1.27
 74
     0
  0
LTYPE
  5
60
330
5
100
AcDbSymbolTableRecord
100
AcDbLinetypeTableRecord
  2
CENTER
 70
     0
  3
Center ____ _ ____ _ ____ _ ____ _ ____ _ ____
 72
    65
 73
     4
 40
10.16
 49
6.35
 74
     0
 49
-1.27
 74
     0
 49
1.27
 74
     0
 49
-1.27
 74
     0
  0
LTYPE
  5
61
330
5
100
AcDbSymbolTableRecord
100
AcDbLinetypeTableRecord
  2
CENTERX2
 70
     0
  3
Center (2x) ________  __  ________  __  _____
 72
    65
 73
     4
 40
20.32
 49
12.7
 74
     0
 49
-2.54
 74
     0
 49
2.54
 74
     0
 49
-2.54
 74
     0
  0
LTYPE
  5
62
330
5
100
AcDbSymbolTableRecord
100
AcDbLinetypeTableRecord
  2
DOT2
 70
     0
  3
Dot (.5x) ........................................
 72
    65
 73
     2
 40
0.635
 49
0.0
 74
     0
 49
-0.635
 74
     0
  0
ENDTAB
  0
TABLE
  2
LAYER
  5
2
330
0
100
AcDbSymbolTable
 70
    18
  0
LAYER
  5
10
330
2
100
AcDbSymbolTableRecord
100
AcDbLayerTableRecord
  2
0
 70
     0
 62
     7
  6
Continuous
370
    -3
390
F
  0
LAYER
  5
63
330
2
100
AcDbSymbolTableRecord
100
AcDbLayerTableRecord
  2
SLD-0
 70
     0
 62
     7
  6
Continuous
370
    -3
390
F
  0
LAYER
  5
64
330
2
100
AcDbSymbolTableRecord
100
AcDbLayerTableRecord
  2
10
 70
     0
 62
     7
  6
Continuous
370
    -3
390
F
  0
LAYER
  5
65
330
2
100
AcDbSymbolTableRecord
100
AcDbLayerTableRecord
  2
5
 70
     0
 62
     7
  6
Continuous
370
    -3
390
F
  0
LAYER
  5
66
330
2
100
AcDbSymbolTableRecord
100
AcDbLayerTableRecord
  2
9
 70
     0
 62
     7
  6
Continuous
370
    -3
390
F
  0
LAYER
  5
67
330
2
100
AcDbSymbolTableRecord
100
AcDbLayerTableRecord
  2
轮廓实线层
 70
     0
 62
     7
  6
Continuous
370
    50
390
F
  0
LAYER
  5
68
330
2
100
AcDbSymbolTableRecord
100
AcDbLayerTableRecord
  2
细线层
 70
     0
 62
     4
  6
Continuous
370
    25
390
F
  0
LAYER
  5
69
330
2
100
AcDbSymbolTableRecord
100
AcDbLayerTableRecord
  2
中心线层
 70
     0
 62
     1
  6
CENTERX2
370
    25
390
F
  0
LAYER
  5
6A
330
2
100
AcDbSymbolTableRecord
100
AcDbLayerTableRecord
  2
虚线层
 70
     0
 62
     6
  6
HIDDEN
370
    25
390
F
  0
LAYER
  5
6B
330
2
100
AcDbSymbolTableRecord
100
AcDbLayerTableRecord
  2
剖面线层
 70
     0
 62
     2
  6
Continuous
370
    25
390
F
  0
LAYER
  5
6C
330
2
100
AcDbSymbolTableRecord
100
AcDbLayerTableRecord
  2
文字层
 70
     0
 62
     3
  6
Continuous
370
    25
390
F
  0
LAYER
  5
6D
330
2
100
AcDbSymbolTableRecord
100
AcDbLayerTableRecord
  2
标注层
 70
     0
 62
     4
  6
Continuous
370
    25
390
F
  0
LAYER
  5
6E
330
2
100
AcDbSymbolTableRecord
100
AcDbLayerTableRecord
  2
符号标注层
 70
     0
 62
    31
  6
Continuous
370
    25
390
F
  0
LAYER
  5
6F
330
2
100
AcDbSymbolTableRecord
100
AcDbLayerTableRecord
  2
双点划线层
 70
     0
 62
     6
  6
PHANTOM
370
    25
390
F
  0
LAYER
  5
70
330
2
100
AcDbSymbolTableRecord
100
AcDbLayerTableRecord
  2
粗实线层
 70
     0
 62
     7
  6
Continuous
370
    25
390
F
  0
LAYER
  5
71
330
2
100
AcDbSymbolTableRecord
100
AcDbLayerTableRecord
  2
细实线层
 70
     0
 62
     7
  6
Continuous
370
    -3
390
F
  0
LAYER
  5
72
330
2
100
AcDbSymbolTableRecord
100
AcDbLayerTableRecord
  2
点划线层
 70
     0
 62
     7
  6
CENTER
370
    -3
390
F
  0
LAYER
  5
73
330
2
100
AcDbSymbolTableRecord
100
AcDbLayerTableRecord
  2
图框
 70
     0
 62
     7
  6
Continuous
370
    -3
390
F
  0
ENDTAB
  0
TABLE
  2
STYLE
  5
3
330
0
100
AcDbSymbolTable
 70
     7
  0
STYLE
  5
11
330
3
100
AcDbSymbolTableRecord
100
AcDbTextStyleTableRecord
  2
Standard
 70
     0
 40
0.0
 41
1.0
 50
0.0
 71
     0
 42
3.5
  3
txt
  4

  0
STYLE
  5
F6
330
3
100
AcDbSymbolTableRecord
100
AcDbTextStyleTableRecord
  2
SLDTEXTSTYLE0
 70
     0
 40
0.0
 41
0.7
 50
0.0
 71
     0
 42
3.5
  3
TXT
  4
bigfont
  0
STYLE
  5
FC
330
3
100
AcDbSymbolTableRecord
100
AcDbTextStyleTableRecord
  2
SLDTEXTSTYLE1
 70
     0
 40
0.0
 41
0.6
 50
0.0
 71
     0
 42
3.5
  3
TXT
  4
bigfont
  0
STYLE
  5
101
330
3
100
AcDbSymbolTableRecord
100
AcDbTextStyleTableRecord
  2
SLDTEXTSTYLE2
 70
     0
 40
0.0
 41
0.6142857143
 50
0.0
 71
     0
 42
3.5
  3
TXT
  4
bigfont
  0
STYLE
  5
103
330
3
100
AcDbSymbolTableRecord
100
AcDbTextStyleTableRecord
  2
SLDTEXTSTYLE3
 70
     0
 40
0.0
 41
0.62
 50
0.0
 71
     0
 42
3.5
  3
TXT
  4
bigfont
  0
STYLE
  5
10D
330
3
100
AcDbSymbolTableRecord
100
AcDbTextStyleTableRecord
  2
SLDTEXTSTYLE4
 70
     0
 40
0.0
 41
0.5666666667
 50
0.0
 71
     0
 42
3.5
  3
TXT
  4
bigfont
  0
STYLE
  5
115
330
3
100
AcDbSymbolTableRecord
100
AcDbTextStyleTableRecord
  2
SLDTEXTSTYLE5
 70
     0
 40
0.0
 41
0.7
 50
0.0
 71
     0
 42
3.5
  3
TXT
  4

  0
ENDTAB
  0
TABLE
  2
VIEW
  5
6
330
0
100
AcDbSymbolTable
 70
     0
  0
ENDTAB
  0
TABLE
  2
UCS
  5
7
330
0
100
AcDbSymbolTable
 70
     0
  0
ENDTAB
  0
TABLE
  2
APPID
  5
9
330
0
100
AcDbSymbolTable
 70
     1
  0
APPID
  5
12
330
9
100
AcDbSymbolTableRecord
100
AcDbRegAppTableRecord
  2
ACAD
 70
     0
  0
ENDTAB
  0
TABLE
  2
DIMSTYLE
  5
A
330
0
100
AcDbSymbolTable
 70
     1
100
AcDbDimStyleTable
  0
DIMSTYLE
105
27
330
A
100
AcDbSymbolTableRecord
100
AcDbDimStyleTableRecord
  2
ISO-25
 70
     0
 41
2.5
 42
0.625
 43
3.75
 44
1.25
 73
     0
 74
     0
 77
     1
 78
     8
140
2.5
141
2.5
143
0.0393700787
147
0.625
171
     3
172
     1
178
     0
271
     2
272
     2
274
     3
278
    44
283
     0
284
     8
340
11
  0
ENDTAB
  0
TABLE
  2
BLOCK_RECORD
  5
1
330
0
100
AcDbSymbolTable
 70
     1
  0
BLOCK_RECORD
  5
1F
330
1
100
AcDbSymbolTableRecord
100
AcDbBlockTableRecord
  2
*Model_Space
340
22
  0
BLOCK_RECORD
  5
1B
330
1
100
AcDbSymbolTableRecord
100
AcDbBlockTableRecord
  2
*Paper_Space
340
1E
  0
BLOCK_RECORD
  5
23
330
1
100
AcDbSymbolTableRecord
100
AcDbBlockTableRecord
  2
*Paper_Space0
340
26
  0
ENDTAB
  0
ENDSEC
  0
SECTION
  2
BLOCKS
  0
BLOCK
  5
20
330
1F
100
AcDbEntity
  8
0
100
AcDbBlockBegin
  2
*Model_Space
 70
     0
 10
0.0
 20
0.0
 30
0.0
  3
*Model_Space
  1

  0
ENDBLK
  5
21
330
1F
100
AcDbEntity
  8
0
100
AcDbBlockEnd
  0
BLOCK
  5
1C
330
1B
100
AcDbEntity
 67
     1
  8
0
100
AcDbBlockBegin
  2
*Paper_Space
 70
     0
 10
0.0
 20
0.0
 30
0.0
  3
*Paper_Space
  1

  0
ENDBLK
  5
1D
330
1B
100
AcDbEntity
 67
     1
  8
0
100
AcDbBlockEnd
  0
BLOCK
  5
24
330
23
100
AcDbEntity
  8
0
100
AcDbBlockBegin
  2
*Paper_Space0
 70
     0
 10
0.0
 20
0.0
 30
0.0
  3
*Paper_Space0
  1

  0
ENDBLK
  5
25
330
23
100
AcDbEntity
  8
0
100
AcDbBlockEnd
  0
ENDSEC
  0
SECTION
  2
ENTITIES
  0
LINE
  5
74
330
1F
100
AcDbEntity
  8
5
 62
     7
370
    25
100
AcDbLine
 10
0.0
 20
10.0
 30
0.0
 11
1179.0
 21
10.0
 31
0.0
  0
LINE
  5
75
330
1F
100
AcDbEntity
  8
5
 62
     7
370
    25
100
AcDbLine
 10
1179.0
 20
10.0
 30
0.0
 11
1179.0
 21
831.0500990257
 31
0.0
  0
LINE
  5
76
330
1F
100
AcDbEntity
  8
5
 62
     7
370
    25
100
AcDbLine
 10
1179.0
 20
831.0500990257
 30
0.0
 11
25.0
 21
831.0500990257
 31
0.0
  0
LINE
  5
77
330
1F
100
AcDbEntity
  8
5
 62
     7
370
    25
100
AcDbLine
 10
25.0
 20
831.0500990257
 30
0.0
 11
25.0
 21
10.0
 31
0.0
  0
LINE
  5
78
330
1F
100
AcDbEntity
  8
5
 62
     7
370
    25
100
AcDbLine
 10
25.0
 20
819.0
 30
0.0
 11
85.0
 21
819.0
 31
0.0
  0
LINE
  5
79
330
1F
100
AcDbEntity
  8
5
 62
     7
370
    25
100
AcDbLine
 10
85.0
 20
819.0
 30
0.0
 11
85.0
 21
831.0
 31
0.0
  0
LINE
  5
7A
330
1F
100
AcDbEntity
  8
5
 62
     7
100
AcDbLine
 10
0.0
 20
0.0
 30
0.0
 11
1189.0
 21
0.0
 31
0.0
  0
LINE
  5
7B
330
1F
100
AcDbEntity
  8
5
370
    25
100
AcDbLine
 10
602.0
 20
841.0
 30
0.0
 11
602.0
 21
826.0
 31
0.0
  0
LINE
  5
7C
330
1F
100
AcDbEntity
  8
5
370
    25
100
AcDbLine
 10
602.0
 20
0.0
 30
0.0
 11
602.0
 21
15.0
 31
0.0
  0
LINE
  5
7D
330
1F
100
AcDbEntity
  8
5
 62
     7
100
AcDbLine
 10
1189.0
 20
0.0
 30
0.0
 11
1189.0
 21
841.0
 31
0.0
  0
LINE
  5
7E
330
1F
100
AcDbEntity
  8
5
370
    25
100
AcDbLine
 10
0.0
 20
420.5
 30
0.0
 11
30.0
 21
420.5
 31
0.0
  0
LINE
  5
7F
330
1F
100
AcDbEntity
  8
5
370
    25
100
AcDbLine
 10
1189.0
 20
420.5
 30
0.0
 11
1174.0
 21
420.5
 31
0.0
  0
LINE
  5
80
330
1F
100
AcDbEntity
  8
5
 62
     7
100
AcDbLine
 10
1189.0
 20
841.0
 30
0.0
 11
0.0
 21
841.0
 31
0.0
  0
LINE
  5
81
330
1F
100
AcDbEntity
  8
5
100
AcDbLine
 10
52.0
 20
841.0
 30
0.0
 11
52.0
 21
831.0500990257
 31
0.0
  0
LINE
  5
82
330
1F
100
AcDbEntity
  8
5
100
AcDbLine
 10
102.0
 20
841.0
 30
0.0
 11
102.0
 21
831.0500990257
 31
0.0
  0
LINE
  5
83
330
1F
100
AcDbEntity
  8
5
 62
     7
100
AcDbLine
 10
0.0
 20
841.0
 30
0.0
 11
0.0
 21
0.0
 31
0.0
  0
LINE
  5
84
330
1F
100
AcDbEntity
  8
5
100
AcDbLine
 10
152.0
 20
841.0
 30
0.0
 11
152.0
 21
831.0500990257
 31
0.0
  0
LINE
  5
85
330
1F
100
AcDbEntity
  8
5
100
AcDbLine
 10
202.0
 20
841.0
 30
0.0
 11
202.0
 21
831.0500990257
 31
0.0
  0
LINE
  5
86
330
1F
100
AcDbEntity
  8
5
100
AcDbLine
 10
252.0
 20
841.0
 30
0.0
 11
252.0
 21
831.0500990257
 31
0.0
  0
LINE
  5
87
330
1F
100
AcDbEntity
  8
5
100
AcDbLine
 10
302.0
 20
841.0
 30
0.0
 11
302.0
 21
831.0500990257
 31
0.0
  0
LINE
  5
88
330
1F
100
AcDbEntity
  8
5
100
AcDbLine
 10
352.0
 20
841.0
 30
0.0
 11
352.0
 21
831.0500990257
 31
0.0
  0
LINE
  5
89
330
1F
100
AcDbEntity
  8
5
100
AcDbLine
 10
402.0
 20
841.0
 30
0.0
 11
402.0
 21
831.0500990257
 31
0.0
  0
LINE
  5
8A
330
1F
100
AcDbEntity
  8
5
 62
     7
370
    25
100
AcDbLine
 10
1129.0
 20
38.0
 30
0.0
 11
1129.0
 21
10.0
 31
0.0
  0
LINE
  5
8B
330
1F
100
AcDbEntity
  8
5
 62
     7
370
    25
100
AcDbLine
 10
1117.0
 20
48.0
 30
0.0
 11
1117.0
 21
28.0
 31
0.0
  0
LINE
  5
8C
330
1F
100
AcDbEntity
  8
5
 62
     7
370
    25
100
AcDbLine
 10
1105.0
 20
48.0
 30
0.0
 11
1105.0
 21
28.0
 31
0.0
  0
LINE
  5
8D
330
1F
100
AcDbEntity
  8
5
 62
     7
100
AcDbLine
 10
1098.5
 20
38.0
 30
0.0
 11
1098.5
 21
28.0
 31
0.0
  0
LINE
  5
8E
330
1F
100
AcDbEntity
  8
5
 62
     7
100
AcDbLine
 10
1092.0
 20
38.0
 30
0.0
 11
1092.0
 21
28.0
 31
0.0
  0
LINE
  5
8F
330
1F
100
AcDbEntity
  8
5
 62
     7
100
AcDbLine
 10
1085.5
 20
38.0
 30
0.0
 11
1085.5
 21
28.0
 31
0.0
  0
LINE
  5
90
330
1F
100
AcDbEntity
  8
5
 62
     7
370
    25
100
AcDbLine
 10
1079.0
 20
48.0
 30
0.0
 11
1179.0
 21
48.0
 31
0.0
  0
LINE
  5
91
330
1F
100
AcDbEntity
  8
5
 62
     7
370
    25
100
AcDbLine
 10
1079.0
 20
28.0
 30
0.0
 11
1179.0
 21
28.0
 31
0.0
  0
LINE
  5
92
330
1F
100
AcDbEntity
  8
5
 62
     7
370
    25
100
AcDbLine
 10
1079.0060750003
 20
18.9824004212
 30
0.0
 11
1179.0
 21
18.9824004212
 31
0.0
  0
LINE
  5
93
330
1F
100
AcDbEntity
  8
5
 62
     7
370
    25
100
AcDbLine
 10
1035.0
 20
66.0
 30
0.0
 11
1035.0
 21
38.0
 31
0.0
  0
LINE
  5
94
330
1F
100
AcDbEntity
  8
5
 62
     7
370
    25
100
AcDbLine
 10
1019.0
 20
66.0
 30
0.0
 11
1019.0
 21
38.0
 31
0.0
  0
LINE
  5
95
330
1F
100
AcDbEntity
  8
5
 62
     7
370
    25
100
AcDbLine
 10
1009.0
 20
66.0
 30
0.0
 11
1009.0
 21
38.0
 31
0.0
  0
LINE
  5
96
330
1F
100
AcDbEntity
  8
5
 62
     7
370
    25
100
AcDbLine
 10
1129.0
 20
66.0
 30
0.0
 11
1129.0
 21
38.0
 31
0.0
  0
LINE
  5
97
330
1F
100
AcDbEntity
  8
5
 62
     7
370
    25
100
AcDbLine
 10
1079.0
 20
66.0
 30
0.0
 11
1079.0
 21
10.0
 31
0.0
  0
LINE
  5
98
330
1F
100
AcDbEntity
  8
5
 62
     7
370
    25
100
AcDbLine
 10
1063.0
 20
66.0
 30
0.0
 11
1063.0
 21
10.0
 31
0.0
  0
LINE
  5
99
330
1F
100
AcDbEntity
  8
5
 62
     7
370
    25
100
AcDbLine
 10
1051.0
 20
66.0
 30
0.0
 11
1051.0
 21
10.0
 31
0.0
  0
LINE
  5
9A
330
1F
100
AcDbEntity
  8
5
 62
     7
370
    25
100
AcDbLine
 10
1039.0
 20
38.0
 30
0.0
 11
1039.0
 21
10.0
 31
0.0
  0
LINE
  5
9B
330
1F
100
AcDbEntity
  8
5
 62
     7
370
    25
100
AcDbLine
 10
1023.0
 20
38.0
 30
0.0
 11
1023.0
 21
10.0
 31
0.0
  0
LINE
  5
9C
330
1F
100
AcDbEntity
  8
5
 62
     7
370
    25
100
AcDbLine
 10
1011.0
 20
38.0
 30
0.0
 11
1011.0
 21
10.0
 31
0.0
  0
LINE
  5
9D
330
1F
100
AcDbEntity
  8
5
 62
     7
100
AcDbLine
 10
999.0
 20
59.0
 30
0.0
 11
1079.0
 21
59.0
 31
0.0
  0
LINE
  5
9E
330
1F
100
AcDbEntity
  8
5
 62
     7
100
AcDbLine
 10
999.0
 20
52.0
 30
0.0
 11
1079.0
 21
52.0
 31
0.0
  0
LINE
  5
9F
330
1F
100
AcDbEntity
  8
5
 62
     7
370
    25
100
AcDbLine
 10
999.0
 20
45.0
 30
0.0
 11
1079.0
 21
45.0
 31
0.0
  0
LINE
  5
A0
330
1F
100
AcDbEntity
  8
5
 62
     7
370
    25
100
AcDbLine
 10
999.0
 20
38.0
 30
0.0
 11
1129.0
 21
38.0
 31
0.0
  0
LINE
  5
A1
330
1F
100
AcDbEntity
  8
5
 62
     7
370
    25
100
AcDbLine
 10
999.0
 20
31.0
 30
0.0
 11
1079.0
 21
31.0
 31
0.0
  0
LINE
  5
A2
330
1F
100
AcDbEntity
  8
5
 62
     7
370
    25
100
AcDbLine
 10
999.0
 20
24.0
 30
0.0
 11
1079.0
 21
24.0
 31
0.0
  0
LINE
  5
A3
330
1F
100
AcDbEntity
  8
5
 62
     7
370
    25
100
AcDbLine
 10
999.0
 20
17.0
 30
0.0
 11
1079.0
 21
17.0
 31
0.0
  0
LINE
  5
A4
330
1F
100
AcDbEntity
  8
5
 62
     7
370
    25
100
AcDbLine
 10
999.0
 20
66.0
 30
0.0
 11
1179.0
 21
66.0
 31
0.0
  0
LINE
  5
A5
330
1F
100
AcDbEntity
  8
5
 62
     7
370
    25
100
AcDbLine
 10
999.0
 20
66.0
 30
0.0
 11
999.0
 21
10.0
 31
0.0
  0
LINE
  5
A6
330
1F
100
AcDbEntity
  8
5
 62
     7
100
AcDbLine
 10
0.0
 20
96.0
 30
0.0
 11
25.0
 21
96.0
 31
0.0
  0
LINE
  5
A7
330
1F
100
AcDbEntity
  8
5
 62
     7
100
AcDbLine
 10
0.0
 20
101.0
 30
0.0
 11
25.0
 21
101.0
 31
0.0
  0
LINE
  5
A8
330
1F
100
AcDbEntity
  8
5
 62
     7
100
AcDbLine
 10
0.0
 20
83.0
 30
0.0
 11
25.0
 21
83.0
 31
0.0
  0
LINE
  5
A9
330
1F
100
AcDbEntity
  8
5
 62
     7
100
AcDbLine
 10
0.0
 20
88.0
 30
0.0
 11
25.0
 21
88.0
 31
0.0
  0
LINE
  5
AA
330
1F
100
AcDbEntity
  8
5
 62
     7
100
AcDbLine
 10
0.0
 20
70.0
 30
0.0
 11
25.0
 21
70.0
 31
0.0
  0
LINE
  5
AB
330
1F
100
AcDbEntity
  8
5
 62
     7
100
AcDbLine
 10
0.0
 20
75.0
 30
0.0
 11
25.0
 21
75.0
 31
0.0
  0
LINE
  5
AC
330
1F
100
AcDbEntity
  8
5
 62
     7
100
AcDbLine
 10
0.0
 20
57.0
 30
0.0
 11
25.0
 21
57.0
 31
0.0
  0
LINE
  5
AD
330
1F
100
AcDbEntity
  8
5
 62
     7
100
AcDbLine
 10
0.0
 20
62.0
 30
0.0
 11
25.0
 21
62.0
 31
0.0
  0
LINE
  5
AE
330
1F
100
AcDbEntity
  8
5
 62
     7
100
AcDbLine
 10
0.0
 20
44.0
 30
0.0
 11
25.0
 21
44.0
 31
0.0
  0
LINE
  5
AF
330
1F
100
AcDbEntity
  8
5
 62
     7
100
AcDbLine
 10
0.0
 20
49.0
 30
0.0
 11
25.0
 21
49.0
 31
0.0
  0
LINE
  5
B0
330
1F
100
AcDbEntity
  8
5
 62
     7
100
AcDbLine
 10
0.0
 20
31.0
 30
0.0
 11
25.0
 21
31.0
 31
0.0
  0
LINE
  5
B1
330
1F
100
AcDbEntity
  8
5
 62
     7
100
AcDbLine
 10
0.0
 20
36.0
 30
0.0
 11
25.0
 21
36.0
 31
0.0
  0
LINE
  5
B2
330
1F
100
AcDbEntity
  8
5
 62
     7
100
AcDbLine
 10
0.0
 20
23.0
 30
0.0
 11
25.0
 21
23.0
 31
0.0
  0
LINE
  5
B3
330
1F
100
AcDbEntity
  8
5
 62
     7
100
AcDbLine
 10
0.0
 20
18.0
 30
0.0
 11
25.0
 21
18.0
 31
0.0
  0
LINE
  5
B4
330
1F
100
AcDbEntity
  8
5
 62
     7
100
AcDbLine
 10
0.0
 20
109.0
 30
0.0
 11
25.0
 21
109.0
 31
0.0
  0
LINE
  5
B5
330
1F
100
AcDbEntity
  8
5
 62
     7
100
AcDbLine
 10
0.0
 20
114.0
 30
0.0
 11
25.0
 21
114.0
 31
0.0
  0
LINE
  5
B6
330
1F
100
AcDbEntity
  8
5
100
AcDbLine
 10
452.0
 20
841.0
 30
0.0
 11
452.0
 21
831.0500990257
 31
0.0
  0
LINE
  5
B7
330
1F
100
AcDbEntity
  8
5
100
AcDbLine
 10
502.0
 20
841.0
 30
0.0
 11
502.0
 21
831.0500990257
 31
0.0
  0
LINE
  5
B8
330
1F
100
AcDbEntity
  8
5
100
AcDbLine
 10
552.0
 20
841.0
 30
0.0
 11
552.0
 21
831.0500990257
 31
0.0
  0
LINE
  5
B9
330
1F
100
AcDbEntity
  8
5
100
AcDbLine
 10
652.0
 20
841.0
 30
0.0
 11
652.0
 21
831.0500990257
 31
0.0
  0
LINE
  5
BA
330
1F
100
AcDbEntity
  8
5
100
AcDbLine
 10
702.0
 20
841.0
 30
0.0
 11
702.0
 21
831.0500990257
 31
0.0
  0
LINE
  5
BB
330
1F
100
AcDbEntity
  8
5
100
AcDbLine
 10
752.0
 20
841.0
 30
0.0
 11
752.0
 21
831.0500990257
 31
0.0
  0
LINE
  5
BC
330
1F
100
AcDbEntity
  8
5
100
AcDbLine
 10
802.0
 20
841.0
 30
0.0
 11
802.0
 21
831.0500990257
 31
0.0
  0
LINE
  5
BD
330
1F
100
AcDbEntity
  8
5
100
AcDbLine
 10
852.0
 20
841.0
 30
0.0
 11
852.0
 21
831.0500990257
 31
0.0
  0
LINE
  5
BE
330
1F
100
AcDbEntity
  8
5
100
AcDbLine
 10
902.0
 20
841.0
 30
0.0
 11
902.0
 21
831.0500990257
 31
0.0
  0
LINE
  5
BF
330
1F
100
AcDbEntity
  8
5
100
AcDbLine
 10
952.0
 20
841.0
 30
0.0
 11
952.0
 21
831.0500990257
 31
0.0
  0
LINE
  5
C0
330
1F
100
AcDbEntity
  8
5
100
AcDbLine
 10
1002.0
 20
841.0
 30
0.0
 11
1002.0
 21
831.0500990257
 31
0.0
  0
LINE
  5
C1
330
1F
100
AcDbEntity
  8
5
100
AcDbLine
 10
1052.0
 20
841.0
 30
0.0
 11
1052.0
 21
831.0500990257
 31
0.0
  0
LINE
  5
C2
330
1F
100
AcDbEntity
  8
5
100
AcDbLine
 10
1102.0
 20
841.0
 30
0.0
 11
1102.0
 21
831.0500990257
 31
0.0
  0
LINE
  5
C3
330
1F
100
AcDbEntity
  8
5
100
AcDbLine
 10
1152.0
 20
841.0
 30
0.0
 11
1152.0
 21
831.0500990257
 31
0.0
  0
LINE
  5
C4
330
1F
100
AcDbEntity
  8
5
100
AcDbLine
 10
1189.0
 20
770.5
 30
0.0
 11
1179.0
 21
770.5
 31
0.0
  0
LINE
  5
C5
330
1F
100
AcDbEntity
  8
5
100
AcDbLine
 10
1189.0
 20
720.5
 30
0.0
 11
1179.0
 21
720.5
 31
0.0
  0
LINE
  5
C6
330
1F
100
AcDbEntity
  8
5
370
    25
100
AcDbLine
 10
1105.0
 20
18.9824004212
 30
0.0
 11
1105.0
 21
10.0
 31
0.0
  0
LINE
  5
C7
330
1F
100
AcDbEntity
  8
5
100
AcDbLine
 10
1189.0
 20
670.5
 30
0.0
 11
1179.0
 21
670.5
 31
0.0
  0
LINE
  5
C8
330
1F
100
AcDbEntity
  8
5
100
AcDbLine
 10
1189.0
 20
620.5
 30
0.0
 11
1179.0
 21
620.5
 31
0.0
  0
LINE
  5
C9
330
1F
100
AcDbEntity
  8
5
100
AcDbLine
 10
1189.0
 20
570.5
 30
0.0
 11
1179.0
 21
570.5
 31
0.0
  0
LINE
  5
CA
330
1F
100
AcDbEntity
  8
5
100
AcDbLine
 10
1189.0
 20
520.5
 30
0.0
 11
1179.0
 21
520.5
 31
0.0
  0
LINE
  5
CB
330
1F
100
AcDbEntity
  8
5
100
AcDbLine
 10
1189.0
 20
470.5
 30
0.0
 11
1179.0
 21
470.5
 31
0.0
  0
LINE
  5
CC
330
1F
100
AcDbEntity
  8
5
100
AcDbLine
 10
1189.0
 20
370.5
 30
0.0
 11
1179.0
 21
370.5
 31
0.0
  0
LINE
  5
CD
330
1F
100
AcDbEntity
  8
5
100
AcDbLine
 10
1189.0
 20
320.5
 30
0.0
 11
1179.0
 21
320.5
 31
0.0
  0
LINE
  5
CE
330
1F
100
AcDbEntity
  8
5
100
AcDbLine
 10
1189.0
 20
270.5
 30
0.0
 11
1179.0
 21
270.5
 31
0.0
  0
LINE
  5
CF
330
1F
100
AcDbEntity
  8
5
100
AcDbLine
 10
1189.0
 20
220.5
 30
0.0
 11
1179.0
 21
220.5
 31
0.0
  0
LINE
  5
D0
330
1F
100
AcDbEntity
  8
5
100
AcDbLine
 10
1189.0
 20
170.5
 30
0.0
 11
1179.0
 21
170.5
 31
0.0
  0
LINE
  5
D1
330
1F
100
AcDbEntity
  8
5
100
AcDbLine
 10
1189.0
 20
120.5
 30
0.0
 11
1179.0
 21
120.5
 31
0.0
  0
LINE
  5
D2
330
1F
100
AcDbEntity
  8
5
100
AcDbLine
 10
1189.0
 20
70.5
 30
0.0
 11
1179.0
 21
70.5
 31
0.0
  0
LINE
  5
D3
330
1F
100
AcDbEntity
  8
5
100
AcDbLine
 10
1152.0
 20
0.0
 30
0.0
 11
1152.0
 21
10.0
 31
0.0
  0
LINE
  5
D4
330
1F
100
AcDbEntity
  8
5
100
AcDbLine
 10
1102.0
 20
0.0
 30
0.0
 11
1102.0
 21
10.0
 31
0.0
  0
LINE
  5
D5
330
1F
100
AcDbEntity
  8
5
100
AcDbLine
 10
1052.0
 20
0.0
 30
0.0
 11
1052.0
 21
10.0
 31
0.0
  0
LINE
  5
D6
330
1F
100
AcDbEntity
  8
5
100
AcDbLine
 10
1002.0
 20
0.0
 30
0.0
 11
1002.0
 21
10.0
 31
0.0
  0
LINE
  5
D7
330
1F
100
AcDbEntity
  8
5
100
AcDbLine
 10
952.0
 20
0.0
 30
0.0
 11
952.0
 21
10.0
 31
0.0
  0
LINE
  5
D8
330
1F
100
AcDbEntity
  8
5
100
AcDbLine
 10
902.0
 20
0.0
 30
0.0
 11
902.0
 21
10.0
 31
0.0
  0
LINE
  5
D9
330
1F
100
AcDbEntity
  8
5
100
AcDbLine
 10
852.0
 20
0.0
 30
0.0
 11
852.0
 21
10.0
 31
0.0
  0
LINE
  5
DA
330
1F
100
AcDbEntity
  8
5
100
AcDbLine
 10
802.0
 20
0.0
 30
0.0
 11
802.0
 21
10.0
 31
0.0
  0
LINE
  5
DB
330
1F
100
AcDbEntity
  8
5
100
AcDbLine
 10
752.0
 20
0.0
 30
0.0
 11
752.0
 21
10.0
 31
0.0
  0
LINE
  5
DC
330
1F
100
AcDbEntity
  8
5
100
AcDbLine
 10
702.0
 20
0.0
 30
0.0
 11
702.0
 21
10.0
 31
0.0
  0
LINE
  5
DD
330
1F
100
AcDbEntity
  8
5
100
AcDbLine
 10
652.0
 20
0.0
 30
0.0
 11
652.0
 21
10.0
 31
0.0
  0
LINE
  5
DE
330
1F
100
AcDbEntity
  8
5
100
AcDbLine
 10
552.0
 20
0.0
 30
0.0
 11
552.0
 21
10.0
 31
0.0
  0
LINE
  5
DF
330
1F
100
AcDbEntity
  8
5
100
AcDbLine
 10
502.0
 20
0.0
 30
0.0
 11
502.0
 21
10.0
 31
0.0
  0
LINE
  5
E0
330
1F
100
AcDbEntity
  8
5
100
AcDbLine
 10
452.0
 20
0.0
 30
0.0
 11
452.0
 21
10.0
 31
0.0
  0
LINE
  5
E1
330
1F
100
AcDbEntity
  8
5
100
AcDbLine
 10
402.0
 20
0.0
 30
0.0
 11
402.0
 21
10.0
 31
0.0
  0
LINE
  5
E2
330
1F
100
AcDbEntity
  8
5
100
AcDbLine
 10
352.0
 20
0.0
 30
0.0
 11
352.0
 21
10.0
 31
0.0
  0
LINE
  5
E3
330
1F
100
AcDbEntity
  8
5
100
AcDbLine
 10
302.0
 20
0.0
 30
0.0
 11
302.0
 21
10.0
 31
0.0
  0
LINE
  5
E4
330
1F
100
AcDbEntity
  8
5
100
AcDbLine
 10
252.0
 20
0.0
 30
0.0
 11
252.0
 21
10.0
 31
0.0
  0
LINE
  5
E5
330
1F
100
AcDbEntity
  8
5
100
AcDbLine
 10
202.0
 20
0.0
 30
0.0
 11
202.0
 21
10.0
 31
0.0
  0
LINE
  5
E6
330
1F
100
AcDbEntity
  8
5
100
AcDbLine
 10
152.0
 20
0.0
 30
0.0
 11
152.0
 21
10.0
 31
0.0
  0
LINE
  5
E7
330
1F
100
AcDbEntity
  8
5
100
AcDbLine
 10
102.0
 20
0.0
 30
0.0
 11
102.0
 21
10.0
 31
0.0
  0
LINE
  5
E8
330
1F
100
AcDbEntity
  8
5
100
AcDbLine
 10
52.0
 20
0.0
 30
0.0
 11
52.0
 21
10.0
 31
0.0
  0
LINE
  5
E9
330
1F
100
AcDbEntity
  8
5
100
AcDbLine
 10
0.0
 20
120.5
 30
0.0
 11
25.0
 21
120.5
 31
0.0
  0
LINE
  5
EA
330
1F
100
AcDbEntity
  8
5
100
AcDbLine
 10
0.0
 20
170.5
 30
0.0
 11
25.0
 21
170.5
 31
0.0
  0
LINE
  5
EB
330
1F
100
AcDbEntity
  8
5
100
AcDbLine
 10
0.0
 20
220.5
 30
0.0
 11
25.0
 21
220.5
 31
0.0
  0
LINE
  5
EC
330
1F
100
AcDbEntity
  8
5
100
AcDbLine
 10
0.0
 20
270.5
 30
0.0
 11
25.0
 21
270.5
 31
0.0
  0
LINE
  5
ED
330
1F
100
AcDbEntity
  8
5
100
AcDbLine
 10
0.0
 20
320.5
 30
0.0
 11
25.0
 21
320.5
 31
0.0
  0
LINE
  5
EE
330
1F
100
AcDbEntity
  8
5
100
AcDbLine
 10
0.0
 20
370.5
 30
0.0
 11
25.0
 21
370.5
 31
0.0
  0
LINE
  5
EF
330
1F
100
AcDbEntity
  8
5
100
AcDbLine
 10
0.0
 20
470.5
 30
0.0
 11
25.0
 21
470.5
 31
0.0
  0
LINE
  5
F0
330
1F
100
AcDbEntity
  8
5
100
AcDbLine
 10
0.0
 20
520.5
 30
0.0
 11
25.0
 21
520.5
 31
0.0
  0
LINE
  5
F1
330
1F
100
AcDbEntity
  8
5
100
AcDbLine
 10
0.0
 20
570.5
 30
0.0
 11
25.0
 21
570.5
 31
0.0
  0
LINE
  5
F2
330
1F
100
AcDbEntity
  8
5
100
AcDbLine
 10
0.0
 20
620.5
 30
0.0
 11
25.0
 21
620.5
 31
0.0
  0
LINE
  5
F3
330
1F
100
AcDbEntity
  8
5
100
AcDbLine
 10
0.0
 20
670.5
 30
0.0
 11
25.0
 21
670.5
 31
0.0
  0
LINE
  5
F4
330
1F
100
AcDbEntity
  8
5
100
AcDbLine
 10
0.0
 20
720.5
 30
0.0
 11
25.0
 21
720.5
 31
0.0
  0
LINE
  5
F5
330
1F
100
AcDbEntity
  8
5
100
AcDbLine
 10
0.0
 20
770.5
 30
0.0
 11
25.0
 21
770.5
 31
0.0
  0
MTEXT
  5
F7
330
1F
100
AcDbEntity
  8
9
 62
     7
100
AcDbMText
 10
1044.8565332691
 20
15.2155134827
 30
0.0
 40
3.5
 41
0.0
 71
     2
 72
     1
  1
\U+6279\U+51C6
  7
SLDTEXTSTYLE0
 73
     1
 44
1.0
  0
MTEXT
  5
F8
330
1F
100
AcDbEntity
  8
9
 62
     7
100
AcDbMText
 10
1044.8565335038
 20
36.3583587194
 30
0.0
 40
3.5
 41
0.0
 71
     2
 72
     1
  1
标\U+51C6\U+5316
  7
SLDTEXTSTYLE0
 73
     1
 44
1.0
  0
MTEXT
  5
F9
330
1F
100
AcDbEntity
  8
9
 62
     7
100
AcDbMText
 10
1044.8565332691
 20
29.2301241977
 30
0.0
 40
3.5
 41
0.0
 71
     2
 72
     1
  1
\U+5DE5艺
  7
SLDTEXTSTYLE0
 73
     1
 44
1.0
  0
MTEXT
  5
FA
330
1F
100
AcDbEntity
  8
9
 62
     7
100
AcDbMText
 10
1044.8565332691
 20
22.2492695624
 30
0.0
 40
3.5
 41
0.0
 71
     2
 72
     1
  1
审\U+6838
  7
SLDTEXTSTYLE0
 73
     1
 44
1.0
  0
MTEXT
  5
FB
330
1F
100
AcDbEntity
  8
9
 62
     7
100
AcDbMText
 10
1005.4260085121
 20
36.7666978954
 30
0.0
 40
3.5
 41
0.0
 71
     2
 72
     1
  1
设计
  7
SLDTEXTSTYLE0
 73
     1
 44
1.0
  0
MTEXT
  5
FD
330
1F
100
AcDbEntity
  8
9
 62
     7
100
AcDbMText
 10
1098.0551605271
 20
16.1881257794
 30
0.0
 40
3.5
 41
0.0
 71
     2
 72
     1
  1
\U+7B2C  张
  7
SLDTEXTSTYLE1
 73
     1
 44
1.0
  0
MTEXT
  5
FE
330
1F
100
AcDbEntity
  8
9
 62
     7
100
AcDbMText
 10
1086.1638882728
 20
16.1881257794
 30
0.0
 40
3.5
 41
0.0
 71
     2
 72
     1
  1
\U+5171  张
  7
SLDTEXTSTYLE1
 73
     1
 44
1.0
  0
MTEXT
  5
FF
330
1F
100
AcDbEntity
  8
9
 62
     7
100
AcDbMText
 10
1123.46023119
 20
44.81026916
 30
0.0
 40
3.5
 41
0.0
 71
     2
 72
     1
  1
\U+6BD4\U+4F8B
  7
SLDTEXTSTYLE0
 73
     1
 44
1.0
  0
MTEXT
  5
100
330
1F
100
AcDbEntity
  8
9
 62
     7
100
AcDbMText
 10
1111.5752889866
 20
44.81026916
 30
0.0
 40
3.5
 41
0.0
 71
     2
 72
     1
  1
\U+91CD\U+91CF
  7
SLDTEXTSTYLE0
 73
     1
 44
1.0
  0
MTEXT
  5
102
330
1F
100
AcDbEntity
  8
9
 62
     7
100
AcDbMText
 10
1092.2133236833
 20
44.81026916
 30
0.0
 40
3.5
 41
0.0
 71
     2
 72
     1
  1
阶 \U+6BB5 标 记
  7
SLDTEXTSTYLE2
 73
     1
 44
1.0
  0
MTEXT
  5
104
330
1F
100
AcDbEntity
  8
9
 62
     7
100
AcDbMText
 10
1071.2820966837
 20
43.3061811603
 30
0.0
 40
3.5
 41
0.0
 71
     2
 72
     1
  1
\U+5E74 \U+6708 \U+65E5
  7
SLDTEXTSTYLE3
 73
     1
 44
1.0
  0
MTEXT
  5
105
330
1F
100
AcDbEntity
  8
9
 62
     7
100
AcDbMText
 10
1057.3181136346
 20
43.3061811603
 30
0.0
 40
3.5
 41
0.0
 71
     2
 72
     1
  1
签\U+540D
  7
SLDTEXTSTYLE0
 73
     1
 44
1.0
  0
MTEXT
  5
106
330
1F
100
AcDbEntity
  8
9
 62
     7
100
AcDbMText
 10
1042.9355235194
 20
43.3061811603
 30
0.0
 40
3.5
 41
0.0
 71
     2
 72
     1
  1
\U+66F4\U+6539\U+6587\U+4EF6\U+53F7
  7
SLDTEXTSTYLE0
 73
     1
 44
1.0
  0
MTEXT
  5
107
330
1F
100
AcDbEntity
  8
9
 62
     7
100
AcDbMText
 10
1027.0892678052
 20
43.3061811603
 30
0.0
 40
3.5
 41
0.0
 71
     2
 72
     1
  1
\U+5206\U+533A
  7
SLDTEXTSTYLE0
 73
     1
 44
1.0
  0
MTEXT
  5
108
330
1F
100
AcDbEntity
  8
9
 62
     7
100
AcDbMText
 10
1013.9523696141
 20
43.3061811603
 30
0.0
 40
3.5
 41
0.0
 71
     2
 72
     1
  1
处\U+6570
  7
SLDTEXTSTYLE0
 73
     1
 44
1.0
  0
MTEXT
  5
109
330
1F
100
AcDbEntity
  8
9
 62
     7
100
AcDbMText
 10
1004.0263926523
 20
43.3061811603
 30
0.0
 40
3.5
 41
0.0
 71
     2
 72
     1
  1
标记
  7
SLDTEXTSTYLE0
 73
     1
 44
1.0
  0
MTEXT
  5
10A
330
1F
100
AcDbEntity
  8
9
 62
     7
100
AcDbMText
 10
4.2121999812
 20
48.4330613846
 30
0.0
 40
3.5
 41
0.0
 71
     1
 72
     1
  1
\U+5E95 图 总 \U+53F7
  7
SLDTEXTSTYLE2
 73
     1
 44
1.0
  0
MTEXT
  5
10B
330
1F
100
AcDbEntity
  8
9
 62
     7
100
AcDbMText
 10
5.4590751331
 20
61.2005832455
 30
0.0
 40
3.5
 41
0.0
 71
     1
 72
     1
  1
\U+65E7\U+5E95图总\U+53F7
  7
SLDTEXTSTYLE0
 73
     1
 44
1.0
  0
MTEXT
  5
10C
330
1F
100
AcDbEntity
  8
9
 62
     7
100
AcDbMText
 10
2.9328244653
 20
100.2755979073
 30
0.0
 40
3.5
 41
0.0
 71
     1
 72
     1
  1
\U+501F(\U+901A)\U+7528\U+4EF6\U+767B记
  7
SLDTEXTSTYLE0
 73
     1
 44
1.0
  0
MTEXT
  5
10E
330
1F
100
AcDbEntity
  8
9
 62
     7
100
AcDbMText
 10
12.9104639244
 20
87.1759996026
 30
0.0
 40
3.5
 41
0.0
 71
     2
 72
     1
  1
\U+63CF    图
  7
SLDTEXTSTYLE4
 73
     1
 44
1.0
  0
MTEXT
  5
10F
330
1F
100
AcDbEntity
  8
9
 62
     7
100
AcDbMText
 10
12.9104639244
 20
74.1365133241
 30
0.0
 40
3.5
 41
0.0
 71
     2
 72
     1
  1
\U+63CF    \U+6821
  7
SLDTEXTSTYLE4
 73
     1
 44
1.0
  0
MTEXT
  5
110
330
1F
100
AcDbEntity
  8
9
 62
     7
100
AcDbMText
 10
12.4724597662
 20
35.1925535267
 30
0.0
 40
3.5
 41
0.0
 71
     2
 72
     1
  1
签    \U+5B57
  7
SLDTEXTSTYLE4
 73
     1
 44
1.0
  0
MTEXT
  5
111
330
1F
100
AcDbEntity
  8
9
 62
     7
100
AcDbMText
 10
12.4724597662
 20
22.2333023039
 30
0.0
 40
3.5
 41
0.0
 71
     2
 72
     1
  1
\U+65E5    \U+671F
  7
SLDTEXTSTYLE4
 73
     1
 44
1.0
  0
MTEXT
  5
112
330
1F
100
AcDbEntity
  8
9
 62
     7
100
AcDbMText
 10
4.4821997088
 20
113.3598941288
 30
0.0
 40
3.5
 41
0.0
 71
     1
 72
     1
  1
\U+96F6 \U+4EF6 \U+4EE3 \U+53F7
  7
SLDTEXTSTYLE2
 73
     1
 44
1.0
  0
MTEXT
  5
113
330
1F
100
AcDbEntity
  8
SLD-0
100
AcDbMText
 10
1130.8513100353
 20
16.1881260123
 30
0.0
 40
3.5
 41
0.0
 71
     1
 72
     1
  1
\U+66FF\U+4EE3
  7
SLDTEXTSTYLE0
 73
     1
 44
1.0
  0
MTEXT
  5
114
330
1F
100
AcDbEntity
  8
10
 62
     7
100
AcDbMText
 10
1110.6256992481
 20
16.1881260123
 30
0.0
 40
3.5
 41
0.0
 71
     2
 72
     1
  1
\U+7248\U+672C
  7
SLDTEXTSTYLE0
 73
     1
 44
1.0
  0
MTEXT
  5
116
330
1F
100
AcDbEntity
  8
SLD-0
100
AcDbMText
 10
1124.9817589572
 20
35.1578012796
 30
0.0
 40
3.5
 41
0.0
 71
     2
 72
     1
  1
10:1
  7
SLDTEXTSTYLE5
 73
     1
 44
1.0
  0
MTEXT
  5
117
330
1F
100
AcDbEntity
  8
SLD-0
100
AcDbMText
 10
55.7573779845
 20
821.7376401445
 30
0.0
 40
3.5
 41
0.0
 71
     2
 72
     1
  1
\U+201C图样\U+4EE3\U+53F7\U+201D
  7
SLDTEXTSTYLE0
 11
-1.0
 21
-6.982962677686267E-15
 31
0.0
 73
     1
 44
1.0
  0
MTEXT
  5
118
330
1F
100
AcDbEntity
  8
10
100
AcDbMText
 10
1005.2753140002
 20
29.8567957274
 30
0.0
 40
3.5
 41
0.0
 71
     2
 72
     1
  1
\U+6821\U+6838
  7
SLDTEXTSTYLE0
 73
     1
 44
1.0
  0
MTEXT
  5
119
330
1F
100
AcDbEntity
  8
10
100
AcDbMText
 10
1005.1246194921
 20
22.8296680967
 30
0.0
 40
3.5
 41
0.0
 71
     2
 72
     1
  1
\U+4E3B\U+7BA1设计
  7
SLDTEXTSTYLE0
 73
     1
 44
1.0
  0
MTEXT
  5
11A
330
1F
100
AcDbEntity
  8
10
100
AcDbMText
 10
1156.7342832568
 20
26.3656999509
 30
0.0
 40
3.5
 41
0.0
 71
     2
 72
     1
  1
\U+201C图样\U+4EE3\U+53F7\U+201D
  7
SLDTEXTSTYLE0
 73
     1
 44
1.0
  0
MTEXT
  5
11B
330
1F
100
AcDbEntity
  8
10
100
AcDbMText
 10
1156.7318534362
 20
40.5105807917
 30
0.0
 40
3.5
 41
0.0
 71
     2
 72
     1
  1
\U+201C图样\U+540D\U+79F0\U+201D
  7
SLDTEXTSTYLE0
 73
     1
 44
1.0
  0
MTEXT
  5
11C
330
1F
100
AcDbEntity
  8
10
100
AcDbMText
 10
1112.1197334256
 20
35.1578012796
 30
0.0
 40
3.5
 41
0.0
 71
     2
 72
     1
  1
2
  7
SLDTEXTSTYLE5
 73
     1
 44
1.0
  0
MTEXT
  5
11D
330
1F
100
AcDbEntity
  8
10
100
AcDbMText
 10
1097.1353587749
 20
16.1881260123
 30
0.0
 40
3.5
 41
0.0
 71
     1
 72
     1
  1
1
  7
SLDTEXTSTYLE5
 73
     1
 44
1.0
  0
MTEXT
  5
11E
330
1F
100
AcDbEntity
  8
10
100
AcDbMText
 10
1085.1098855459
 20
16.1881260123
 30
0.0
 40
3.5
 41
0.0
 71
     1
 72
     1
  1
1
  7
SLDTEXTSTYLE5
 73
     1
 44
1.0
  0
MTEXT
  5
11F
330
1F
100
AcDbEntity
  8
10
100
AcDbMText
 10
26.5444444427
 20
6.9865309681
 30
0.0
 40
3.5
 41
0.0
 71
     2
 72
     1
  1
1
  7
SLDTEXTSTYLE5
 73
     1
 44
1.0
  0
MTEXT
  5
120
330
1F
100
AcDbEntity
  8
10
100
AcDbMText
 10
77.5444444427
 20
6.9865309681
 30
0.0
 40
3.5
 41
0.0
 71
     2
 72
     1
  1
2
  7
SLDTEXTSTYLE5
 73
     1
 44
1.0
  0
MTEXT
  5
121
330
1F
100
AcDbEntity
  8
10
100
AcDbMText
 10
1128.0888888855
 20
6.9865309681
 30
0.0
 40
3.5
 41
0.0
 71
     2
 72
     1
  1
23
  7
SLDTEXTSTYLE5
 73
     1
 44
1.0
  0
MTEXT
  5
122
330
1F
100
AcDbEntity
  8
10
100
AcDbMText
 10
1078.0888888855
 20
6.9865309681
 30
0.0
 40
3.5
 41
0.0
 71
     2
 72
     1
  1
22
  7
SLDTEXTSTYLE5
 73
     1
 44
1.0
  0
MTEXT
  5
123
330
1F
100
AcDbEntity
  8
10
100
AcDbMText
 10
1028.0888888855
 20
6.9865309681
 30
0.0
 40
3.5
 41
0.0
 71
     2
 72
     1
  1
21
  7
SLDTEXTSTYLE5
 73
     1
 44
1.0
  0
MTEXT
  5
124
330
1F
100
AcDbEntity
  8
10
100
AcDbMText
 10
978.0888888855
 20
6.9865309681
 30
0.0
 40
3.5
 41
0.0
 71
     2
 72
     1
  1
20
  7
SLDTEXTSTYLE5
 73
     1
 44
1.0
  0
MTEXT
  5
125
330
1F
100
AcDbEntity
  8
10
100
AcDbMText
 10
928.0913194045
 20
6.9865309681
 30
0.0
 40
3.5
 41
0.0
 71
     2
 72
     1
  1
19
  7
SLDTEXTSTYLE5
 73
     1
 44
1.0
  0
MTEXT
  5
126
330
1F
100
AcDbEntity
  8
10
100
AcDbMText
 10
878.0913194045
 20
6.9865309681
 30
0.0
 40
3.5
 41
0.0
 71
     2
 72
     1
  1
18
  7
SLDTEXTSTYLE5
 73
     1
 44
1.0
  0
MTEXT
  5
127
330
1F
100
AcDbEntity
  8
10
100
AcDbMText
 10
828.0913194045
 20
6.9865309681
 30
0.0
 40
3.5
 41
0.0
 71
     2
 72
     1
  1
17
  7
SLDTEXTSTYLE5
 73
     1
 44
1.0
  0
MTEXT
  5
128
330
1F
100
AcDbEntity
  8
10
100
AcDbMText
 10
778.0913194045
 20
6.9865309681
 30
0.0
 40
3.5
 41
0.0
 71
     2
 72
     1
  1
16
  7
SLDTEXTSTYLE5
 73
     1
 44
1.0
  0
MTEXT
  5
129
330
1F
100
AcDbEntity
  8
10
100
AcDbMText
 10
728.0888888855
 20
6.9865309681
 30
0.0
 40
3.5
 41
0.0
 71
     2
 72
     1
  1
15
  7
SLDTEXTSTYLE5
 73
     1
 44
1.0
  0
MTEXT
  5
12A
330
1F
100
AcDbEntity
  8
10
100
AcDbMText
 10
678.0888888855
 20
6.9865309681
 30
0.0
 40
3.5
 41
0.0
 71
     2
 72
     1
  1
14
  7
SLDTEXTSTYLE5
 73
     1
 44
1.0
  0
MTEXT
  5
12B
330
1F
100
AcDbEntity
  8
10
100
AcDbMText
 10
628.0888888855
 20
6.9865309681
 30
0.0
 40
3.5
 41
0.0
 71
     2
 72
     1
  1
13
  7
SLDTEXTSTYLE5
 73
     1
 44
1.0
  0
MTEXT
  5
12C
330
1F
100
AcDbEntity
  8
10
100
AcDbMText
 10
578.0888888855
 20
6.9865309681
 30
0.0
 40
3.5
 41
0.0
 71
     2
 72
     1
  1
12
  7
SLDTEXTSTYLE5
 73
     1
 44
1.0
  0
MTEXT
  5
12D
330
1F
100
AcDbEntity
  8
10
100
AcDbMText
 10
528.0888888855
 20
6.9865309681
 30
0.0
 40
3.5
 41
0.0
 71
     2
 72
     1
  1
11
  7
SLDTEXTSTYLE5
 73
     1
 44
1.0
  0
MTEXT
  5
12E
330
1F
100
AcDbEntity
  8
10
100
AcDbMText
 10
478.0888888855
 20
6.9865309681
 30
0.0
 40
3.5
 41
0.0
 71
     2
 72
     1
  1
10
  7
SLDTEXTSTYLE5
 73
     1
 44
1.0
  0
MTEXT
  5
12F
330
1F
100
AcDbEntity
  8
10
100
AcDbMText
 10
427.54687502
 20
6.9865309681
 30
0.0
 40
3.5
 41
0.0
 71
     2
 72
     1
  1
9
  7
SLDTEXTSTYLE5
 73
     1
 44
1.0
  0
MTEXT
  5
130
330
1F
100
AcDbEntity
  8
10
100
AcDbMText
 10
377.54687502
 20
6.9865309681
 30
0.0
 40
3.5
 41
0.0
 71
     2
 72
     1
  1
8
  7
SLDTEXTSTYLE5
 73
     1
 44
1.0
  0
MTEXT
  5
131
330
1F
100
AcDbEntity
  8
10
100
AcDbMText
 10
327.54687502
 20
6.9865309681
 30
0.0
 40
3.5
 41
0.0
 71
     2
 72
     1
  1
7
  7
SLDTEXTSTYLE5
 73
     1
 44
1.0
  0
MTEXT
  5
132
330
1F
100
AcDbEntity
  8
10
100
AcDbMText
 10
277.54687502
 20
6.9865309681
 30
0.0
 40
3.5
 41
0.0
 71
     2
 72
     1
  1
6
  7
SLDTEXTSTYLE5
 73
     1
 44
1.0
  0
MTEXT
  5
133
330
1F
100
AcDbEntity
  8
10
100
AcDbMText
 10
227.5444444427
 20
6.9865309681
 30
0.0
 40
3.5
 41
0.0
 71
     2
 72
     1
  1
5
  7
SLDTEXTSTYLE5
 73
     1
 44
1.0
  0
MTEXT
  5
134
330
1F
100
AcDbEntity
  8
10
100
AcDbMText
 10
177.5444444427
 20
6.9865309681
 30
0.0
 40
3.5
 41
0.0
 71
     2
 72
     1
  1
4
  7
SLDTEXTSTYLE5
 73
     1
 44
1.0
  0
MTEXT
  5
135
330
1F
100
AcDbEntity
  8
10
100
AcDbMText
 10
127.5444444427
 20
6.9865309681
 30
0.0
 40
3.5
 41
0.0
 71
     2
 72
     1
  1
3
  7
SLDTEXTSTYLE5
 73
     1
 44
1.0
  0
MTEXT
  5
136
330
1F
100
AcDbEntity
  8
10
100
AcDbMText
 10
1171.5888888855
 20
6.9865309681
 30
0.0
 40
3.5
 41
0.0
 71
     2
 72
     1
  1
24
  7
SLDTEXTSTYLE5
 73
     1
 44
1.0
  0
MTEXT
  5
137
330
1F
100
AcDbEntity
  8
10
100
AcDbMText
 10
1128.0888888855
 20
838.0323604824
 30
0.0
 40
3.5
 41
0.0
 71
     2
 72
     1
  1
23
  7
SLDTEXTSTYLE5
 73
     1
 44
1.0
  0
MTEXT
  5
138
330
1F
100
AcDbEntity
  8
10
100
AcDbMText
 10
878.0913194045
 20
838.0323604824
 30
0.0
 40
3.5
 41
0.0
 71
     2
 72
     1
  1
18
  7
SLDTEXTSTYLE5
 73
     1
 44
1.0
  0
MTEXT
  5
139
330
1F
100
AcDbEntity
  8
10
100
AcDbMText
 10
478.0888888855
 20
838.0323604824
 30
0.0
 40
3.5
 41
0.0
 71
     2
 72
     1
  1
10
  7
SLDTEXTSTYLE5
 73
     1
 44
1.0
  0
MTEXT
  5
13A
330
1F
100
AcDbEntity
  8
10
100
AcDbMText
 10
828.0913194045
 20
838.0323604824
 30
0.0
 40
3.5
 41
0.0
 71
     2
 72
     1
  1
17
  7
SLDTEXTSTYLE5
 73
     1
 44
1.0
  0
MTEXT
  5
13B
330
1F
100
AcDbEntity
  8
10
100
AcDbMText
 10
377.54687502
 20
838.0323604824
 30
0.0
 40
3.5
 41
0.0
 71
     2
 72
     1
  1
8
  7
SLDTEXTSTYLE5
 73
     1
 44
1.0
  0
MTEXT
  5
13C
330
1F
100
AcDbEntity
  8
10
100
AcDbMText
 10
978.0888888855
 20
838.0323604824
 30
0.0
 40
3.5
 41
0.0
 71
     2
 72
     1
  1
20
  7
SLDTEXTSTYLE5
 73
     1
 44
1.0
  0
MTEXT
  5
13D
330
1F
100
AcDbEntity
  8
10
100
AcDbMText
 10
277.54687502
 20
838.0323604824
 30
0.0
 40
3.5
 41
0.0
 71
     2
 72
     1
  1
6
  7
SLDTEXTSTYLE5
 73
     1
 44
1.0
  0
MTEXT
  5
13E
330
1F
100
AcDbEntity
  8
10
100
AcDbMText
 10
26.5444444427
 20
838.0323604824
 30
0.0
 40
3.5
 41
0.0
 71
     2
 72
     1
  1
1
  7
SLDTEXTSTYLE5
 73
     1
 44
1.0
  0
MTEXT
  5
13F
330
1F
100
AcDbEntity
  8
10
100
AcDbMText
 10
678.0888888855
 20
838.0323604824
 30
0.0
 40
3.5
 41
0.0
 71
     2
 72
     1
  1
14
  7
SLDTEXTSTYLE5
 73
     1
 44
1.0
  0
MTEXT
  5
140
330
1F
100
AcDbEntity
  8
10
100
AcDbMText
 10
177.5444444427
 20
838.0323604824
 30
0.0
 40
3.5
 41
0.0
 71
     2
 72
     1
  1
4
  7
SLDTEXTSTYLE5
 73
     1
 44
1.0
  0
MTEXT
  5
141
330
1F
100
AcDbEntity
  8
10
100
AcDbMText
 10
578.0888888855
 20
838.0323604824
 30
0.0
 40
3.5
 41
0.0
 71
     2
 72
     1
  1
12
  7
SLDTEXTSTYLE5
 73
     1
 44
1.0
  0
MTEXT
  5
142
330
1F
100
AcDbEntity
  8
10
100
AcDbMText
 10
77.5444444427
 20
838.0323604824
 30
0.0
 40
3.5
 41
0.0
 71
     2
 72
     1
  1
2
  7
SLDTEXTSTYLE5
 73
     1
 44
1.0
  0
MTEXT
  5
143
330
1F
100
AcDbEntity
  8
10
100
AcDbMText
 10
728.0888888855
 20
838.0323604824
 30
0.0
 40
3.5
 41
0.0
 71
     2
 72
     1
  1
15
  7
SLDTEXTSTYLE5
 73
     1
 44
1.0
  0
MTEXT
  5
144
330
1F
100
AcDbEntity
  8
10
100
AcDbMText
 10
528.0888888855
 20
838.0323604824
 30
0.0
 40
3.5
 41
0.0
 71
     2
 72
     1
  1
11
  7
SLDTEXTSTYLE5
 73
     1
 44
1.0
  0
MTEXT
  5
145
330
1F
100
AcDbEntity
  8
10
100
AcDbMText
 10
427.54687502
 20
838.0323604824
 30
0.0
 40
3.5
 41
0.0
 71
     2
 72
     1
  1
9
  7
SLDTEXTSTYLE5
 73
     1
 44
1.0
  0
MTEXT
  5
146
330
1F
100
AcDbEntity
  8
10
100
AcDbMText
 10
1078.0888888855
 20
838.0323604824
 30
0.0
 40
3.5
 41
0.0
 71
     2
 72
     1
  1
22
  7
SLDTEXTSTYLE5
 73
     1
 44
1.0
  0
MTEXT
  5
147
330
1F
100
AcDbEntity
  8
10
100
AcDbMText
 10
327.54687502
 20
838.0323604824
 30
0.0
 40
3.5
 41
0.0
 71
     2
 72
     1
  1
7
  7
SLDTEXTSTYLE5
 73
     1
 44
1.0
  0
MTEXT
  5
148
330
1F
100
AcDbEntity
  8
10
100
AcDbMText
 10
928.0913194045
 20
838.0323604824
 30
0.0
 40
3.5
 41
0.0
 71
     2
 72
     1
  1
19
  7
SLDTEXTSTYLE5
 73
     1
 44
1.0
  0
MTEXT
  5
149
330
1F
100
AcDbEntity
  8
10
100
AcDbMText
 10
628.0888888855
 20
838.0323604824
 30
0.0
 40
3.5
 41
0.0
 71
     2
 72
     1
  1
13
  7
SLDTEXTSTYLE5
 73
     1
 44
1.0
  0
MTEXT
  5
14A
330
1F
100
AcDbEntity
  8
10
100
AcDbMText
 10
227.5444444427
 20
838.0323604824
 30
0.0
 40
3.5
 41
0.0
 71
     2
 72
     1
  1
5
  7
SLDTEXTSTYLE5
 73
     1
 44
1.0
  0
MTEXT
  5
14B
330
1F
100
AcDbEntity
  8
10
100
AcDbMText
 10
1028.0888888855
 20
838.0323604824
 30
0.0
 40
3.5
 41
0.0
 71
     2
 72
     1
  1
21
  7
SLDTEXTSTYLE5
 73
     1
 44
1.0
  0
MTEXT
  5
14C
330
1F
100
AcDbEntity
  8
10
100
AcDbMText
 10
127.5444444427
 20
838.0323604824
 30
0.0
 40
3.5
 41
0.0
 71
     2
 72
     1
  1
3
  7
SLDTEXTSTYLE5
 73
     1
 44
1.0
  0
MTEXT
  5
14D
330
1F
100
AcDbEntity
  8
10
100
AcDbMText
 10
1171.5888888855
 20
838.0323604824
 30
0.0
 40
3.5
 41
0.0
 71
     2
 72
     1
  1
24
  7
SLDTEXTSTYLE5
 73
     1
 44
1.0
  0
MTEXT
  5
14E
330
1F
100
AcDbEntity
  8
10
100
AcDbMText
 10
778.0913194045
 20
838.0323604824
 30
0.0
 40
3.5
 41
0.0
 71
     2
 72
     1
  1
16
  7
SLDTEXTSTYLE5
 73
     1
 44
1.0
  0
MTEXT
  5
14F
330
1F
100
AcDbEntity
  8
10
100
AcDbMText
 10
13.32031252
 20
747.4865309681
 30
0.0
 40
3.5
 41
0.0
 71
     2
 72
     1
  1
B
  7
SLDTEXTSTYLE5
 73
     1
 44
1.0
  0
MTEXT
  5
150
330
1F
100
AcDbEntity
  8
10
100
AcDbMText
 10
13.4272569427
 20
697.5323604824
 30
0.0
 40
3.5
 41
0.0
 71
     2
 72
     1
  1
C
  7
SLDTEXTSTYLE5
 73
     1
 44
1.0
  0
MTEXT
  5
151
330
1F
100
AcDbEntity
  8
10
100
AcDbMText
 10
13.42968752
 20
647.4865309681
 30
0.0
 40
3.5
 41
0.0
 71
     2
 72
     1
  1
D
  7
SLDTEXTSTYLE5
 73
     1
 44
1.0
  0
MTEXT
  5
152
330
1F
100
AcDbEntity
  8
10
100
AcDbMText
 10
13.3178819427
 20
597.5323604824
 30
0.0
 40
3.5
 41
0.0
 71
     2
 72
     1
  1
E
  7
SLDTEXTSTYLE5
 73
     1
 44
1.0
  0
MTEXT
  5
153
330
1F
100
AcDbEntity
  8
10
100
AcDbMText
 10
13.224305544
 20
547.4865309681
 30
0.0
 40
3.5
 41
0.0
 71
     2
 72
     1
  1
F
  7
SLDTEXTSTYLE5
 73
     1
 44
1.0
  0
MTEXT
  5
154
330
1F
100
AcDbEntity
  8
10
100
AcDbMText
 10
13.53906252
 20
497.5323604824
 30
0.0
 40
3.5
 41
0.0
 71
     2
 72
     1
  1
G
  7
SLDTEXTSTYLE5
 73
     1
 44
1.0
  0
MTEXT
  5
155
330
1F
100
AcDbEntity
  8
10
100
AcDbMText
 10
13.42968752
 20
447.4865309681
 30
0.0
 40
3.5
 41
0.0
 71
     2
 72
     1
  1
H
  7
SLDTEXTSTYLE5
 73
     1
 44
1.0
  0
MTEXT
  5
156
330
1F
100
AcDbEntity
  8
10
100
AcDbMText
 10
13.015277795
 20
397.5323604824
 30
0.0
 40
3.5
 41
0.0
 71
     2
 72
     1
  1
J
  7
SLDTEXTSTYLE5
 73
     1
 44
1.0
  0
MTEXT
  5
157
330
1F
100
AcDbEntity
  8
10
100
AcDbMText
 10
13.32031252
 20
347.4865309681
 30
0.0
 40
3.5
 41
0.0
 71
     2
 72
     1
  1
K
  7
SLDTEXTSTYLE5
 73
     1
 44
1.0
  0
MTEXT
  5
158
330
1F
100
AcDbEntity
  8
10
100
AcDbMText
 10
13.180555549
 20
297.5323604824
 30
0.0
 40
3.5
 41
0.0
 71
     2
 72
     1
  1
L
  7
SLDTEXTSTYLE5
 73
     1
 44
1.0
  0
MTEXT
  5
159
330
1F
100
AcDbEntity
  8
10
100
AcDbMText
 10
13.5973958042
 20
247.4865309681
 30
0.0
 40
3.5
 41
0.0
 71
     2
 72
     1
  1
M
  7
SLDTEXTSTYLE5
 73
     1
 44
1.0
  0
MTEXT
  5
15A
330
1F
100
AcDbEntity
  8
10
100
AcDbMText
 10
13.5487847016
 20
197.5323604824
 30
0.0
 40
3.5
 41
0.0
 71
     2
 72
     1
  1
N
  7
SLDTEXTSTYLE5
 73
     1
 44
1.0
  0
MTEXT
  5
15B
330
1F
100
AcDbEntity
  8
10
100
AcDbMText
 10
13.4442708562
 20
147.4865309681
 30
0.0
 40
3.5
 41
0.0
 71
     2
 72
     1
  1
P
  7
SLDTEXTSTYLE5
 73
     1
 44
1.0
  0
MTEXT
  5
15C
330
1F
100
AcDbEntity
  8
10
100
AcDbMText
 10
13.32031252
 20
807.7823604824
 30
0.0
 40
3.5
 41
0.0
 71
     2
 72
     1
  1
A
  7
SLDTEXTSTYLE5
 73
     1
 44
1.0
  0
MTEXT
  5
15D
330
1F
100
AcDbEntity
  8
10
100
AcDbMText
 10
1184.65625002
 20
37.2365309681
 30
0.0
 40
3.5
 41
0.0
 71
     2
 72
     1
  1
T
  7
SLDTEXTSTYLE5
 73
     1
 44
1.0
  0
MTEXT
  5
15E
330
1F
100
AcDbEntity
  8
10
100
AcDbMText
 10
1184.92968752
 20
97.5323604824
 30
0.0
 40
3.5
 41
0.0
 71
     2
 72
     1
  1
R
  7
SLDTEXTSTYLE5
 73
     1
 44
1.0
  0
MTEXT
  5
15F
330
1F
100
AcDbEntity
  8
10
100
AcDbMText
 10
1184.9442708562
 20
147.4865309681
 30
0.0
 40
3.5
 41
0.0
 71
     2
 72
     1
  1
P
  7
SLDTEXTSTYLE5
 73
     1
 44
1.0
  0
MTEXT
  5
160
330
1F
100
AcDbEntity
  8
10
100
AcDbMText
 10
1185.0487847016
 20
197.5323604824
 30
0.0
 40
3.5
 41
0.0
 71
     2
 72
     1
  1
N
  7
SLDTEXTSTYLE5
 73
     1
 44
1.0
  0
MTEXT
  5
161
330
1F
100
AcDbEntity
  8
10
100
AcDbMText
 10
1185.0973958042
 20
247.4865309681
 30
0.0
 40
3.5
 41
0.0
 71
     2
 72
     1
  1
M
  7
SLDTEXTSTYLE5
 73
     1
 44
1.0
  0
MTEXT
  5
162
330
1F
100
AcDbEntity
  8
10
100
AcDbMText
 10
1184.680555549
 20
297.5323604824
 30
0.0
 40
3.5
 41
0.0
 71
     2
 72
     1
  1
L
  7
SLDTEXTSTYLE5
 73
     1
 44
1.0
  0
MTEXT
  5
163
330
1F
100
AcDbEntity
  8
10
100
AcDbMText
 10
1184.82031252
 20
347.4865309681
 30
0.0
 40
3.5
 41
0.0
 71
     2
 72
     1
  1
K
  7
SLDTEXTSTYLE5
 73
     1
 44
1.0
  0
MTEXT
  5
164
330
1F
100
AcDbEntity
  8
10
100
AcDbMText
 10
1184.515277795
 20
397.5323604824
 30
0.0
 40
3.5
 41
0.0
 71
     2
 72
     1
  1
J
  7
SLDTEXTSTYLE5
 73
     1
 44
1.0
  0
MTEXT
  5
165
330
1F
100
AcDbEntity
  8
10
100
AcDbMText
 10
1184.92968752
 20
447.4865309681
 30
0.0
 40
3.5
 41
0.0
 71
     2
 72
     1
  1
H
  7
SLDTEXTSTYLE5
 73
     1
 44
1.0
  0
MTEXT
  5
166
330
1F
100
AcDbEntity
  8
10
100
AcDbMText
 10
1185.03906252
 20
497.5323604824
 30
0.0
 40
3.5
 41
0.0
 71
     2
 72
     1
  1
G
  7
SLDTEXTSTYLE5
 73
     1
 44
1.0
  0
MTEXT
  5
167
330
1F
100
AcDbEntity
  8
10
100
AcDbMText
 10
1184.724305544
 20
547.4865309681
 30
0.0
 40
3.5
 41
0.0
 71
     2
 72
     1
  1
F
  7
SLDTEXTSTYLE5
 73
     1
 44
1.0
  0
MTEXT
  5
168
330
1F
100
AcDbEntity
  8
10
100
AcDbMText
 10
1184.8178819427
 20
597.5323604824
 30
0.0
 40
3.5
 41
0.0
 71
     2
 72
     1
  1
E
  7
SLDTEXTSTYLE5
 73
     1
 44
1.0
  0
MTEXT
  5
169
330
1F
100
AcDbEntity
  8
10
100
AcDbMText
 10
1184.92968752
 20
647.4865309681
 30
0.0
 40
3.5
 41
0.0
 71
     2
 72
     1
  1
D
  7
SLDTEXTSTYLE5
 73
     1
 44
1.0
  0
MTEXT
  5
16A
330
1F
100
AcDbEntity
  8
10
100
AcDbMText
 10
1184.9272569427
 20
697.5323604824
 30
0.0
 40
3.5
 41
0.0
 71
     2
 72
     1
  1
C
  7
SLDTEXTSTYLE5
 73
     1
 44
1.0
  0
MTEXT
  5
16B
330
1F
100
AcDbEntity
  8
10
100
AcDbMText
 10
1184.82031252
 20
747.4865309681
 30
0.0
 40
3.5
 41
0.0
 71
     2
 72
     1
  1
B
  7
SLDTEXTSTYLE5
 73
     1
 44
1.0
  0
MTEXT
  5
16C
330
1F
100
AcDbEntity
  8
10
100
AcDbMText
 10
1184.82031252
 20
807.7823604824
 30
0.0
 40
3.5
 41
0.0
 71
     2
 72
     1
  1
A
  7
SLDTEXTSTYLE5
 73
     1
 44
1.0
  0
LINE
  5
16D
330
1F
100
AcDbEntity
  8
0
  6
Continuous
 62
     7
100
AcDbLine
 10
593.8987937451
 20
440.280166201
 30
0.0
 11
594.0245236645
 21
440.280166201
 31
0.0
  0
LINE
  5
16E
330
1F
100
AcDbEntity
  8
0
  6
Continuous
 62
     7
100
AcDbLine
 10
593.8987937451
 20
440.280166201
 30
0.0
 11
593.8987937451
 21
440.5316260398
 31
0.0
  0
LINE
  5
16F
330
1F
100
AcDbEntity
  8
0
  6
Continuous
 62
     7
100
AcDbLine
 10
593.8987937451
 20
440.280166201
 30
0.0
 11
594.0245236645
 21
440.280166201
 31
0.0
  0
LINE
  5
170
330
1F
100
AcDbEntity
  8
0
  6
Continuous
 62
     7
100
AcDbLine
 10
593.8987937451
 20
440.280166201
 30
0.0
 11
593.8987937451
 21
440.5316260398
 31
0.0
  0
LINE
  5
171
330
1F
100
AcDbEntity
  8
0
  6
Continuous
 62
     7
100
AcDbLine
 10
593.8987937451
 20
440.280166201
 30
0.0
 11
594.0245236645
 21
440.280166201
 31
0.0
  0
LINE
  5
172
330
1F
100
AcDbEntity
  8
0
  6
Continuous
 62
     7
100
AcDbLine
 10
593.8987937451
 20
440.280166201
 30
0.0
 11
593.8987937451
 21
440.5316260398
 31
0.0
  0
POINT
  5
173
330
1F
100
AcDbEntity
  8
0
  6
Continuous
 62
     7
100
AcDbPoint
 10
593.8987937451
 20
440.280166201
 30
0.0
  0
POINT
  5
174
330
1F
100
AcDbEntity
  8
0
  6
Continuous
 62
     7
100
AcDbPoint
 10
593.8987937451
 20
440.280166201
 30
0.0
  0
POINT
  5
175
330
1F
100
AcDbEntity
  8
0
  6
Continuous
 62
     7
100
AcDbPoint
 10
593.8987937451
 20
440.280166201
 30
0.0
  0
SPLINE
  5
176
330
1F
100
AcDbEntity
  8
0
  6
Continuous
 62
     7
370
    25
100
AcDbSpline
210
0.0
220
0.0
230
1.0
 70
    11
 71
     3
 72
   262
 73
   258
 74
     0
 42
0.00000001
 43
0.00000001
 40
0.0
 40
0.0
 40
0.0
 40
0.0
 40
0.0078125
 40
0.0078125
 40
0.015625
 40
0.015625
 40
0.0234375
 40
0.0234375
 40
0.03125
 40
0.03125
 40
0.0390625000000001
 40
0.0390625000000001
 40
0.0468750000000001
 40
0.0468750000000001
 40
0.0625000000000001
 40
0.0625000000000001
 40
0.0703125
 40
0.0703125
 40
0.078125
 40
0.078125
 40
0.0859375
 40
0.0859375
 40
0.09375
 40
0.09375
 40
0.09765625
 40
0.09765625
 40
0.1015625
 40
0.1015625
 40
0.1093750000000001
 40
0.1093750000000001
 40
0.1171875000000001
 40
0.1171875000000001
 40
0.1250000000000001
 40
0.1250000000000001
 40
0.1328125000000002
 40
0.1328125000000002
 40
0.1406250000000002
 40
0.1406250000000002
 40
0.1562500000000004
 40
0.1562500000000004
 40
0.1640625000000004
 40
0.1640625000000004
 40
0.1718750000000005
 40
0.1718750000000005
 40
0.1796875000000006
 40
0.1796875000000006
 40
0.1875000000000006
 40
0.1875000000000006
 40
0.1953125000000007
 40
0.1953125000000007
 40
0.1992187500000007
 40
0.1992187500000007
 40
0.2031250000000008
 40
0.2031250000000008
 40
0.2109375000000008
 40
0.2109375000000008
 40
0.2187500000000009
 40
0.2187500000000009
 40
0.2265625000000009
 40
0.2265625000000009
 40
0.2343750000000009
 40
0.2343750000000009
 40
0.242187500000001
 40
0.242187500000001
 40
0.250000000000001
 40
0.250000000000001
 40
0.257812500000001
 40
0.257812500000001
 40
0.265625000000001
 40
0.265625000000001
 40
0.2734375000000011
 40
0.2734375000000011
 40
0.2812500000000011
 40
0.2812500000000011
 40
0.2890625000000011
 40
0.2890625000000011
 40
0.2968750000000011
 40
0.2968750000000011
 40
0.3007812500000011
 40
0.3007812500000011
 40
0.3046875000000011
 40
0.3046875000000011
 40
0.3125000000000011
 40
0.3125000000000011
 40
0.3203125000000011
 40
0.3203125000000011
 40
0.3281250000000011
 40
0.3281250000000011
 40
0.3359375000000011
 40
0.3359375000000011
 40
0.3437500000000011
 40
0.3437500000000011
 40
0.3593750000000012
 40
0.3593750000000012
 40
0.3671875000000012
 40
0.3671875000000012
 40
0.3750000000000012
 40
0.3750000000000012
 40
0.3828125000000012
 40
0.3828125000000012
 40
0.3906250000000012
 40
0.3906250000000012
 40
0.3984375000000013
 40
0.3984375000000013
 40
0.4023437500000013
 40
0.4023437500000013
 40
0.4062500000000013
 40
0.4062500000000013
 40
0.4140625000000013
 40
0.4140625000000013
 40
0.4218750000000013
 40
0.4218750000000013
 40
0.4296875000000013
 40
0.4296875000000013
 40
0.4375000000000014
 40
0.4375000000000014
 40
0.4531250000000014
 40
0.4531250000000014
 40
0.4609375000000014
 40
0.4609375000000014
 40
0.4687500000000014
 40
0.4687500000000014
 40
0.4765625000000014
 40
0.4765625000000014
 40
0.4843750000000014
 40
0.4843750000000014
 40
0.4921875000000014
 40
0.4921875000000014
 40
0.5000000000000014
 40
0.5000000000000014
 40
0.5078125000000014
 40
0.5078125000000014
 40
0.5156250000000014
 40
0.5156250000000014
 40
0.5234375000000014
 40
0.5234375000000014
 40
0.5312500000000014
 40
0.5312500000000014
 40
0.5390625000000014
 40
0.5390625000000014
 40
0.5468750000000016
 40
0.5468750000000016
 40
0.5625000000000017
 40
0.5625000000000017
 40
0.5703125000000017
 40
0.5703125000000017
 40
0.5781250000000017
 40
0.5781250000000017
 40
0.5859375000000017
 40
0.5859375000000017
 40
0.5937500000000017
 40
0.5937500000000017
 40
0.5976562500000017
 40
0.5976562500000017
 40
0.6015625000000017
 40
0.6015625000000017
 40
0.6093750000000017
 40
0.6093750000000017
 40
0.6171875000000017
 40
0.6171875000000017
 40
0.6250000000000018
 40
0.6250000000000018
 40
0.6328125000000018
 40
0.6328125000000018
 40
0.6406250000000018
 40
0.6406250000000018
 40
0.6562500000000017
 40
0.6562500000000017
 40
0.6640625000000017
 40
0.6640625000000017
 40
0.6718750000000017
 40
0.6718750000000017
 40
0.6796875000000017
 40
0.6796875000000017
 40
0.6875000000000017
 40
0.6875000000000017
 40
0.6953125000000017
 40
0.6953125000000017
 40
0.6992187500000017
 40
0.6992187500000017
 40
0.7031250000000017
 40
0.7031250000000017
 40
0.7109375000000017
 40
0.7109375000000017
 40
0.7187500000000016
 40
0.7187500000000016
 40
0.7265625000000014
 40
0.7265625000000014
 40
0.7343750000000013
 40
0.7343750000000013
 40
0.7421875000000012
 40
0.7421875000000012
 40
0.7500000000000011
 40
0.7500000000000011
 40
0.757812500000001
 40
0.757812500000001
 40
0.7656250000000009
 40
0.7656250000000009
 40
0.7734375000000008
 40
0.7734375000000008
 40
0.7812500000000007
 40
0.7812500000000007
 40
0.7890625000000006
 40
0.7890625000000006
 40
0.7968750000000006
 40
0.7968750000000006
 40
0.8007812500000006
 40
0.8007812500000006
 40
0.8046875000000006
 40
0.8046875000000006
 40
0.8125000000000004
 40
0.8125000000000004
 40
0.8203125000000003
 40
0.8203125000000003
 40
0.8281250000000002
 40
0.8281250000000002
 40
0.8359375000000001
 40
0.8359375000000001
 40
0.84375
 40
0.84375
 40
0.8593749999999999
 40
0.8593749999999999
 40
0.8671874999999999
 40
0.8671874999999999
 40
0.8749999999999999
 40
0.8749999999999999
 40
0.8828125
 40
0.8828125
 40
0.890625
 40
0.890625
 40
0.8984375
 40
0.8984375
 40
0.90234375
 40
0.90234375
 40
0.90625
 40
0.90625
 40
0.9140625
 40
0.9140625
 40
0.921875
 40
0.921875
 40
0.9296875
 40
0.9296875
 40
0.9375
 40
0.9375
 40
0.9531249999999999
 40
0.9531249999999999
 40
0.9609375
 40
0.9609375
 40
0.96875
 40
0.96875
 40
0.9765625
 40
0.9765625
 40
0.984375
 40
0.984375
 40
0.9921875
 40
0.9921875
 40
1.0
 40
1.0
 40
1.0
 40
1.0
 10
756.398793745101
 20
440.2801662010094
 30
0.0
 10
756.3987934492651
 20
443.0006233634306
 30
0.0
 10
757.3044242636555
 20
445.7199180636779
 30
0.0
 10
760.250879856975
 20
451.1047975248849
 30
0.0
 10
762.2506924998905
 20
453.7680563601095
 30
0.0
 10
766.1365596363102
 20
459.0545921231358
 30
0.0
 10
768.0010142954512
 20
461.6785808525069
 30
0.0
 10
770.9855537102235
 20
467.0208955139564
 30
0.0
 10
772.1198025662451
 20
469.7455315462291
 30
0.0
 10
773.5998194777146
 20
475.4162712730101
 30
0.0
 10
773.9565209449595
 20
478.3664569617466
 30
0.0
 10
773.944977038644
 20
484.4201050442937
 30
0.0
 10
773.5755253682278
 20
487.5193092424024
 30
0.0
 10
771.4512949061452
 20
496.6786897866514
 30
0.0
 10
768.6757137377874
 20
502.5523321816098
 30
0.0
 10
763.0519409277887
 20
509.5776777182226
 30
0.0
 10
760.9355017916871
 20
511.6285037141344
 30
0.0
 10
756.204132396902
 20
515.0989084020174
 30
0.0
 10
753.5753826241112
 20
516.5152946056971
 30
0.0
 10
747.8277755127414
 20
518.9014238658423
 30
0.0
 10
744.6942630238741
 20
519.8682088381415
 30
0.0
 10
738.4374569529464
 20
521.8754507180726
 30
0.0
 10
735.3408792454626
 20
522.934123582216
 30
0.0
 10
731.4524986223911
 20
525.1185673474888
 30
0.0
 10
730.2829066156249
 20
525.9455081779947
 30
0.0
 10
728.2766705499826
 20
527.8471515052108
 30
0.0
 10
727.4410553274631
 20
528.9225116783591
 30
0.0
 10
725.4556324218375
 20
532.5217377083097
 30
0.0
 10
724.84776280075
 20
535.431498095035
 30
0.0
 10
724.3828031624201
 20
541.7238403848746
 30
0.0
 10
724.4938966813037
 20
545.080429634236
 30
0.0
 10
724.4752515231364
 20
551.5905426855261
 30
0.0
 10
724.3373024238824
 20
554.7415941229243
 30
0.0
 10
723.3549104968313
 20
560.6877409108723
 30
0.0
 10
722.5182298237588
 20
563.4962812664843
 30
0.0
 10
720.0855072296998
 20
568.8434905781747
 30
0.0
 10
718.4945533825947
 20
571.3880523622057
 30
0.0
 10
712.7517655048929
 20
578.5265598896503
 30
0.0
 10
707.6132654065759
 20
582.6022870208832
 30
0.0
 10
699.2514904895819
 20
586.685867068465
 30
0.0
 10
696.3642529539537
 20
587.7117004243458
 30
0.0
 10
690.555606864475
 20
588.9942836352151
 30
0.0
 10
687.6365829042602
 20
589.2492999750268
 30
0.0
 10
681.7459102174727
 20
588.9589546217236
 30
0.0
 10
678.7640707418209
 20
588.4022017426795
 30
0.0
 10
672.6601615766724
 20
586.7265153084359
 30
0.0
 10
669.5292984929699
 20
585.5991864617271
 30
0.0
 10
663.2978077458212
 20
583.6387169881857
 30
0.0
 10
660.2108785982151
 20
582.84152099097
 30
0.0
 10
655.8956481416074
 20
582.7137750105267
 30
0.0
 10
654.5097957668328
 20
582.8471792353138
 30
0.0
 10
651.8700620854945
 20
583.525498986247
 30
0.0
 10
650.616434821876
 20
584.0709614804445
 30
0.0
 10
647.0513581056229
 20
586.2805045660352
 30
0.0
 10
644.9425321978903
 20
588.5316689815448
 30
0.0
 10
640.9757452328091
 20
593.6103115493354
 30
0.0
 10
639.1073785816131
 20
596.3984104399746
 30
0.0
 10
635.2229086047467
 20
601.5213007272168
 30
0.0
 10
633.2034881746795
 20
603.8609519551405
 30
0.0
 10
628.7671652280582
 20
607.8282131982705
 30
0.0
 10
626.3486438239127
 20
609.4712686803733
 30
0.0
 10
621.063850014482
 20
612.10666983662
 30
0.0
 10
618.1995276022359
 20
613.1023911096627
 30
0.0
 10
612.1878847174289
 20
614.4404130395716
 30
0.0
 10
609.044265872558
 20
614.7801660102219
 30
0.0
 10
602.7533268960451
 20
614.7801663917965
 30
0.0
 10
599.6097081662359
 20
614.4404138066141
 30
0.0
 10
593.5980654490387
 20
613.1023927109655
 30
0.0
 10
590.7337430653347
 20
612.1066718912222
 30
0.0
 10
585.4489488287958
 20
609.4712715913215
 30
0.0
 10
583.0304269563641
 20
607.8282165009664
 30
0.0
 10
578.5941027431328
 20
603.8609556810185
 30
0.0
 10
576.5746815355186
 20
601.5213044756517
 30
0.0
 10
572.6902101920647
 20
596.3984137793128
 30
0.0
 10
570.8218429642708
 20
593.6103144682049
 30
0.0
 10
566.8550552750237
 20
588.5316708738675
 30
0.0
 10
564.7462292124799
 20
586.2805058524108
 30
0.0
 10
561.1811525535943
 20
584.07096188052
 30
0.0
 10
559.9275253561416
 20
583.5254990944184
 30
0.0
 10
557.2877918919683
 20
582.847178793112
 30
0.0
 10
555.9019396682783
 20
582.713774309927
 30
0.0
 10
551.5867097807278
 20
582.8415196054282
 30
0.0
 10
548.4997811725375
 20
583.6387152692731
 30
0.0
 10
542.2682916927029
 20
585.5991844982875
 30
0.0
 10
539.1374293390659
 20
586.7265134429452
 30
0.0
 10
533.033521463571
 20
588.4022005219575
 30
0.0
 10
530.0516825326524
 20
588.9589539385322
 30
0.0
 10
524.1610104396354
 20
589.2493004086616
 30
0.0
 10
521.2419865185672
 20
588.9942846282087
 30
0.0
 10
515.4333401191334
 20
587.7117022746577
 30
0.0
 10
512.546102253651
 20
586.6858692242374
 30
0.0
 10
504.184326392178
 20
582.6022899979089
 30
0.0
 10
499.0458260174095
 20
578.5265635400216
 30
0.0
 10
493.3030375230038
 20
571.3880571484965
 30
0.0
 10
491.7120833647176
 20
568.8434957086534
 30
0.0
 10
489.2793597942479
 20
563.4962866967206
 30
0.0
 10
488.4426784634239
 20
560.6877462830921
 30
0.0
 10
487.4602852725712
 20
554.7415989160759
 30
0.0
 10
487.322335589605
 20
551.5905469624196
 30
0.0
 10
487.3036897325944
 20
545.0804326978462
 30
0.0
 10
487.4147831299255
 20
541.7238427697672
 30
0.0
 10
486.9498236792043
 20
535.4314992659531
 30
0.0
 10
486.3419543626095
 20
532.521738338315
 30
0.0
 10
484.3565321052013
 20
528.922511702112
 30
0.0
 10
483.5209171300702
 20
527.847151360455
 30
0.0
 10
481.5146815993304
 20
525.945507780023
 30
0.0
 10
480.3450898801836
 20
525.1185668649968
 30
0.0
 10
476.4567101471463
 20
522.9341229963954
 30
0.0
 10
473.3601330725619
 20
521.8754502706471
 30
0.0
 10
467.1033281184087
 20
519.8682091106185
 30
0.0
 10
463.9698161014018
 20
518.9014247295041
 30
0.0
 10
458.2222094929047
 20
516.5152968216336
 30
0.0
 10
455.5934597510143
 20
515.0989113580108
 30
0.0
 10
450.8620900260506
 20
511.6285078069672
 30
0.0
 10
448.7456505366735
 20
509.5776821884683
 30
0.0
 10
443.1218765198466
 20
502.5523372035755
 30
0.0
 10
440.3462944878038
 20
496.6786946216697
 30
0.0
 10
438.2220629792263
 20
487.5193146292954
 30
0.0
 10
437.8526109609998
 20
484.4201106935139
 30
0.0
 10
437.84106623384
 20
478.3664629009787
 30
0.0
 10
438.197767216994
 20
475.4162772182799
 30
0.0
 10
439.6777831645749
 20
469.7455369619131
 30
0.0
 10
440.8120315585974
 20
467.0209003972302
 30
0.0
 10
443.7965704277855
 20
461.6785844181845
 30
0.0
 10
445.6610250186843
 20
459.0545949204956
 30
0.0
 10
449.5468924758916
 20
453.7680578292919
 30
0.0
 10
451.5467054886384
 20
451.1047984392138
 30
0.0
 10
454.4931620436734
 20
445.7199182470521
 30
0.0
 10
455.3987934492702
 20
443.0006233634298
 30
0.0
 10
455.3987940409316
 20
437.5597090385889
 30
0.0
 10
454.4931632265463
 20
434.840414338343
 30
0.0
 10
451.5467076332563
 20
429.4555348771375
 30
0.0
 10
449.5468949903179
 20
426.7922760419119
 30
0.0
 10
445.6610278538886
 20
421.5057402788811
 30
0.0
 10
443.7965731947521
 20
418.8817515495065
 30
0.0
 10
440.8120337799774
 20
413.5394368880548
 30
0.0
 10
439.6777849239576
 20
410.8148008557843
 30
0.0
 10
438.1977680124878
 20
405.1440611290092
 30
0.0
 10
437.8410665452417
 20
402.1938754402755
 30
0.0
 10
437.8526104515544
 20
396.1402273577305
 30
0.0
 10
438.2220621219711
 20
393.0410231596204
 30
0.0
 10
440.346292584058
 20
383.8816426153654
 30
0.0
 10
443.1218737524219
 20
378.0080002204051
 30
0.0
 10
448.7456465624163
 20
370.9826546837955
 30
0.0
 10
450.8620856985134
 20
368.9318286878847
 30
0.0
 10
455.5934550932931
 20
365.461424000002
 30
0.0
 10
458.2222048660829
 20
364.0450377963218
 30
0.0
 10
463.9698119774567
 20
361.6589085361758
 30
0.0
 10
467.1033244663278
 20
360.6921235638769
 30
0.0
 10
473.3601305372603
 20
358.6848816839482
 30
0.0
 10
476.4567082447448
 20
357.6262088198064
 30
0.0
 10
480.3450888678145
 20
355.4417650545327
 30
0.0
 10
481.5146808745798
 20
354.6148242240262
 30
0.0
 10
483.5209169402203
 20
352.7131808968088
 30
0.0
 10
484.3565321627386
 20
351.6378207236595
 30
0.0
 10
486.341955068362
 20
348.0385946937064
 30
0.0
 10
486.9498246894488
 20
345.1288343069797
 30
0.0
 10
487.4147843277794
 20
338.8364920171405
 30
0.0
 10
487.3036908088972
 20
335.479902767781
 30
0.0
 10
487.3223359670673
 20
328.9697897164954
 30
0.0
 10
487.4602850663231
 20
325.8187382790991
 30
0.0
 10
488.4426769933757
 20
319.8725914911512
 30
0.0
 10
489.2793576664466
 20
317.0640511355375
 30
0.0
 10
491.7120802604999
 20
311.7168418238418
 30
0.0
 10
493.3030341076019
 20
309.1722800398067
 30
0.0
 10
499.0458219853012
 20
302.0337725123594
 30
0.0
 10
504.1843220836299
 20
297.9580453811394
 30
0.0
 10
512.5460970006262
 20
293.8744653335581
 30
0.0
 10
515.433334536253
 20
292.8486319776754
 30
0.0
 10
521.2419806257268
 20
291.5660487668038
 30
0.0
 10
524.161004585939
 20
291.3110324269916
 30
0.0
 10
530.0516772727237
 20
291.6013777802945
 30
0.0
 10
533.0335167483759
 20
292.1581306593392
 30
0.0
 10
539.137425913528
 20
293.8338170935823
 30
0.0
 10
542.2682889972328
 20
294.9611459402906
 30
0.0
 10
548.4997797443837
 20
296.9216154138327
 30
0.0
 10
551.586708891989
 20
297.7188114110485
 30
0.0
 10
555.9019393485951
 20
297.8465573914921
 30
0.0
 10
557.2877917233692
 20
297.713153166705
 30
0.0
 10
559.9275254047067
 20
297.0348334157715
 30
0.0
 10
561.1811526683249
 20
296.4893709215741
 30
0.0
 10
564.7462293845787
 20
294.2798278359833
 30
0.0
 10
566.8550552923126
 20
292.0286634204726
 30
0.0
 10
570.8218422573938
 20
286.9500208526821
 30
0.0
 10
572.6902089085889
 20
284.1619219620444
 30
0.0
 10
576.5746788854528
 20
279.0390316748055
 30
0.0
 10
578.5940993155186
 20
276.6993804468842
 30
0.0
 10
583.030422262141
 20
272.7321192037525
 30
0.0
 10
585.448943666288
 20
271.0890637216475
 30
0.0
 10
590.7337374757216
 20
268.4536625653946
 30
0.0
 10
593.5980598879687
 20
267.4579412923496
 30
0.0
 10
599.6097027727745
 20
266.1199193624406
 30
0.0
 10
602.7533216176442
 20
265.7801663917938
 30
0.0
 10
609.0442605941554
 20
265.7801660102253
 30
0.0
 10
612.1878793239639
 20
266.1199185954108
 30
0.0
 10
618.1995220411615
 20
267.457939691059
 30
0.0
 10
621.0638444248658
 20
268.4536605108005
 30
0.0
 10
626.3486386614056
 20
271.0890608106955
 30
0.0
 10
628.7671605338372
 20
272.7321159010471
 30
0.0
 10
633.2034847470679
 20
276.6993767209936
 30
0.0
 10
635.2229059546823
 20
279.039027926362
 30
0.0
 10
639.1073772981368
 20
284.1619186227056
 30
0.0
 10
640.9757445259312
 20
286.9500179338156
 30
0.0
 10
644.9425322151791
 20
292.028661528156
 30
0.0
 10
647.0513582777226
 20
294.2798265496121
 30
0.0
 10
650.6164349366071
 20
296.4893705214998
 30
0.0
 10
651.8700621340596
 20
297.0348333076003
 30
0.0
 10
654.509795598232
 20
297.7131536089047
 30
0.0
 10
655.8956478219216
 20
297.846558092089
 30
0.0
 10
660.2108777094713
 20
297.7188127965861
 30
0.0
 10
663.2978063176614
 20
296.921617132742
 30
0.0
 10
669.5292957974972
 20
294.961147903731
 30
0.0
 10
672.6601581511355
 20
293.8338189590751
 30
0.0
 10
678.7640660266321
 20
292.1581318800653
 30
0.0
 10
681.7459049575509
 20
291.6013784634908
 30
0.0
 10
687.6365770505671
 20
291.3110319933587
 30
0.0
 10
690.5556009716338
 20
291.5660477738097
 30
0.0
 10
696.3642473710652
 20
292.848630127358
 30
0.0
 10
699.2514852365466
 20
293.8744631777773
 30
0.0
 10
707.61326109802
 20
297.9580424041081
 30
0.0
 10
712.7517614727961
 20
302.0337688619957
 30
0.0
 10
718.4945499672011
 20
309.1722752535214
 30
0.0
 10
720.0855041254857
 20
311.7168366933639
 30
0.0
 10
722.5182276959512
 20
317.0640457052969
 30
0.0
 10
723.3549090267728
 20
319.8725861189246
 30
0.0
 10
724.3373022176241
 20
325.818733485941
 30
0.0
 10
724.4752519005926
 20
328.9697854395978
 30
0.0
 10
724.49389775761
 20
335.4798997041705
 30
0.0
 10
724.3828043602815
 20
338.8364896322481
 30
0.0
 10
724.8477638110043
 20
345.1288331360607
 30
0.0
 10
725.4556331275969
 20
348.0385940636995
 30
0.0
 10
727.4410553850004
 20
351.6378206999053
 30
0.0
 10
728.2766703601297
 20
352.7131810415631
 30
0.0
 10
730.2829058908667
 20
354.6148246219967
 30
0.0
 10
731.4524976100125
 20
355.4417655370236
 30
0.0
 10
735.3408773430485
 20
357.6262094056267
 30
0.0
 10
738.4374544176336
 20
358.6848821313742
 30
0.0
 10
744.6942593717906
 20
360.6921232913996
 30
0.0
 10
747.8277713888016
 20
361.6589076725121
 30
0.0
 10
753.5753779973006
 20
364.045035580381
 30
0.0
 10
756.2041277391905
 20
365.461421044005
 30
0.0
 10
760.9354974641503
 20
368.9318245950504
 30
0.0
 10
763.051936953526
 20
370.9826502135492
 30
0.0
 10
768.6757109703557
 20
378.0079951984421
 30
0.0
 10
771.4512930023974
 20
383.881637780347
 30
0.0
 10
773.5755245109747
 20
393.0410177727235
 30
0.0
 10
773.9449765292021
 20
396.1402217085065
 30
0.0
 10
773.9565212563626
 20
402.1938695010398
 30
0.0
 10
773.5998202732083
 20
405.1440551837367
 30
0.0
 10
772.1198043256258
 20
410.8147954401019
 30
0.0
 10
770.9855559316002
 20
413.5394320047839
 30
0.0
 10
768.0010170624137
 20
418.8817479838314
 30
0.0
 10
766.1365624715136
 20
421.5057374815212
 30
0.0
 10
762.2506950143257
 20
426.7922745727249
 30
0.0
 10
760.2508820016069
 20
429.4555339628032
 30
0.0
 10
757.3044254465441
 20
434.8404141549645
 30
0.0
 10
756.3987940409369
 20
437.5597090385881
 30
0.0
 10
756.398793745101
 20
440.2801662010094
 30
0.0
  0
CIRCLE
  5
177
330
1F
100
AcDbEntity
  8
0
  6
Continuous
 62
     7
370
    25
100
AcDbCircle
 10
662.2737937451
 20
342.6358019243
 30
0.0
 40
32.0
  0
CIRCLE
  5
178
330
1F
100
AcDbEntity
  8
0
  6
Continuous
 62
     7
370
    25
100
AcDbCircle
 10
493.1487937451
 20
440.280166201
 30
0.0
 40
31.99999999999994
  0
CIRCLE
  5
179
330
1F
100
AcDbEntity
  8
0
  6
Continuous
 62
     7
370
    25
100
AcDbCircle
 10
549.5237937451
 20
537.9245304777
 30
0.0
 40
32.0
  0
CIRCLE
  5
17A
330
1F
100
AcDbEntity
  8
0
  6
Continuous
 62
     7
370
    25
100
AcDbCircle
 10
605.8987937451
 20
440.280166201
 30
0.0
 40
74.99999999999989
  0
CIRCLE
  5
17B
330
1F
100
AcDbEntity
  8
0
  6
Continuous
 62
     7
370
    25
100
AcDbCircle
 10
549.5237937451
 20
342.6358019243
 30
0.0
 40
32.0
  0
CIRCLE
  5
17C
330
1F
100
AcDbEntity
  8
0
  6
Continuous
 62
     7
370
    25
100
AcDbCircle
 10
718.6487937451
 20
440.280166201
 30
0.0
 40
32.0
  0
CIRCLE
  5
17D
330
1F
100
AcDbEntity
  8
0
  6
Continuous
 62
     7
370
    25
100
AcDbCircle
 10
662.2737937451
 20
537.9245304777
 30
0.0
 40
32.0
  0
ENDSEC
  0
SECTION
  2
OBJECTS
  0
DICTIONARY
  5
C
330
0
100
AcDbDictionary
281
     1
  3
ACAD_GROUP
350
D
  3
ACAD_LAYOUT
350
1A
  3
ACAD_MLINESTYLE
350
17
  3
ACAD_PLOTSETTINGS
350
19
  3
ACAD_PLOTSTYLENAME
350
E
  3
ACAD_SCALELIST
350
47
  3
DWGPROPS
350
17E
  0
DICTIONARY
  5
D
102
{ACAD_REACTORS
330
C
102
}
330
C
100
AcDbDictionary
281
     1
  0
DICTIONARY
  5
1A
102
{ACAD_REACTORS
330
C
102
}
330
C
100
AcDbDictionary
281
     1
  3
Layout1
350
1E
  3
Layout2
350
26
  3
Model
350
22
  0
DICTIONARY
  5
17
102
{ACAD_REACTORS
330
C
102
}
330
C
100
AcDbDictionary
281
     1
  3
Standard
350
18
  0
DICTIONARY
  5
19
102
{ACAD_REACTORS
330
C
102
}
330
C
100
AcDbDictionary
281
     1
  0
ACDBDICTIONARYWDFLT
  5
E
102
{ACAD_REACTORS
330
C
102
}
330
C
100
AcDbDictionary
281
     1
  3
Normal
350
F
100
AcDbDictionaryWithDefault
340
F
  0
DICTIONARY
  5
47
102
{ACAD_REACTORS
330
C
102
}
330
C
100
AcDbDictionary
281
     1
  3
A0
350
48
  3
A1
350
49
  3
A2
350
4A
  3
A3
350
4B
  3
A4
350
4C
  3
A5
350
4D
  3
A6
350
4E
  3
A7
350
4F
  3
A8
350
50
  3
A9
350
51
  3
B0
350
52
  3
B1
350
53
  3
B2
350
54
  3
B3
350
55
  3
B4
350
56
  3
B5
350
57
  3
B6
350
58
  0
XRECORD
  5
17E
102
{ACAD_REACTORS
330
C
102
}
330
C
100
AcDbXrecord
280
     1
  1
DWGPROPS COOKIE
  2

  3

  4

  6

  7

  8
Semitia
  9

300
=
301
=
302
=
303
=
304
=
305
=
306
=
307
=
308
=
309
=
 40
0.0
 41
2460360.24919875
 42
2460360.249201574
  1

 90
        0
  0
LAYOUT
  5
1E
102
{ACAD_REACTORS
330
1A
102
}
330
1A
100
AcDbPlotSettings
  1

  2
none_device
  4

  6

 40
0.0
 41
0.0
 42
0.0
 43
0.0
 44
0.0
 45
0.0
 46
0.0
 47
0.0
 48
0.0
 49
0.0
140
0.0
141
0.0
142
1.0
143
1.0
 70
   688
 72
     1
 73
     0
 74
     5
  7

 75
    16
147
1.0
148
0.0
149
0.0
100
AcDbLayout
  1
Layout1
 70
     1
 71
     1
 10
0.0
 20
0.0
 11
420.0
 21
297.0
 12
0.0
 22
0.0
 32
0.0
 14
1.0000000000E+20
 24
1.0000000000E+20
 34
1.0000000000E+20
 15
-1.0000000000E+20
 25
-1.0000000000E+20
 35
-1.0000000000E+20
146
0.0
 13
0.0
 23
0.0
 33
0.0
 16
1.0
 26
0.0
 36
0.0
 17
0.0
 27
1.0
 37
0.0
 76
     0
330
1B
  0
LAYOUT
  5
26
102
{ACAD_REACTORS
330
1A
102
}
330
1A
100
AcDbPlotSettings
  1

  2
none_device
  4

  6

 40
0.0
 41
0.0
 42
0.0
 43
0.0
 44
0.0
 45
0.0
 46
0.0
 47
0.0
 48
0.0
 49
0.0
140
0.0
141
0.0
142
1.0
143
1.0
 70
   688
 72
     1
 73
     0
 74
     5
  7

 75
    16
147
1.0
148
0.0
149
0.0
100
AcDbLayout
  1
Layout2
 70
     1
 71
     2
 10
0.0
 20
0.0
 11
0.0
 21
0.0
 12
0.0
 22
0.0
 32
0.0
 14
0.0
 24
0.0
 34
0.0
 15
0.0
 25
0.0
 35
0.0
146
0.0
 13
0.0
 23
0.0
 33
0.0
 16
1.0
 26
0.0
 36
0.0
 17
0.0
 27
1.0
 37
0.0
 76
     0
330
23
  0
LAYOUT
  5
22
102
{ACAD_REACTORS
330
1A
102
}
330
1A
100
AcDbPlotSettings
  1

  2
none_device
  4
Letter_(8.50_x_11.00_Inches)
  6

 40
6.35
 41
6.35
 42
6.35000508
 43
6.35000508
 44
215.9
 45
279.4
 46
0.0
 47
0.0
 48
0.0
 49
0.0
140
0.0
141
0.0
142
1.0
143
1.0
 70
  1712
 72
     1
 73
     0
 74
     0
  7

 75
     0
147
1.0
148
0.0
149
0.0
100
AcDbLayout
  1
Model
 70
     1
 71
     0
 10
0.0
 20
0.0
 11
1189.0
 21
841.0
 12
0.0
 22
0.0
 32
0.0
 14
0.0
 24
0.0
 34
0.0
 15
1189.0
 25
841.0
 35
0.0
146
0.0
 13
0.0
 23
0.0
 33
0.0
 16
1.0
 26
0.0
 36
0.0
 17
0.0
 27
1.0
 37
0.0
 76
     0
330
1F
331
29
  0
MLINESTYLE
  5
18
102
{ACAD_REACTORS
330
17
102
}
330
17
100
AcDbMlineStyle
  2
Standard
 70
     0
  3

 62
   256
 51
90.0
 52
90.0
 71
     2
 49
0.5
 62
   256
  6
BYLAYER
 49
-0.5
 62
   256
  6
BYLAYER
  0
ACDBPLACEHOLDER
  5
F
102
{ACAD_REACTORS
330
E
102
}
330
E
  0
SCALE
  5
48
102
{ACAD_REACTORS
330
47
102
}
330
47
100
AcDbScale
 70
     0
300
1:1
140
1.0
141
1.0
290
     1
  0
SCALE
  5
49
102
{ACAD_REACTORS
330
47
102
}
330
47
100
AcDbScale
 70
     0
300
1:2
140
1.0
141
2.0
290
     0
  0
SCALE
  5
4A
102
{ACAD_REACTORS
330
47
102
}
330
47
100
AcDbScale
 70
     0
300
1:4
140
1.0
141
4.0
290
     0
  0
SCALE
  5
4B
102
{ACAD_REACTORS
330
47
102
}
330
47
100
AcDbScale
 70
     0
300
1:5
140
1.0
141
5.0
290
     0
  0
SCALE
  5
4C
102
{ACAD_REACTORS
330
47
102
}
330
47
100
AcDbScale
 70
     0
300
1:8
140
1.0
141
8.0
290
     0
  0
SCALE
  5
4D
102
{ACAD_REACTORS
330
47
102
}
330
47
100
AcDbScale
 70
     0
300
1:10
140
1.0
141
10.0
290
     0
  0
SCALE
  5
4E
102
{ACAD_REACTORS
330
47
102
}
330
47
100
AcDbScale
 70
     0
300
1:16
140
1.0
141
16.0
290
     0
  0
SCALE
  5
4F
102
{ACAD_REACTORS
330
47
102
}
330
47
100
AcDbScale
 70
     0
300
1:20
140
1.0
141
20.0
290
     0
  0
SCALE
  5
50
102
{ACAD_REACTORS
330
47
102
}
330
47
100
AcDbScale
 70
     0
300
1:30
140
1.0
141
30.0
290
     0
  0
SCALE
  5
51
102
{ACAD_REACTORS
330
47
102
}
330
47
100
AcDbScale
 70
     0
300
1:40
140
1.0
141
40.0
290
     0
  0
SCALE
  5
52
102
{ACAD_REACTORS
330
47
102
}
330
47
100
AcDbScale
 70
     0
300
1:50
140
1.0
141
50.0
290
     0
  0
SCALE
  5
53
102
{ACAD_REACTORS
330
47
102
}
330
47
100
AcDbScale
 70
     0
300
1:100
140
1.0
141
100.0
290
     0
  0
SCALE
  5
54
102
{ACAD_REACTORS
330
47
102
}
330
47
100
AcDbScale
 70
     0
300
2:1
140
2.0
141
1.0
290
     0
  0
SCALE
  5
55
102
{ACAD_REACTORS
330
47
102
}
330
47
100
AcDbScale
 70
     0
300
4:1
140
4.0
141
1.0
290
     0
  0
SCALE
  5
56
102
{ACAD_REACTORS
330
47
102
}
330
47
100
AcDbScale
 70
     0
300
8:1
140
8.0
141
1.0
290
     0
  0
SCALE
  5
57
102
{ACAD_REACTORS
330
47
102
}
330
47
100
AcDbScale
 70
     0
300
10:1
140
10.0
141
1.0
290
     0
  0
SCALE
  5
58
102
{ACAD_REACTORS
330
47
102
}
330
47
100
AcDbScale
 70
     0
300
100:1
140
100.0
141
1.0
290
     0
  0
ENDSEC
  0
EOF
