  0
SECTION
  2
HEADER
  9
$ACADVER
  1
AC1015
  9
$ACADMAINTVER
 70
     6
  9
$DWGCODEPAGE
  3
ANSI_936
  9
$INSBASE
 10
0.0
 20
0.0
 30
0.0
  9
$EXTMIN
 10
0.0
 20
0.0
 30
0.0
  9
$EXTMAX
 10
1189.0
 20
841.0
 30
0.0
  9
$LIMMIN
 10
0.0
 20
0.0
  9
$LIMMAX
 10
1189.0
 20
841.0
  9
$ORTHOMODE
 70
     0
  9
$REGENMODE
 70
     1
  9
$FILLMODE
 70
     1
  9
$QTEXTMODE
 70
     0
  9
$MIRRTEXT
 70
     1
  9
$LTSCALE
 40
1.0
  9
$ATTMODE
 70
     1
  9
$TEXTSIZE
 40
3.5
  9
$TRACEWID
 40
1.0
  9
$TEXTSTYLE
  7
Standard
  9
$CLAYER
  8
0
  9
$CELTYPE
  6
ByLayer
  9
$CECOLOR
 62
   256
  9
$CELTSCALE
 40
1.0
  9
$DISPSILH
 70
     0
  9
$DIMSCALE
 40
1.0
  9
$DIMASZ
 40
4.08
  9
$DIMEXO
 40
0.0
  9
$DIMDLI
 40
3.75
  9
$DIMRND
 40
0.0
  9
$DIMDLE
 40
0.0
  9
$DIMEXE
 40
2.0
  9
$DIMTP
 40
0.0
  9
$DIMTM
 40
0.0
  9
$DIMTXT
 40
3.5
  9
$DIMCEN
 40
2.5
  9
$DIMTSZ
 40
0.0
  9
$DIMTOL
 70
     0
  9
$DIMLIM
 70
     0
  9
$DIMTIH
 70
     1
  9
$DIMTOH
 70
     1
  9
$DIMSE1
 70
     0
  9
$DIMSE2
 70
     0
  9
$DIMTAD
 70
     1
  9
$DIMZIN
 70
     0
  9
$DIMBLK
  1

  9
$DIMASO
 70
     1
  9
$DIMSHO
 70
     1
  9
$DIMPOST
  1

  9
$DIMAPOST
  1

  9
$DIMALT
 70
     0
  9
$DIMALTD
 70
     3
  9
$DIMALTF
 40
0.0393700787
  9
$DIMLFAC
 40
0.1
  9
$DIMTOFL
 70
     1
  9
$DIMTVP
 40
0.0
  9
$DIMTIX
 70
     0
  9
$DIMSOXD
 70
     0
  9
$DIMSAH
 70
     0
  9
$DIMBLK1
  1

  9
$DIMBLK2
  1

  9
$DIMSTYLE
  2
ISO-25
  9
$DIMCLRD
 70
     0
  9
$DIMCLRE
 70
     0
  9
$DIMCLRT
 70
     0
  9
$DIMTFAC
 40
1.0
  9
$DIMGAP
 40
1.524
  9
$DIMJUST
 70
     0
  9
$DIMSD1
 70
     0
  9
$DIMSD2
 70
     0
  9
$DIMTOLJ
 70
     0
  9
$DIMTZIN
 70
     0
  9
$DIMALTZ
 70
     0
  9
$DIMALTTZ
 70
     0
  9
$DIMUPT
 70
     0
  9
$DIMDEC
 70
     2
  9
$DIMTDEC
 70
     2
  9
$DIMALTU
 70
     2
  9
$DIMALTTD
 70
     3
  9
$DIMTXSTY
  7
Standard
  9
$DIMAUNIT
 70
     0
  9
$DIMADEC
 70
     2
  9
$DIMALTRND
 40
0.0
  9
$DIMAZIN
 70
     0
  9
$DIMDSEP
 70
    44
  9
$DIMATFIT
 70
     3
  9
$DIMFRAC
 70
     0
  9
$DIMLDRBLK
  1

  9
$DIMLUNIT
 70
     2
  9
$DIMLWD
 70
    -2
  9
$DIMLWE
 70
    -2
  9
$DIMTMOVE
 70
     0
  9
$LUNITS
 70
     2
  9
$LUPREC
 70
     2
  9
$SKETCHINC
 40
1.0
  9
$FILLETRAD
 40
0.0
  9
$AUNITS
 70
     0
  9
$AUPREC
 70
     2
  9
$MENU
  1
.
  9
$ELEVATION
 40
0.0
  9
$PELEVATION
 40
0.0
  9
$THICKNESS
 40
0.0
  9
$LIMCHECK
 70
     0
  9
$CHAMFERA
 40
0.0
  9
$CHAMFERB
 40
0.0
  9
$CHAMFERC
 40
0.0
  9
$CHAMFERD
 40
0.0
  9
$SKPOLY
 70
     0
  9
$TDCREATE
 40
2460360.148617106
  9
$TDUCREATE
 40
2460359.815283773
  9
$TDUPDATE
 40
2460360.148620417
  9
$TDUUPDATE
 40
2460359.815287083
  9
$TDINDWG
 40
0.0000000116
  9
$TDUSRTIMER
 40
0.0000000116
  9
$USRTIMER
 70
     1
  9
$ANGBASE
 50
0.0
  9
$ANGDIR
 70
     0
  9
$PDMODE
 70
     0
  9
$PDSIZE
 40
-1.0
  9
$PLINEWID
 40
0.0
  9
$SPLFRAME
 70
     0
  9
$SPLINETYPE
 70
     6
  9
$SPLINESEGS
 70
     8
  9
$HANDSEED
  5
197
  9
$SURFTAB1
 70
     6
  9
$SURFTAB2
 70
     6
  9
$SURFTYPE
 70
     6
  9
$SURFU
 70
     6
  9
$SURFV
 70
     6
  9
$UCSBASE
  2

  9
$UCSNAME
  2

  9
$UCSORG
 10
0.0
 20
0.0
 30
0.0
  9
$UCSXDIR
 10
1.0
 20
0.0
 30
0.0
  9
$UCSYDIR
 10
0.0
 20
1.0
 30
0.0
  9
$UCSORTHOREF
  2

  9
$UCSORTHOVIEW
 70
     0
  9
$UCSORGTOP
 10
0.0
 20
0.0
 30
0.0
  9
$UCSORGBOTTOM
 10
0.0
 20
0.0
 30
0.0
  9
$UCSORGLEFT
 10
0.0
 20
0.0
 30
0.0
  9
$UCSORGRIGHT
 10
0.0
 20
0.0
 30
0.0
  9
$UCSORGFRONT
 10
0.0
 20
0.0
 30
0.0
  9
$UCSORGBACK
 10
0.0
 20
0.0
 30
0.0
  9
$PUCSBASE
  2

  9
$PUCSNAME
  2

  9
$PUCSORG
 10
0.0
 20
0.0
 30
0.0
  9
$PUCSXDIR
 10
1.0
 20
0.0
 30
0.0
  9
$PUCSYDIR
 10
0.0
 20
1.0
 30
0.0
  9
$PUCSORTHOREF
  2

  9
$PUCSORTHOVIEW
 70
     0
  9
$PUCSORGTOP
 10
0.0
 20
0.0
 30
0.0
  9
$PUCSORGBOTTOM
 10
0.0
 20
0.0
 30
0.0
  9
$PUCSORGLEFT
 10
0.0
 20
0.0
 30
0.0
  9
$PUCSORGRIGHT
 10
0.0
 20
0.0
 30
0.0
  9
$PUCSORGFRONT
 10
0.0
 20
0.0
 30
0.0
  9
$PUCSORGBACK
 10
0.0
 20
0.0
 30
0.0
  9
$USERI1
 70
     0
  9
$USERI2
 70
     0
  9
$USERI3
 70
     0
  9
$USERI4
 70
     0
  9
$USERI5
 70
     0
  9
$USERR1
 40
0.0
  9
$USERR2
 40
0.0
  9
$USERR3
 40
0.0
  9
$USERR4
 40
0.0
  9
$USERR5
 40
0.0
  9
$WORLDVIEW
 70
     1
  9
$SHADEDGE
 70
     3
  9
$SHADEDIF
 70
    70
  9
$TILEMODE
 70
     1
  9
$MAXACTVP
 70
    64
  9
$PINSBASE
 10
0.0
 20
0.0
 30
0.0
  9
$PLIMCHECK
 70
     0
  9
$PEXTMIN
 10
1.0000000000E+20
 20
1.0000000000E+20
 30
1.0000000000E+20
  9
$PEXTMAX
 10
-1.0000000000E+20
 20
-1.0000000000E+20
 30
-1.0000000000E+20
  9
$PLIMMIN
 10
0.0
 20
0.0
  9
$PLIMMAX
 10
420.0
 20
297.0
  9
$UNITMODE
 70
     0
  9
$VISRETAIN
 70
     1
  9
$PLINEGEN
 70
     0
  9
$PSLTSCALE
 70
     1
  9
$TREEDEPTH
 70
  3020
  9
$CMLSTYLE
  2
Standard
  9
$CMLJUST
 70
     0
  9
$CMLSCALE
 40
20.0
  9
$PROXYGRAPHICS
 70
     1
  9
$MEASUREMENT
 70
     1
  9
$CELWEIGHT
370
    -1
  9
$ENDCAPS
280
     0
  9
$JOINSTYLE
280
     0
  9
$LWDISPLAY
290
     1
  9
$INSUNITS
 70
     4
  9
$HYPERLINKBASE
  1

  9
$STYLESHEET
  1

  9
$XEDIT
290
     1
  9
$CEPSNTYPE
380
     0
  9
$PSTYLEMODE
290
     1
  9
$FINGERPRINTGUID
  2
{2bb529f4-1deb-4771-8087-da36275e889b}
  9
$VERSIONGUID
  2
{FAEB1C32-E019-11D5-929B-00C0DF256EC4}
  9
$EXTNAMES
290
     1
  9
$PSVPSCALE
 40
0.0
  9
$OLESTARTUP
290
     0
  0
ENDSEC
  0
SECTION
  2
CLASSES
  0
CLASS
  1
ACDBDICTIONARYWDFLT
  2
AcDbDictionaryWithDefault
  3
ObjectDBX Classes
 90
        0
280
     0
281
     0
  0
CLASS
  1
VISUALSTYLE
  2
AcDbVisualStyle
  3
ObjectDBX Classes
 90
     4095
280
     0
281
     0
  0
CLASS
  1
MATERIAL
  2
AcDbMaterial
  3
ObjectDBX Classes
 90
     1153
280
     0
281
     0
  0
CLASS
  1
SCALE
  2
AcDbScale
  3
ObjectDBX Classes
 90
     1153
280
     0
281
     0
  0
CLASS
  1
TABLESTYLE
  2
AcDbTableStyle
  3
ObjectDBX Classes
 90
     4095
280
     0
281
     0
  0
CLASS
  1
MLEADERSTYLE
  2
AcDbMLeaderStyle
  3
ACDB_MLEADERSTYLE_CLASS
 90
     4095
280
     0
281
     0
  0
CLASS
  1
SUN
  2
AcDbSun
  3
SCENEOE
 90
     1153
280
     0
281
     0
  0
CLASS
  1
ACDBPLACEHOLDER
  2
AcDbPlaceHolder
  3
ObjectDBX Classes
 90
        0
280
     0
281
     0
  0
CLASS
  1
LAYOUT
  2
AcDbLayout
  3
ObjectDBX Classes
 90
        0
280
     0
281
     0
  0
ENDSEC
  0
SECTION
  2
TABLES
  0
TABLE
  2
VPORT
  5
8
330
0
100
AcDbSymbolTable
 70
     1
  0
VPORT
  5
29
330
8
100
AcDbSymbolTableRecord
100
AcDbViewportTableRecord
  2
*Active
 70
     0
 10
0.0
 20
0.0
 11
1.0
 21
1.0
 12
594.5
 22
420.5
 13
0.0
 23
0.0
 14
10.0
 24
10.0
 15
10.0
 25
10.0
 16
0.0
 26
0.0
 36
1.0
 17
0.0
 27
0.0
 37
0.0
 40
841.0
 41
1.4137931034
 42
50.0
 43
0.0
 44
0.0
 50
0.0
 51
0.0
 71
     0
 72
  2000
 73
     1
 74
     3
 75
     0
 76
     0
 77
     0
 78
     0
281
     0
 65
     1
110
0.0
120
0.0
130
0.0
111
1.0
121
0.0
131
0.0
112
0.0
122
1.0
132
0.0
 79
     0
146
0.0
  0
ENDTAB
  0
TABLE
  2
LTYPE
  5
5
330
0
100
AcDbSymbolTable
 70
     6
  0
LTYPE
  5
14
330
5
100
AcDbSymbolTableRecord
100
AcDbLinetypeTableRecord
  2
ByBlock
 70
     0
  3

 72
    65
 73
     0
 40
0.0
  0
LTYPE
  5
15
330
5
100
AcDbSymbolTableRecord
100
AcDbLinetypeTableRecord
  2
ByLayer
 70
     0
  3

 72
    65
 73
     0
 40
0.0
  0
LTYPE
  5
16
330
5
100
AcDbSymbolTableRecord
100
AcDbLinetypeTableRecord
  2
Continuous
 70
     0
  3
Solid line
 72
    65
 73
     0
 40
0.0
  0
LTYPE
  5
5E
330
5
100
AcDbSymbolTableRecord
100
AcDbLinetypeTableRecord
  2
HIDDEN
 70
     0
  3
Hidden __ __ __ __ __ __ __ __ __ __ __ __ __ __
 72
    65
 73
     2
 40
1.905
 49
1.27
 74
     0
 49
-0.635
 74
     0
  0
LTYPE
  5
5F
330
5
100
AcDbSymbolTableRecord
100
AcDbLinetypeTableRecord
  2
PHANTOM
 70
     0
  3
Phantom ______  __  __  ______  __  __  ______
 72
    65
 73
     6
 40
12.7
 49
6.35
 74
     0
 49
-1.27
 74
     0
 49
1.27
 74
     0
 49
-1.27
 74
     0
 49
1.27
 74
     0
 49
-1.27
 74
     0
  0
LTYPE
  5
60
330
5
100
AcDbSymbolTableRecord
100
AcDbLinetypeTableRecord
  2
CENTER
 70
     0
  3
Center ____ _ ____ _ ____ _ ____ _ ____ _ ____
 72
    65
 73
     4
 40
10.16
 49
6.35
 74
     0
 49
-1.27
 74
     0
 49
1.27
 74
     0
 49
-1.27
 74
     0
  0
LTYPE
  5
61
330
5
100
AcDbSymbolTableRecord
100
AcDbLinetypeTableRecord
  2
CENTERX2
 70
     0
  3
Center (2x) ________  __  ________  __  _____
 72
    65
 73
     4
 40
20.32
 49
12.7
 74
     0
 49
-2.54
 74
     0
 49
2.54
 74
     0
 49
-2.54
 74
     0
  0
LTYPE
  5
62
330
5
100
AcDbSymbolTableRecord
100
AcDbLinetypeTableRecord
  2
DOT2
 70
     0
  3
Dot (.5x) ........................................
 72
    65
 73
     2
 40
0.635
 49
0.0
 74
     0
 49
-0.635
 74
     0
  0
ENDTAB
  0
TABLE
  2
LAYER
  5
2
330
0
100
AcDbSymbolTable
 70
    18
  0
LAYER
  5
10
330
2
100
AcDbSymbolTableRecord
100
AcDbLayerTableRecord
  2
0
 70
     0
 62
     7
  6
Continuous
370
    -3
390
F
  0
LAYER
  5
63
330
2
100
AcDbSymbolTableRecord
100
AcDbLayerTableRecord
  2
SLD-0
 70
     0
 62
     7
  6
Continuous
370
    -3
390
F
  0
LAYER
  5
64
330
2
100
AcDbSymbolTableRecord
100
AcDbLayerTableRecord
  2
10
 70
     0
 62
     7
  6
Continuous
370
    -3
390
F
  0
LAYER
  5
65
330
2
100
AcDbSymbolTableRecord
100
AcDbLayerTableRecord
  2
5
 70
     0
 62
     7
  6
Continuous
370
    -3
390
F
  0
LAYER
  5
66
330
2
100
AcDbSymbolTableRecord
100
AcDbLayerTableRecord
  2
9
 70
     0
 62
     7
  6
Continuous
370
    -3
390
F
  0
LAYER
  5
67
330
2
100
AcDbSymbolTableRecord
100
AcDbLayerTableRecord
  2
轮廓实线层
 70
     0
 62
     7
  6
Continuous
370
    50
390
F
  0
LAYER
  5
68
330
2
100
AcDbSymbolTableRecord
100
AcDbLayerTableRecord
  2
细线层
 70
     0
 62
     4
  6
Continuous
370
    25
390
F
  0
LAYER
  5
69
330
2
100
AcDbSymbolTableRecord
100
AcDbLayerTableRecord
  2
中心线层
 70
     0
 62
     1
  6
CENTERX2
370
    25
390
F
  0
LAYER
  5
6A
330
2
100
AcDbSymbolTableRecord
100
AcDbLayerTableRecord
  2
虚线层
 70
     0
 62
     6
  6
HIDDEN
370
    25
390
F
  0
LAYER
  5
6B
330
2
100
AcDbSymbolTableRecord
100
AcDbLayerTableRecord
  2
剖面线层
 70
     0
 62
     2
  6
Continuous
370
    25
390
F
  0
LAYER
  5
6C
330
2
100
AcDbSymbolTableRecord
100
AcDbLayerTableRecord
  2
文字层
 70
     0
 62
     3
  6
Continuous
370
    25
390
F
  0
LAYER
  5
6D
330
2
100
AcDbSymbolTableRecord
100
AcDbLayerTableRecord
  2
标注层
 70
     0
 62
     4
  6
Continuous
370
    25
390
F
  0
LAYER
  5
6E
330
2
100
AcDbSymbolTableRecord
100
AcDbLayerTableRecord
  2
符号标注层
 70
     0
 62
    31
  6
Continuous
370
    25
390
F
  0
LAYER
  5
6F
330
2
100
AcDbSymbolTableRecord
100
AcDbLayerTableRecord
  2
双点划线层
 70
     0
 62
     6
  6
PHANTOM
370
    25
390
F
  0
LAYER
  5
70
330
2
100
AcDbSymbolTableRecord
100
AcDbLayerTableRecord
  2
粗实线层
 70
     0
 62
     7
  6
Continuous
370
    25
390
F
  0
LAYER
  5
71
330
2
100
AcDbSymbolTableRecord
100
AcDbLayerTableRecord
  2
细实线层
 70
     0
 62
     7
  6
Continuous
370
    -3
390
F
  0
LAYER
  5
72
330
2
100
AcDbSymbolTableRecord
100
AcDbLayerTableRecord
  2
点划线层
 70
     0
 62
     7
  6
CENTER
370
    -3
390
F
  0
LAYER
  5
73
330
2
100
AcDbSymbolTableRecord
100
AcDbLayerTableRecord
  2
图框
 70
     0
 62
     7
  6
Continuous
370
    -3
390
F
  0
ENDTAB
  0
TABLE
  2
STYLE
  5
3
330
0
100
AcDbSymbolTable
 70
     7
  0
STYLE
  5
11
330
3
100
AcDbSymbolTableRecord
100
AcDbTextStyleTableRecord
  2
Standard
 70
     0
 40
0.0
 41
1.0
 50
0.0
 71
     0
 42
3.5
  3
txt
  4

  0
STYLE
  5
F6
330
3
100
AcDbSymbolTableRecord
100
AcDbTextStyleTableRecord
  2
SLDTEXTSTYLE0
 70
     0
 40
0.0
 41
0.7
 50
0.0
 71
     0
 42
3.5
  3
TXT
  4
bigfont
  0
STYLE
  5
FC
330
3
100
AcDbSymbolTableRecord
100
AcDbTextStyleTableRecord
  2
SLDTEXTSTYLE1
 70
     0
 40
0.0
 41
0.6
 50
0.0
 71
     0
 42
3.5
  3
TXT
  4
bigfont
  0
STYLE
  5
101
330
3
100
AcDbSymbolTableRecord
100
AcDbTextStyleTableRecord
  2
SLDTEXTSTYLE2
 70
     0
 40
0.0
 41
0.6142857143
 50
0.0
 71
     0
 42
3.5
  3
TXT
  4
bigfont
  0
STYLE
  5
103
330
3
100
AcDbSymbolTableRecord
100
AcDbTextStyleTableRecord
  2
SLDTEXTSTYLE3
 70
     0
 40
0.0
 41
0.62
 50
0.0
 71
     0
 42
3.5
  3
TXT
  4
bigfont
  0
STYLE
  5
10D
330
3
100
AcDbSymbolTableRecord
100
AcDbTextStyleTableRecord
  2
SLDTEXTSTYLE4
 70
     0
 40
0.0
 41
0.5666666667
 50
0.0
 71
     0
 42
3.5
  3
TXT
  4
bigfont
  0
STYLE
  5
115
330
3
100
AcDbSymbolTableRecord
100
AcDbTextStyleTableRecord
  2
SLDTEXTSTYLE5
 70
     0
 40
0.0
 41
0.7
 50
0.0
 71
     0
 42
3.5
  3
TXT
  4

  0
ENDTAB
  0
TABLE
  2
VIEW
  5
6
330
0
100
AcDbSymbolTable
 70
     0
  0
ENDTAB
  0
TABLE
  2
UCS
  5
7
330
0
100
AcDbSymbolTable
 70
     0
  0
ENDTAB
  0
TABLE
  2
APPID
  5
9
330
0
100
AcDbSymbolTable
 70
     1
  0
APPID
  5
12
330
9
100
AcDbSymbolTableRecord
100
AcDbRegAppTableRecord
  2
ACAD
 70
     0
  0
ENDTAB
  0
TABLE
  2
DIMSTYLE
  5
A
330
0
100
AcDbSymbolTable
 70
     1
100
AcDbDimStyleTable
  0
DIMSTYLE
105
27
330
A
100
AcDbSymbolTableRecord
100
AcDbDimStyleTableRecord
  2
ISO-25
 70
     0
 41
2.5
 42
0.625
 43
3.75
 44
1.25
 73
     0
 74
     0
 77
     1
 78
     8
140
2.5
141
2.5
143
0.0393700787
147
0.625
171
     3
172
     1
178
     0
271
     2
272
     2
274
     3
278
    44
283
     0
284
     8
340
11
  0
ENDTAB
  0
TABLE
  2
BLOCK_RECORD
  5
1
330
0
100
AcDbSymbolTable
 70
     1
  0
BLOCK_RECORD
  5
1F
330
1
100
AcDbSymbolTableRecord
100
AcDbBlockTableRecord
  2
*Model_Space
340
22
  0
BLOCK_RECORD
  5
1B
330
1
100
AcDbSymbolTableRecord
100
AcDbBlockTableRecord
  2
*Paper_Space
340
1E
  0
BLOCK_RECORD
  5
23
330
1
100
AcDbSymbolTableRecord
100
AcDbBlockTableRecord
  2
*Paper_Space0
340
26
  0
ENDTAB
  0
ENDSEC
  0
SECTION
  2
BLOCKS
  0
BLOCK
  5
20
330
1F
100
AcDbEntity
  8
0
100
AcDbBlockBegin
  2
*Model_Space
 70
     0
 10
0.0
 20
0.0
 30
0.0
  3
*Model_Space
  1

  0
ENDBLK
  5
21
330
1F
100
AcDbEntity
  8
0
100
AcDbBlockEnd
  0
BLOCK
  5
1C
330
1B
100
AcDbEntity
 67
     1
  8
0
100
AcDbBlockBegin
  2
*Paper_Space
 70
     0
 10
0.0
 20
0.0
 30
0.0
  3
*Paper_Space
  1

  0
ENDBLK
  5
1D
330
1B
100
AcDbEntity
 67
     1
  8
0
100
AcDbBlockEnd
  0
BLOCK
  5
24
330
23
100
AcDbEntity
  8
0
100
AcDbBlockBegin
  2
*Paper_Space0
 70
     0
 10
0.0
 20
0.0
 30
0.0
  3
*Paper_Space0
  1

  0
ENDBLK
  5
25
330
23
100
AcDbEntity
  8
0
100
AcDbBlockEnd
  0
ENDSEC
  0
SECTION
  2
ENTITIES
  0
LINE
  5
74
330
1F
100
AcDbEntity
  8
5
 62
     7
370
    25
100
AcDbLine
 10
0.0
 20
10.0
 30
0.0
 11
1179.0
 21
10.0
 31
0.0
  0
LINE
  5
75
330
1F
100
AcDbEntity
  8
5
 62
     7
370
    25
100
AcDbLine
 10
1179.0
 20
10.0
 30
0.0
 11
1179.0
 21
831.0500990257
 31
0.0
  0
LINE
  5
76
330
1F
100
AcDbEntity
  8
5
 62
     7
370
    25
100
AcDbLine
 10
1179.0
 20
831.0500990257
 30
0.0
 11
25.0
 21
831.0500990257
 31
0.0
  0
LINE
  5
77
330
1F
100
AcDbEntity
  8
5
 62
     7
370
    25
100
AcDbLine
 10
25.0
 20
831.0500990257
 30
0.0
 11
25.0
 21
10.0
 31
0.0
  0
LINE
  5
78
330
1F
100
AcDbEntity
  8
5
 62
     7
370
    25
100
AcDbLine
 10
25.0
 20
819.0
 30
0.0
 11
85.0
 21
819.0
 31
0.0
  0
LINE
  5
79
330
1F
100
AcDbEntity
  8
5
 62
     7
370
    25
100
AcDbLine
 10
85.0
 20
819.0
 30
0.0
 11
85.0
 21
831.0
 31
0.0
  0
LINE
  5
7A
330
1F
100
AcDbEntity
  8
5
 62
     7
100
AcDbLine
 10
0.0
 20
0.0
 30
0.0
 11
1189.0
 21
0.0
 31
0.0
  0
LINE
  5
7B
330
1F
100
AcDbEntity
  8
5
370
    25
100
AcDbLine
 10
602.0
 20
841.0
 30
0.0
 11
602.0
 21
826.0
 31
0.0
  0
LINE
  5
7C
330
1F
100
AcDbEntity
  8
5
370
    25
100
AcDbLine
 10
602.0
 20
0.0
 30
0.0
 11
602.0
 21
15.0
 31
0.0
  0
LINE
  5
7D
330
1F
100
AcDbEntity
  8
5
 62
     7
100
AcDbLine
 10
1189.0
 20
0.0
 30
0.0
 11
1189.0
 21
841.0
 31
0.0
  0
LINE
  5
7E
330
1F
100
AcDbEntity
  8
5
370
    25
100
AcDbLine
 10
0.0
 20
420.5
 30
0.0
 11
30.0
 21
420.5
 31
0.0
  0
LINE
  5
7F
330
1F
100
AcDbEntity
  8
5
370
    25
100
AcDbLine
 10
1189.0
 20
420.5
 30
0.0
 11
1174.0
 21
420.5
 31
0.0
  0
LINE
  5
80
330
1F
100
AcDbEntity
  8
5
 62
     7
100
AcDbLine
 10
1189.0
 20
841.0
 30
0.0
 11
0.0
 21
841.0
 31
0.0
  0
LINE
  5
81
330
1F
100
AcDbEntity
  8
5
100
AcDbLine
 10
52.0
 20
841.0
 30
0.0
 11
52.0
 21
831.0500990257
 31
0.0
  0
LINE
  5
82
330
1F
100
AcDbEntity
  8
5
100
AcDbLine
 10
102.0
 20
841.0
 30
0.0
 11
102.0
 21
831.0500990257
 31
0.0
  0
LINE
  5
83
330
1F
100
AcDbEntity
  8
5
 62
     7
100
AcDbLine
 10
0.0
 20
841.0
 30
0.0
 11
0.0
 21
0.0
 31
0.0
  0
LINE
  5
84
330
1F
100
AcDbEntity
  8
5
100
AcDbLine
 10
152.0
 20
841.0
 30
0.0
 11
152.0
 21
831.0500990257
 31
0.0
  0
LINE
  5
85
330
1F
100
AcDbEntity
  8
5
100
AcDbLine
 10
202.0
 20
841.0
 30
0.0
 11
202.0
 21
831.0500990257
 31
0.0
  0
LINE
  5
86
330
1F
100
AcDbEntity
  8
5
100
AcDbLine
 10
252.0
 20
841.0
 30
0.0
 11
252.0
 21
831.0500990257
 31
0.0
  0
LINE
  5
87
330
1F
100
AcDbEntity
  8
5
100
AcDbLine
 10
302.0
 20
841.0
 30
0.0
 11
302.0
 21
831.0500990257
 31
0.0
  0
LINE
  5
88
330
1F
100
AcDbEntity
  8
5
100
AcDbLine
 10
352.0
 20
841.0
 30
0.0
 11
352.0
 21
831.0500990257
 31
0.0
  0
LINE
  5
89
330
1F
100
AcDbEntity
  8
5
100
AcDbLine
 10
402.0
 20
841.0
 30
0.0
 11
402.0
 21
831.0500990257
 31
0.0
  0
LINE
  5
8A
330
1F
100
AcDbEntity
  8
5
 62
     7
370
    25
100
AcDbLine
 10
1129.0
 20
38.0
 30
0.0
 11
1129.0
 21
10.0
 31
0.0
  0
LINE
  5
8B
330
1F
100
AcDbEntity
  8
5
 62
     7
370
    25
100
AcDbLine
 10
1117.0
 20
48.0
 30
0.0
 11
1117.0
 21
28.0
 31
0.0
  0
LINE
  5
8C
330
1F
100
AcDbEntity
  8
5
 62
     7
370
    25
100
AcDbLine
 10
1105.0
 20
48.0
 30
0.0
 11
1105.0
 21
28.0
 31
0.0
  0
LINE
  5
8D
330
1F
100
AcDbEntity
  8
5
 62
     7
100
AcDbLine
 10
1098.5
 20
38.0
 30
0.0
 11
1098.5
 21
28.0
 31
0.0
  0
LINE
  5
8E
330
1F
100
AcDbEntity
  8
5
 62
     7
100
AcDbLine
 10
1092.0
 20
38.0
 30
0.0
 11
1092.0
 21
28.0
 31
0.0
  0
LINE
  5
8F
330
1F
100
AcDbEntity
  8
5
 62
     7
100
AcDbLine
 10
1085.5
 20
38.0
 30
0.0
 11
1085.5
 21
28.0
 31
0.0
  0
LINE
  5
90
330
1F
100
AcDbEntity
  8
5
 62
     7
370
    25
100
AcDbLine
 10
1079.0
 20
48.0
 30
0.0
 11
1179.0
 21
48.0
 31
0.0
  0
LINE
  5
91
330
1F
100
AcDbEntity
  8
5
 62
     7
370
    25
100
AcDbLine
 10
1079.0
 20
28.0
 30
0.0
 11
1179.0
 21
28.0
 31
0.0
  0
LINE
  5
92
330
1F
100
AcDbEntity
  8
5
 62
     7
370
    25
100
AcDbLine
 10
1079.0060750003
 20
18.9824004212
 30
0.0
 11
1179.0
 21
18.9824004212
 31
0.0
  0
LINE
  5
93
330
1F
100
AcDbEntity
  8
5
 62
     7
370
    25
100
AcDbLine
 10
1035.0
 20
66.0
 30
0.0
 11
1035.0
 21
38.0
 31
0.0
  0
LINE
  5
94
330
1F
100
AcDbEntity
  8
5
 62
     7
370
    25
100
AcDbLine
 10
1019.0
 20
66.0
 30
0.0
 11
1019.0
 21
38.0
 31
0.0
  0
LINE
  5
95
330
1F
100
AcDbEntity
  8
5
 62
     7
370
    25
100
AcDbLine
 10
1009.0
 20
66.0
 30
0.0
 11
1009.0
 21
38.0
 31
0.0
  0
LINE
  5
96
330
1F
100
AcDbEntity
  8
5
 62
     7
370
    25
100
AcDbLine
 10
1129.0
 20
66.0
 30
0.0
 11
1129.0
 21
38.0
 31
0.0
  0
LINE
  5
97
330
1F
100
AcDbEntity
  8
5
 62
     7
370
    25
100
AcDbLine
 10
1079.0
 20
66.0
 30
0.0
 11
1079.0
 21
10.0
 31
0.0
  0
LINE
  5
98
330
1F
100
AcDbEntity
  8
5
 62
     7
370
    25
100
AcDbLine
 10
1063.0
 20
66.0
 30
0.0
 11
1063.0
 21
10.0
 31
0.0
  0
LINE
  5
99
330
1F
100
AcDbEntity
  8
5
 62
     7
370
    25
100
AcDbLine
 10
1051.0
 20
66.0
 30
0.0
 11
1051.0
 21
10.0
 31
0.0
  0
LINE
  5
9A
330
1F
100
AcDbEntity
  8
5
 62
     7
370
    25
100
AcDbLine
 10
1039.0
 20
38.0
 30
0.0
 11
1039.0
 21
10.0
 31
0.0
  0
LINE
  5
9B
330
1F
100
AcDbEntity
  8
5
 62
     7
370
    25
100
AcDbLine
 10
1023.0
 20
38.0
 30
0.0
 11
1023.0
 21
10.0
 31
0.0
  0
LINE
  5
9C
330
1F
100
AcDbEntity
  8
5
 62
     7
370
    25
100
AcDbLine
 10
1011.0
 20
38.0
 30
0.0
 11
1011.0
 21
10.0
 31
0.0
  0
LINE
  5
9D
330
1F
100
AcDbEntity
  8
5
 62
     7
100
AcDbLine
 10
999.0
 20
59.0
 30
0.0
 11
1079.0
 21
59.0
 31
0.0
  0
LINE
  5
9E
330
1F
100
AcDbEntity
  8
5
 62
     7
100
AcDbLine
 10
999.0
 20
52.0
 30
0.0
 11
1079.0
 21
52.0
 31
0.0
  0
LINE
  5
9F
330
1F
100
AcDbEntity
  8
5
 62
     7
370
    25
100
AcDbLine
 10
999.0
 20
45.0
 30
0.0
 11
1079.0
 21
45.0
 31
0.0
  0
LINE
  5
A0
330
1F
100
AcDbEntity
  8
5
 62
     7
370
    25
100
AcDbLine
 10
999.0
 20
38.0
 30
0.0
 11
1129.0
 21
38.0
 31
0.0
  0
LINE
  5
A1
330
1F
100
AcDbEntity
  8
5
 62
     7
370
    25
100
AcDbLine
 10
999.0
 20
31.0
 30
0.0
 11
1079.0
 21
31.0
 31
0.0
  0
LINE
  5
A2
330
1F
100
AcDbEntity
  8
5
 62
     7
370
    25
100
AcDbLine
 10
999.0
 20
24.0
 30
0.0
 11
1079.0
 21
24.0
 31
0.0
  0
LINE
  5
A3
330
1F
100
AcDbEntity
  8
5
 62
     7
370
    25
100
AcDbLine
 10
999.0
 20
17.0
 30
0.0
 11
1079.0
 21
17.0
 31
0.0
  0
LINE
  5
A4
330
1F
100
AcDbEntity
  8
5
 62
     7
370
    25
100
AcDbLine
 10
999.0
 20
66.0
 30
0.0
 11
1179.0
 21
66.0
 31
0.0
  0
LINE
  5
A5
330
1F
100
AcDbEntity
  8
5
 62
     7
370
    25
100
AcDbLine
 10
999.0
 20
66.0
 30
0.0
 11
999.0
 21
10.0
 31
0.0
  0
LINE
  5
A6
330
1F
100
AcDbEntity
  8
5
 62
     7
100
AcDbLine
 10
0.0
 20
96.0
 30
0.0
 11
25.0
 21
96.0
 31
0.0
  0
LINE
  5
A7
330
1F
100
AcDbEntity
  8
5
 62
     7
100
AcDbLine
 10
0.0
 20
101.0
 30
0.0
 11
25.0
 21
101.0
 31
0.0
  0
LINE
  5
A8
330
1F
100
AcDbEntity
  8
5
 62
     7
100
AcDbLine
 10
0.0
 20
83.0
 30
0.0
 11
25.0
 21
83.0
 31
0.0
  0
LINE
  5
A9
330
1F
100
AcDbEntity
  8
5
 62
     7
100
AcDbLine
 10
0.0
 20
88.0
 30
0.0
 11
25.0
 21
88.0
 31
0.0
  0
LINE
  5
AA
330
1F
100
AcDbEntity
  8
5
 62
     7
100
AcDbLine
 10
0.0
 20
70.0
 30
0.0
 11
25.0
 21
70.0
 31
0.0
  0
LINE
  5
AB
330
1F
100
AcDbEntity
  8
5
 62
     7
100
AcDbLine
 10
0.0
 20
75.0
 30
0.0
 11
25.0
 21
75.0
 31
0.0
  0
LINE
  5
AC
330
1F
100
AcDbEntity
  8
5
 62
     7
100
AcDbLine
 10
0.0
 20
57.0
 30
0.0
 11
25.0
 21
57.0
 31
0.0
  0
LINE
  5
AD
330
1F
100
AcDbEntity
  8
5
 62
     7
100
AcDbLine
 10
0.0
 20
62.0
 30
0.0
 11
25.0
 21
62.0
 31
0.0
  0
LINE
  5
AE
330
1F
100
AcDbEntity
  8
5
 62
     7
100
AcDbLine
 10
0.0
 20
44.0
 30
0.0
 11
25.0
 21
44.0
 31
0.0
  0
LINE
  5
AF
330
1F
100
AcDbEntity
  8
5
 62
     7
100
AcDbLine
 10
0.0
 20
49.0
 30
0.0
 11
25.0
 21
49.0
 31
0.0
  0
LINE
  5
B0
330
1F
100
AcDbEntity
  8
5
 62
     7
100
AcDbLine
 10
0.0
 20
31.0
 30
0.0
 11
25.0
 21
31.0
 31
0.0
  0
LINE
  5
B1
330
1F
100
AcDbEntity
  8
5
 62
     7
100
AcDbLine
 10
0.0
 20
36.0
 30
0.0
 11
25.0
 21
36.0
 31
0.0
  0
LINE
  5
B2
330
1F
100
AcDbEntity
  8
5
 62
     7
100
AcDbLine
 10
0.0
 20
23.0
 30
0.0
 11
25.0
 21
23.0
 31
0.0
  0
LINE
  5
B3
330
1F
100
AcDbEntity
  8
5
 62
     7
100
AcDbLine
 10
0.0
 20
18.0
 30
0.0
 11
25.0
 21
18.0
 31
0.0
  0
LINE
  5
B4
330
1F
100
AcDbEntity
  8
5
 62
     7
100
AcDbLine
 10
0.0
 20
109.0
 30
0.0
 11
25.0
 21
109.0
 31
0.0
  0
LINE
  5
B5
330
1F
100
AcDbEntity
  8
5
 62
     7
100
AcDbLine
 10
0.0
 20
114.0
 30
0.0
 11
25.0
 21
114.0
 31
0.0
  0
LINE
  5
B6
330
1F
100
AcDbEntity
  8
5
100
AcDbLine
 10
452.0
 20
841.0
 30
0.0
 11
452.0
 21
831.0500990257
 31
0.0
  0
LINE
  5
B7
330
1F
100
AcDbEntity
  8
5
100
AcDbLine
 10
502.0
 20
841.0
 30
0.0
 11
502.0
 21
831.0500990257
 31
0.0
  0
LINE
  5
B8
330
1F
100
AcDbEntity
  8
5
100
AcDbLine
 10
552.0
 20
841.0
 30
0.0
 11
552.0
 21
831.0500990257
 31
0.0
  0
LINE
  5
B9
330
1F
100
AcDbEntity
  8
5
100
AcDbLine
 10
652.0
 20
841.0
 30
0.0
 11
652.0
 21
831.0500990257
 31
0.0
  0
LINE
  5
BA
330
1F
100
AcDbEntity
  8
5
100
AcDbLine
 10
702.0
 20
841.0
 30
0.0
 11
702.0
 21
831.0500990257
 31
0.0
  0
LINE
  5
BB
330
1F
100
AcDbEntity
  8
5
100
AcDbLine
 10
752.0
 20
841.0
 30
0.0
 11
752.0
 21
831.0500990257
 31
0.0
  0
LINE
  5
BC
330
1F
100
AcDbEntity
  8
5
100
AcDbLine
 10
802.0
 20
841.0
 30
0.0
 11
802.0
 21
831.0500990257
 31
0.0
  0
LINE
  5
BD
330
1F
100
AcDbEntity
  8
5
100
AcDbLine
 10
852.0
 20
841.0
 30
0.0
 11
852.0
 21
831.0500990257
 31
0.0
  0
LINE
  5
BE
330
1F
100
AcDbEntity
  8
5
100
AcDbLine
 10
902.0
 20
841.0
 30
0.0
 11
902.0
 21
831.0500990257
 31
0.0
  0
LINE
  5
BF
330
1F
100
AcDbEntity
  8
5
100
AcDbLine
 10
952.0
 20
841.0
 30
0.0
 11
952.0
 21
831.0500990257
 31
0.0
  0
LINE
  5
C0
330
1F
100
AcDbEntity
  8
5
100
AcDbLine
 10
1002.0
 20
841.0
 30
0.0
 11
1002.0
 21
831.0500990257
 31
0.0
  0
LINE
  5
C1
330
1F
100
AcDbEntity
  8
5
100
AcDbLine
 10
1052.0
 20
841.0
 30
0.0
 11
1052.0
 21
831.0500990257
 31
0.0
  0
LINE
  5
C2
330
1F
100
AcDbEntity
  8
5
100
AcDbLine
 10
1102.0
 20
841.0
 30
0.0
 11
1102.0
 21
831.0500990257
 31
0.0
  0
LINE
  5
C3
330
1F
100
AcDbEntity
  8
5
100
AcDbLine
 10
1152.0
 20
841.0
 30
0.0
 11
1152.0
 21
831.0500990257
 31
0.0
  0
LINE
  5
C4
330
1F
100
AcDbEntity
  8
5
100
AcDbLine
 10
1189.0
 20
770.5
 30
0.0
 11
1179.0
 21
770.5
 31
0.0
  0
LINE
  5
C5
330
1F
100
AcDbEntity
  8
5
100
AcDbLine
 10
1189.0
 20
720.5
 30
0.0
 11
1179.0
 21
720.5
 31
0.0
  0
LINE
  5
C6
330
1F
100
AcDbEntity
  8
5
370
    25
100
AcDbLine
 10
1105.0
 20
18.9824004212
 30
0.0
 11
1105.0
 21
10.0
 31
0.0
  0
LINE
  5
C7
330
1F
100
AcDbEntity
  8
5
100
AcDbLine
 10
1189.0
 20
670.5
 30
0.0
 11
1179.0
 21
670.5
 31
0.0
  0
LINE
  5
C8
330
1F
100
AcDbEntity
  8
5
100
AcDbLine
 10
1189.0
 20
620.5
 30
0.0
 11
1179.0
 21
620.5
 31
0.0
  0
LINE
  5
C9
330
1F
100
AcDbEntity
  8
5
100
AcDbLine
 10
1189.0
 20
570.5
 30
0.0
 11
1179.0
 21
570.5
 31
0.0
  0
LINE
  5
CA
330
1F
100
AcDbEntity
  8
5
100
AcDbLine
 10
1189.0
 20
520.5
 30
0.0
 11
1179.0
 21
520.5
 31
0.0
  0
LINE
  5
CB
330
1F
100
AcDbEntity
  8
5
100
AcDbLine
 10
1189.0
 20
470.5
 30
0.0
 11
1179.0
 21
470.5
 31
0.0
  0
LINE
  5
CC
330
1F
100
AcDbEntity
  8
5
100
AcDbLine
 10
1189.0
 20
370.5
 30
0.0
 11
1179.0
 21
370.5
 31
0.0
  0
LINE
  5
CD
330
1F
100
AcDbEntity
  8
5
100
AcDbLine
 10
1189.0
 20
320.5
 30
0.0
 11
1179.0
 21
320.5
 31
0.0
  0
LINE
  5
CE
330
1F
100
AcDbEntity
  8
5
100
AcDbLine
 10
1189.0
 20
270.5
 30
0.0
 11
1179.0
 21
270.5
 31
0.0
  0
LINE
  5
CF
330
1F
100
AcDbEntity
  8
5
100
AcDbLine
 10
1189.0
 20
220.5
 30
0.0
 11
1179.0
 21
220.5
 31
0.0
  0
LINE
  5
D0
330
1F
100
AcDbEntity
  8
5
100
AcDbLine
 10
1189.0
 20
170.5
 30
0.0
 11
1179.0
 21
170.5
 31
0.0
  0
LINE
  5
D1
330
1F
100
AcDbEntity
  8
5
100
AcDbLine
 10
1189.0
 20
120.5
 30
0.0
 11
1179.0
 21
120.5
 31
0.0
  0
LINE
  5
D2
330
1F
100
AcDbEntity
  8
5
100
AcDbLine
 10
1189.0
 20
70.5
 30
0.0
 11
1179.0
 21
70.5
 31
0.0
  0
LINE
  5
D3
330
1F
100
AcDbEntity
  8
5
100
AcDbLine
 10
1152.0
 20
0.0
 30
0.0
 11
1152.0
 21
10.0
 31
0.0
  0
LINE
  5
D4
330
1F
100
AcDbEntity
  8
5
100
AcDbLine
 10
1102.0
 20
0.0
 30
0.0
 11
1102.0
 21
10.0
 31
0.0
  0
LINE
  5
D5
330
1F
100
AcDbEntity
  8
5
100
AcDbLine
 10
1052.0
 20
0.0
 30
0.0
 11
1052.0
 21
10.0
 31
0.0
  0
LINE
  5
D6
330
1F
100
AcDbEntity
  8
5
100
AcDbLine
 10
1002.0
 20
0.0
 30
0.0
 11
1002.0
 21
10.0
 31
0.0
  0
LINE
  5
D7
330
1F
100
AcDbEntity
  8
5
100
AcDbLine
 10
952.0
 20
0.0
 30
0.0
 11
952.0
 21
10.0
 31
0.0
  0
LINE
  5
D8
330
1F
100
AcDbEntity
  8
5
100
AcDbLine
 10
902.0
 20
0.0
 30
0.0
 11
902.0
 21
10.0
 31
0.0
  0
LINE
  5
D9
330
1F
100
AcDbEntity
  8
5
100
AcDbLine
 10
852.0
 20
0.0
 30
0.0
 11
852.0
 21
10.0
 31
0.0
  0
LINE
  5
DA
330
1F
100
AcDbEntity
  8
5
100
AcDbLine
 10
802.0
 20
0.0
 30
0.0
 11
802.0
 21
10.0
 31
0.0
  0
LINE
  5
DB
330
1F
100
AcDbEntity
  8
5
100
AcDbLine
 10
752.0
 20
0.0
 30
0.0
 11
752.0
 21
10.0
 31
0.0
  0
LINE
  5
DC
330
1F
100
AcDbEntity
  8
5
100
AcDbLine
 10
702.0
 20
0.0
 30
0.0
 11
702.0
 21
10.0
 31
0.0
  0
LINE
  5
DD
330
1F
100
AcDbEntity
  8
5
100
AcDbLine
 10
652.0
 20
0.0
 30
0.0
 11
652.0
 21
10.0
 31
0.0
  0
LINE
  5
DE
330
1F
100
AcDbEntity
  8
5
100
AcDbLine
 10
552.0
 20
0.0
 30
0.0
 11
552.0
 21
10.0
 31
0.0
  0
LINE
  5
DF
330
1F
100
AcDbEntity
  8
5
100
AcDbLine
 10
502.0
 20
0.0
 30
0.0
 11
502.0
 21
10.0
 31
0.0
  0
LINE
  5
E0
330
1F
100
AcDbEntity
  8
5
100
AcDbLine
 10
452.0
 20
0.0
 30
0.0
 11
452.0
 21
10.0
 31
0.0
  0
LINE
  5
E1
330
1F
100
AcDbEntity
  8
5
100
AcDbLine
 10
402.0
 20
0.0
 30
0.0
 11
402.0
 21
10.0
 31
0.0
  0
LINE
  5
E2
330
1F
100
AcDbEntity
  8
5
100
AcDbLine
 10
352.0
 20
0.0
 30
0.0
 11
352.0
 21
10.0
 31
0.0
  0
LINE
  5
E3
330
1F
100
AcDbEntity
  8
5
100
AcDbLine
 10
302.0
 20
0.0
 30
0.0
 11
302.0
 21
10.0
 31
0.0
  0
LINE
  5
E4
330
1F
100
AcDbEntity
  8
5
100
AcDbLine
 10
252.0
 20
0.0
 30
0.0
 11
252.0
 21
10.0
 31
0.0
  0
LINE
  5
E5
330
1F
100
AcDbEntity
  8
5
100
AcDbLine
 10
202.0
 20
0.0
 30
0.0
 11
202.0
 21
10.0
 31
0.0
  0
LINE
  5
E6
330
1F
100
AcDbEntity
  8
5
100
AcDbLine
 10
152.0
 20
0.0
 30
0.0
 11
152.0
 21
10.0
 31
0.0
  0
LINE
  5
E7
330
1F
100
AcDbEntity
  8
5
100
AcDbLine
 10
102.0
 20
0.0
 30
0.0
 11
102.0
 21
10.0
 31
0.0
  0
LINE
  5
E8
330
1F
100
AcDbEntity
  8
5
100
AcDbLine
 10
52.0
 20
0.0
 30
0.0
 11
52.0
 21
10.0
 31
0.0
  0
LINE
  5
E9
330
1F
100
AcDbEntity
  8
5
100
AcDbLine
 10
0.0
 20
120.5
 30
0.0
 11
25.0
 21
120.5
 31
0.0
  0
LINE
  5
EA
330
1F
100
AcDbEntity
  8
5
100
AcDbLine
 10
0.0
 20
170.5
 30
0.0
 11
25.0
 21
170.5
 31
0.0
  0
LINE
  5
EB
330
1F
100
AcDbEntity
  8
5
100
AcDbLine
 10
0.0
 20
220.5
 30
0.0
 11
25.0
 21
220.5
 31
0.0
  0
LINE
  5
EC
330
1F
100
AcDbEntity
  8
5
100
AcDbLine
 10
0.0
 20
270.5
 30
0.0
 11
25.0
 21
270.5
 31
0.0
  0
LINE
  5
ED
330
1F
100
AcDbEntity
  8
5
100
AcDbLine
 10
0.0
 20
320.5
 30
0.0
 11
25.0
 21
320.5
 31
0.0
  0
LINE
  5
EE
330
1F
100
AcDbEntity
  8
5
100
AcDbLine
 10
0.0
 20
370.5
 30
0.0
 11
25.0
 21
370.5
 31
0.0
  0
LINE
  5
EF
330
1F
100
AcDbEntity
  8
5
100
AcDbLine
 10
0.0
 20
470.5
 30
0.0
 11
25.0
 21
470.5
 31
0.0
  0
LINE
  5
F0
330
1F
100
AcDbEntity
  8
5
100
AcDbLine
 10
0.0
 20
520.5
 30
0.0
 11
25.0
 21
520.5
 31
0.0
  0
LINE
  5
F1
330
1F
100
AcDbEntity
  8
5
100
AcDbLine
 10
0.0
 20
570.5
 30
0.0
 11
25.0
 21
570.5
 31
0.0
  0
LINE
  5
F2
330
1F
100
AcDbEntity
  8
5
100
AcDbLine
 10
0.0
 20
620.5
 30
0.0
 11
25.0
 21
620.5
 31
0.0
  0
LINE
  5
F3
330
1F
100
AcDbEntity
  8
5
100
AcDbLine
 10
0.0
 20
670.5
 30
0.0
 11
25.0
 21
670.5
 31
0.0
  0
LINE
  5
F4
330
1F
100
AcDbEntity
  8
5
100
AcDbLine
 10
0.0
 20
720.5
 30
0.0
 11
25.0
 21
720.5
 31
0.0
  0
LINE
  5
F5
330
1F
100
AcDbEntity
  8
5
100
AcDbLine
 10
0.0
 20
770.5
 30
0.0
 11
25.0
 21
770.5
 31
0.0
  0
MTEXT
  5
F7
330
1F
100
AcDbEntity
  8
9
 62
     7
100
AcDbMText
 10
1044.8565332691
 20
15.2155134827
 30
0.0
 40
3.5
 41
0.0
 71
     2
 72
     1
  1
\U+6279\U+51C6
  7
SLDTEXTSTYLE0
 73
     1
 44
1.0
  0
MTEXT
  5
F8
330
1F
100
AcDbEntity
  8
9
 62
     7
100
AcDbMText
 10
1044.8565335038
 20
36.3583587194
 30
0.0
 40
3.5
 41
0.0
 71
     2
 72
     1
  1
标\U+51C6\U+5316
  7
SLDTEXTSTYLE0
 73
     1
 44
1.0
  0
MTEXT
  5
F9
330
1F
100
AcDbEntity
  8
9
 62
     7
100
AcDbMText
 10
1044.8565332691
 20
29.2301241977
 30
0.0
 40
3.5
 41
0.0
 71
     2
 72
     1
  1
\U+5DE5艺
  7
SLDTEXTSTYLE0
 73
     1
 44
1.0
  0
MTEXT
  5
FA
330
1F
100
AcDbEntity
  8
9
 62
     7
100
AcDbMText
 10
1044.8565332691
 20
22.2492695624
 30
0.0
 40
3.5
 41
0.0
 71
     2
 72
     1
  1
审\U+6838
  7
SLDTEXTSTYLE0
 73
     1
 44
1.0
  0
MTEXT
  5
FB
330
1F
100
AcDbEntity
  8
9
 62
     7
100
AcDbMText
 10
1005.4260085121
 20
36.7666978954
 30
0.0
 40
3.5
 41
0.0
 71
     2
 72
     1
  1
设计
  7
SLDTEXTSTYLE0
 73
     1
 44
1.0
  0
MTEXT
  5
FD
330
1F
100
AcDbEntity
  8
9
 62
     7
100
AcDbMText
 10
1098.0551605271
 20
16.1881257794
 30
0.0
 40
3.5
 41
0.0
 71
     2
 72
     1
  1
\U+7B2C  张
  7
SLDTEXTSTYLE1
 73
     1
 44
1.0
  0
MTEXT
  5
FE
330
1F
100
AcDbEntity
  8
9
 62
     7
100
AcDbMText
 10
1086.1638882728
 20
16.1881257794
 30
0.0
 40
3.5
 41
0.0
 71
     2
 72
     1
  1
\U+5171  张
  7
SLDTEXTSTYLE1
 73
     1
 44
1.0
  0
MTEXT
  5
FF
330
1F
100
AcDbEntity
  8
9
 62
     7
100
AcDbMText
 10
1123.46023119
 20
44.81026916
 30
0.0
 40
3.5
 41
0.0
 71
     2
 72
     1
  1
\U+6BD4\U+4F8B
  7
SLDTEXTSTYLE0
 73
     1
 44
1.0
  0
MTEXT
  5
100
330
1F
100
AcDbEntity
  8
9
 62
     7
100
AcDbMText
 10
1111.5752889866
 20
44.81026916
 30
0.0
 40
3.5
 41
0.0
 71
     2
 72
     1
  1
\U+91CD\U+91CF
  7
SLDTEXTSTYLE0
 73
     1
 44
1.0
  0
MTEXT
  5
102
330
1F
100
AcDbEntity
  8
9
 62
     7
100
AcDbMText
 10
1092.2133236833
 20
44.81026916
 30
0.0
 40
3.5
 41
0.0
 71
     2
 72
     1
  1
阶 \U+6BB5 标 记
  7
SLDTEXTSTYLE2
 73
     1
 44
1.0
  0
MTEXT
  5
104
330
1F
100
AcDbEntity
  8
9
 62
     7
100
AcDbMText
 10
1071.2820966837
 20
43.3061811603
 30
0.0
 40
3.5
 41
0.0
 71
     2
 72
     1
  1
\U+5E74 \U+6708 \U+65E5
  7
SLDTEXTSTYLE3
 73
     1
 44
1.0
  0
MTEXT
  5
105
330
1F
100
AcDbEntity
  8
9
 62
     7
100
AcDbMText
 10
1057.3181136346
 20
43.3061811603
 30
0.0
 40
3.5
 41
0.0
 71
     2
 72
     1
  1
签\U+540D
  7
SLDTEXTSTYLE0
 73
     1
 44
1.0
  0
MTEXT
  5
106
330
1F
100
AcDbEntity
  8
9
 62
     7
100
AcDbMText
 10
1042.9355235194
 20
43.3061811603
 30
0.0
 40
3.5
 41
0.0
 71
     2
 72
     1
  1
\U+66F4\U+6539\U+6587\U+4EF6\U+53F7
  7
SLDTEXTSTYLE0
 73
     1
 44
1.0
  0
MTEXT
  5
107
330
1F
100
AcDbEntity
  8
9
 62
     7
100
AcDbMText
 10
1027.0892678052
 20
43.3061811603
 30
0.0
 40
3.5
 41
0.0
 71
     2
 72
     1
  1
\U+5206\U+533A
  7
SLDTEXTSTYLE0
 73
     1
 44
1.0
  0
MTEXT
  5
108
330
1F
100
AcDbEntity
  8
9
 62
     7
100
AcDbMText
 10
1013.9523696141
 20
43.3061811603
 30
0.0
 40
3.5
 41
0.0
 71
     2
 72
     1
  1
处\U+6570
  7
SLDTEXTSTYLE0
 73
     1
 44
1.0
  0
MTEXT
  5
109
330
1F
100
AcDbEntity
  8
9
 62
     7
100
AcDbMText
 10
1004.0263926523
 20
43.3061811603
 30
0.0
 40
3.5
 41
0.0
 71
     2
 72
     1
  1
标记
  7
SLDTEXTSTYLE0
 73
     1
 44
1.0
  0
MTEXT
  5
10A
330
1F
100
AcDbEntity
  8
9
 62
     7
100
AcDbMText
 10
4.2121999812
 20
48.4330613846
 30
0.0
 40
3.5
 41
0.0
 71
     1
 72
     1
  1
\U+5E95 图 总 \U+53F7
  7
SLDTEXTSTYLE2
 73
     1
 44
1.0
  0
MTEXT
  5
10B
330
1F
100
AcDbEntity
  8
9
 62
     7
100
AcDbMText
 10
5.4590751331
 20
61.2005832455
 30
0.0
 40
3.5
 41
0.0
 71
     1
 72
     1
  1
\U+65E7\U+5E95图总\U+53F7
  7
SLDTEXTSTYLE0
 73
     1
 44
1.0
  0
MTEXT
  5
10C
330
1F
100
AcDbEntity
  8
9
 62
     7
100
AcDbMText
 10
2.9328244653
 20
100.2755979073
 30
0.0
 40
3.5
 41
0.0
 71
     1
 72
     1
  1
\U+501F(\U+901A)\U+7528\U+4EF6\U+767B记
  7
SLDTEXTSTYLE0
 73
     1
 44
1.0
  0
MTEXT
  5
10E
330
1F
100
AcDbEntity
  8
9
 62
     7
100
AcDbMText
 10
12.9104639244
 20
87.1759996026
 30
0.0
 40
3.5
 41
0.0
 71
     2
 72
     1
  1
\U+63CF    图
  7
SLDTEXTSTYLE4
 73
     1
 44
1.0
  0
MTEXT
  5
10F
330
1F
100
AcDbEntity
  8
9
 62
     7
100
AcDbMText
 10
12.9104639244
 20
74.1365133241
 30
0.0
 40
3.5
 41
0.0
 71
     2
 72
     1
  1
\U+63CF    \U+6821
  7
SLDTEXTSTYLE4
 73
     1
 44
1.0
  0
MTEXT
  5
110
330
1F
100
AcDbEntity
  8
9
 62
     7
100
AcDbMText
 10
12.4724597662
 20
35.1925535267
 30
0.0
 40
3.5
 41
0.0
 71
     2
 72
     1
  1
签    \U+5B57
  7
SLDTEXTSTYLE4
 73
     1
 44
1.0
  0
MTEXT
  5
111
330
1F
100
AcDbEntity
  8
9
 62
     7
100
AcDbMText
 10
12.4724597662
 20
22.2333023039
 30
0.0
 40
3.5
 41
0.0
 71
     2
 72
     1
  1
\U+65E5    \U+671F
  7
SLDTEXTSTYLE4
 73
     1
 44
1.0
  0
MTEXT
  5
112
330
1F
100
AcDbEntity
  8
9
 62
     7
100
AcDbMText
 10
4.4821997088
 20
113.3598941288
 30
0.0
 40
3.5
 41
0.0
 71
     1
 72
     1
  1
\U+96F6 \U+4EF6 \U+4EE3 \U+53F7
  7
SLDTEXTSTYLE2
 73
     1
 44
1.0
  0
MTEXT
  5
113
330
1F
100
AcDbEntity
  8
SLD-0
100
AcDbMText
 10
1130.8513100353
 20
16.1881260123
 30
0.0
 40
3.5
 41
0.0
 71
     1
 72
     1
  1
\U+66FF\U+4EE3
  7
SLDTEXTSTYLE0
 73
     1
 44
1.0
  0
MTEXT
  5
114
330
1F
100
AcDbEntity
  8
10
 62
     7
100
AcDbMText
 10
1110.6256992481
 20
16.1881260123
 30
0.0
 40
3.5
 41
0.0
 71
     2
 72
     1
  1
\U+7248\U+672C
  7
SLDTEXTSTYLE0
 73
     1
 44
1.0
  0
MTEXT
  5
116
330
1F
100
AcDbEntity
  8
SLD-0
100
AcDbMText
 10
1124.9817589572
 20
35.1578012796
 30
0.0
 40
3.5
 41
0.0
 71
     2
 72
     1
  1
10:1
  7
SLDTEXTSTYLE5
 73
     1
 44
1.0
  0
MTEXT
  5
117
330
1F
100
AcDbEntity
  8
SLD-0
100
AcDbMText
 10
55.7573779845
 20
821.7376401445
 30
0.0
 40
3.5
 41
0.0
 71
     2
 72
     1
  1
\U+201C图样\U+4EE3\U+53F7\U+201D
  7
SLDTEXTSTYLE0
 11
-1.0
 21
-6.982962677686267E-15
 31
0.0
 73
     1
 44
1.0
  0
MTEXT
  5
118
330
1F
100
AcDbEntity
  8
10
100
AcDbMText
 10
1005.2753140002
 20
29.8567957274
 30
0.0
 40
3.5
 41
0.0
 71
     2
 72
     1
  1
\U+6821\U+6838
  7
SLDTEXTSTYLE0
 73
     1
 44
1.0
  0
MTEXT
  5
119
330
1F
100
AcDbEntity
  8
10
100
AcDbMText
 10
1005.1246194921
 20
22.8296680967
 30
0.0
 40
3.5
 41
0.0
 71
     2
 72
     1
  1
\U+4E3B\U+7BA1设计
  7
SLDTEXTSTYLE0
 73
     1
 44
1.0
  0
MTEXT
  5
11A
330
1F
100
AcDbEntity
  8
10
100
AcDbMText
 10
1156.7342832568
 20
26.3656999509
 30
0.0
 40
3.5
 41
0.0
 71
     2
 72
     1
  1
\U+201C图样\U+4EE3\U+53F7\U+201D
  7
SLDTEXTSTYLE0
 73
     1
 44
1.0
  0
MTEXT
  5
11B
330
1F
100
AcDbEntity
  8
10
100
AcDbMText
 10
1156.7318534362
 20
40.5105807917
 30
0.0
 40
3.5
 41
0.0
 71
     2
 72
     1
  1
\U+201C图样\U+540D\U+79F0\U+201D
  7
SLDTEXTSTYLE0
 73
     1
 44
1.0
  0
MTEXT
  5
11C
330
1F
100
AcDbEntity
  8
10
100
AcDbMText
 10
1112.1197334256
 20
35.1578012796
 30
0.0
 40
3.5
 41
0.0
 71
     2
 72
     1
  1
2
  7
SLDTEXTSTYLE5
 73
     1
 44
1.0
  0
MTEXT
  5
11D
330
1F
100
AcDbEntity
  8
10
100
AcDbMText
 10
1097.1353587749
 20
16.1881260123
 30
0.0
 40
3.5
 41
0.0
 71
     1
 72
     1
  1
1
  7
SLDTEXTSTYLE5
 73
     1
 44
1.0
  0
MTEXT
  5
11E
330
1F
100
AcDbEntity
  8
10
100
AcDbMText
 10
1085.1098855459
 20
16.1881260123
 30
0.0
 40
3.5
 41
0.0
 71
     1
 72
     1
  1
1
  7
SLDTEXTSTYLE5
 73
     1
 44
1.0
  0
MTEXT
  5
11F
330
1F
100
AcDbEntity
  8
10
100
AcDbMText
 10
26.5444444427
 20
6.9820025258
 30
0.0
 40
3.5
 41
0.0
 71
     2
 72
     1
  1
1
  7
SLDTEXTSTYLE5
 73
     1
 44
1.0
  0
MTEXT
  5
120
330
1F
100
AcDbEntity
  8
10
100
AcDbMText
 10
77.5444444427
 20
6.9820025258
 30
0.0
 40
3.5
 41
0.0
 71
     2
 72
     1
  1
2
  7
SLDTEXTSTYLE5
 73
     1
 44
1.0
  0
MTEXT
  5
121
330
1F
100
AcDbEntity
  8
10
100
AcDbMText
 10
1128.0888888855
 20
6.9820025258
 30
0.0
 40
3.5
 41
0.0
 71
     2
 72
     1
  1
23
  7
SLDTEXTSTYLE5
 73
     1
 44
1.0
  0
MTEXT
  5
122
330
1F
100
AcDbEntity
  8
10
100
AcDbMText
 10
1078.0888888855
 20
6.9820025258
 30
0.0
 40
3.5
 41
0.0
 71
     2
 72
     1
  1
22
  7
SLDTEXTSTYLE5
 73
     1
 44
1.0
  0
MTEXT
  5
123
330
1F
100
AcDbEntity
  8
10
100
AcDbMText
 10
1028.0888888855
 20
6.9820025258
 30
0.0
 40
3.5
 41
0.0
 71
     2
 72
     1
  1
21
  7
SLDTEXTSTYLE5
 73
     1
 44
1.0
  0
MTEXT
  5
124
330
1F
100
AcDbEntity
  8
10
100
AcDbMText
 10
978.0888888855
 20
6.9820025258
 30
0.0
 40
3.5
 41
0.0
 71
     2
 72
     1
  1
20
  7
SLDTEXTSTYLE5
 73
     1
 44
1.0
  0
MTEXT
  5
125
330
1F
100
AcDbEntity
  8
10
100
AcDbMText
 10
928.0913194045
 20
6.9820025258
 30
0.0
 40
3.5
 41
0.0
 71
     2
 72
     1
  1
19
  7
SLDTEXTSTYLE5
 73
     1
 44
1.0
  0
MTEXT
  5
126
330
1F
100
AcDbEntity
  8
10
100
AcDbMText
 10
878.0913194045
 20
6.9820025258
 30
0.0
 40
3.5
 41
0.0
 71
     2
 72
     1
  1
18
  7
SLDTEXTSTYLE5
 73
     1
 44
1.0
  0
MTEXT
  5
127
330
1F
100
AcDbEntity
  8
10
100
AcDbMText
 10
828.0913194045
 20
6.9820025258
 30
0.0
 40
3.5
 41
0.0
 71
     2
 72
     1
  1
17
  7
SLDTEXTSTYLE5
 73
     1
 44
1.0
  0
MTEXT
  5
128
330
1F
100
AcDbEntity
  8
10
100
AcDbMText
 10
778.0913194045
 20
6.9820025258
 30
0.0
 40
3.5
 41
0.0
 71
     2
 72
     1
  1
16
  7
SLDTEXTSTYLE5
 73
     1
 44
1.0
  0
MTEXT
  5
129
330
1F
100
AcDbEntity
  8
10
100
AcDbMText
 10
728.0888888855
 20
6.9820025258
 30
0.0
 40
3.5
 41
0.0
 71
     2
 72
     1
  1
15
  7
SLDTEXTSTYLE5
 73
     1
 44
1.0
  0
MTEXT
  5
12A
330
1F
100
AcDbEntity
  8
10
100
AcDbMText
 10
678.0888888855
 20
6.9820025258
 30
0.0
 40
3.5
 41
0.0
 71
     2
 72
     1
  1
14
  7
SLDTEXTSTYLE5
 73
     1
 44
1.0
  0
MTEXT
  5
12B
330
1F
100
AcDbEntity
  8
10
100
AcDbMText
 10
628.0888888855
 20
6.9820025258
 30
0.0
 40
3.5
 41
0.0
 71
     2
 72
     1
  1
13
  7
SLDTEXTSTYLE5
 73
     1
 44
1.0
  0
MTEXT
  5
12C
330
1F
100
AcDbEntity
  8
10
100
AcDbMText
 10
578.0888888855
 20
6.9820025258
 30
0.0
 40
3.5
 41
0.0
 71
     2
 72
     1
  1
12
  7
SLDTEXTSTYLE5
 73
     1
 44
1.0
  0
MTEXT
  5
12D
330
1F
100
AcDbEntity
  8
10
100
AcDbMText
 10
528.0888888855
 20
6.9820025258
 30
0.0
 40
3.5
 41
0.0
 71
     2
 72
     1
  1
11
  7
SLDTEXTSTYLE5
 73
     1
 44
1.0
  0
MTEXT
  5
12E
330
1F
100
AcDbEntity
  8
10
100
AcDbMText
 10
478.0888888855
 20
6.9820025258
 30
0.0
 40
3.5
 41
0.0
 71
     2
 72
     1
  1
10
  7
SLDTEXTSTYLE5
 73
     1
 44
1.0
  0
MTEXT
  5
12F
330
1F
100
AcDbEntity
  8
10
100
AcDbMText
 10
427.54687502
 20
6.9820025258
 30
0.0
 40
3.5
 41
0.0
 71
     2
 72
     1
  1
9
  7
SLDTEXTSTYLE5
 73
     1
 44
1.0
  0
MTEXT
  5
130
330
1F
100
AcDbEntity
  8
10
100
AcDbMText
 10
377.54687502
 20
6.9820025258
 30
0.0
 40
3.5
 41
0.0
 71
     2
 72
     1
  1
8
  7
SLDTEXTSTYLE5
 73
     1
 44
1.0
  0
MTEXT
  5
131
330
1F
100
AcDbEntity
  8
10
100
AcDbMText
 10
327.54687502
 20
6.9820025258
 30
0.0
 40
3.5
 41
0.0
 71
     2
 72
     1
  1
7
  7
SLDTEXTSTYLE5
 73
     1
 44
1.0
  0
MTEXT
  5
132
330
1F
100
AcDbEntity
  8
10
100
AcDbMText
 10
277.54687502
 20
6.9820025258
 30
0.0
 40
3.5
 41
0.0
 71
     2
 72
     1
  1
6
  7
SLDTEXTSTYLE5
 73
     1
 44
1.0
  0
MTEXT
  5
133
330
1F
100
AcDbEntity
  8
10
100
AcDbMText
 10
227.5444444427
 20
6.9820025258
 30
0.0
 40
3.5
 41
0.0
 71
     2
 72
     1
  1
5
  7
SLDTEXTSTYLE5
 73
     1
 44
1.0
  0
MTEXT
  5
134
330
1F
100
AcDbEntity
  8
10
100
AcDbMText
 10
177.5444444427
 20
6.9820025258
 30
0.0
 40
3.5
 41
0.0
 71
     2
 72
     1
  1
4
  7
SLDTEXTSTYLE5
 73
     1
 44
1.0
  0
MTEXT
  5
135
330
1F
100
AcDbEntity
  8
10
100
AcDbMText
 10
127.5444444427
 20
6.9820025258
 30
0.0
 40
3.5
 41
0.0
 71
     2
 72
     1
  1
3
  7
SLDTEXTSTYLE5
 73
     1
 44
1.0
  0
MTEXT
  5
136
330
1F
100
AcDbEntity
  8
10
100
AcDbMText
 10
1171.5888888855
 20
6.9820025258
 30
0.0
 40
3.5
 41
0.0
 71
     2
 72
     1
  1
24
  7
SLDTEXTSTYLE5
 73
     1
 44
1.0
  0
MTEXT
  5
137
330
1F
100
AcDbEntity
  8
10
100
AcDbMText
 10
1128.0888888855
 20
837.9820025258
 30
0.0
 40
3.5
 41
0.0
 71
     2
 72
     1
  1
23
  7
SLDTEXTSTYLE5
 73
     1
 44
1.0
  0
MTEXT
  5
138
330
1F
100
AcDbEntity
  8
10
100
AcDbMText
 10
878.0913194045
 20
837.9820025258
 30
0.0
 40
3.5
 41
0.0
 71
     2
 72
     1
  1
18
  7
SLDTEXTSTYLE5
 73
     1
 44
1.0
  0
MTEXT
  5
139
330
1F
100
AcDbEntity
  8
10
100
AcDbMText
 10
478.0888888855
 20
837.9820025258
 30
0.0
 40
3.5
 41
0.0
 71
     2
 72
     1
  1
10
  7
SLDTEXTSTYLE5
 73
     1
 44
1.0
  0
MTEXT
  5
13A
330
1F
100
AcDbEntity
  8
10
100
AcDbMText
 10
828.0913194045
 20
837.9820025258
 30
0.0
 40
3.5
 41
0.0
 71
     2
 72
     1
  1
17
  7
SLDTEXTSTYLE5
 73
     1
 44
1.0
  0
MTEXT
  5
13B
330
1F
100
AcDbEntity
  8
10
100
AcDbMText
 10
377.54687502
 20
837.9820025258
 30
0.0
 40
3.5
 41
0.0
 71
     2
 72
     1
  1
8
  7
SLDTEXTSTYLE5
 73
     1
 44
1.0
  0
MTEXT
  5
13C
330
1F
100
AcDbEntity
  8
10
100
AcDbMText
 10
978.0888888855
 20
837.9820025258
 30
0.0
 40
3.5
 41
0.0
 71
     2
 72
     1
  1
20
  7
SLDTEXTSTYLE5
 73
     1
 44
1.0
  0
MTEXT
  5
13D
330
1F
100
AcDbEntity
  8
10
100
AcDbMText
 10
277.54687502
 20
837.9820025258
 30
0.0
 40
3.5
 41
0.0
 71
     2
 72
     1
  1
6
  7
SLDTEXTSTYLE5
 73
     1
 44
1.0
  0
MTEXT
  5
13E
330
1F
100
AcDbEntity
  8
10
100
AcDbMText
 10
26.5444444427
 20
837.9820025258
 30
0.0
 40
3.5
 41
0.0
 71
     2
 72
     1
  1
1
  7
SLDTEXTSTYLE5
 73
     1
 44
1.0
  0
MTEXT
  5
13F
330
1F
100
AcDbEntity
  8
10
100
AcDbMText
 10
678.0888888855
 20
837.9820025258
 30
0.0
 40
3.5
 41
0.0
 71
     2
 72
     1
  1
14
  7
SLDTEXTSTYLE5
 73
     1
 44
1.0
  0
MTEXT
  5
140
330
1F
100
AcDbEntity
  8
10
100
AcDbMText
 10
177.5444444427
 20
837.9820025258
 30
0.0
 40
3.5
 41
0.0
 71
     2
 72
     1
  1
4
  7
SLDTEXTSTYLE5
 73
     1
 44
1.0
  0
MTEXT
  5
141
330
1F
100
AcDbEntity
  8
10
100
AcDbMText
 10
578.0888888855
 20
837.9820025258
 30
0.0
 40
3.5
 41
0.0
 71
     2
 72
     1
  1
12
  7
SLDTEXTSTYLE5
 73
     1
 44
1.0
  0
MTEXT
  5
142
330
1F
100
AcDbEntity
  8
10
100
AcDbMText
 10
77.5444444427
 20
837.9820025258
 30
0.0
 40
3.5
 41
0.0
 71
     2
 72
     1
  1
2
  7
SLDTEXTSTYLE5
 73
     1
 44
1.0
  0
MTEXT
  5
143
330
1F
100
AcDbEntity
  8
10
100
AcDbMText
 10
728.0888888855
 20
837.9820025258
 30
0.0
 40
3.5
 41
0.0
 71
     2
 72
     1
  1
15
  7
SLDTEXTSTYLE5
 73
     1
 44
1.0
  0
MTEXT
  5
144
330
1F
100
AcDbEntity
  8
10
100
AcDbMText
 10
528.0888888855
 20
837.9820025258
 30
0.0
 40
3.5
 41
0.0
 71
     2
 72
     1
  1
11
  7
SLDTEXTSTYLE5
 73
     1
 44
1.0
  0
MTEXT
  5
145
330
1F
100
AcDbEntity
  8
10
100
AcDbMText
 10
427.54687502
 20
837.9820025258
 30
0.0
 40
3.5
 41
0.0
 71
     2
 72
     1
  1
9
  7
SLDTEXTSTYLE5
 73
     1
 44
1.0
  0
MTEXT
  5
146
330
1F
100
AcDbEntity
  8
10
100
AcDbMText
 10
1078.0888888855
 20
837.9820025258
 30
0.0
 40
3.5
 41
0.0
 71
     2
 72
     1
  1
22
  7
SLDTEXTSTYLE5
 73
     1
 44
1.0
  0
MTEXT
  5
147
330
1F
100
AcDbEntity
  8
10
100
AcDbMText
 10
327.54687502
 20
837.9820025258
 30
0.0
 40
3.5
 41
0.0
 71
     2
 72
     1
  1
7
  7
SLDTEXTSTYLE5
 73
     1
 44
1.0
  0
MTEXT
  5
148
330
1F
100
AcDbEntity
  8
10
100
AcDbMText
 10
928.0913194045
 20
837.9820025258
 30
0.0
 40
3.5
 41
0.0
 71
     2
 72
     1
  1
19
  7
SLDTEXTSTYLE5
 73
     1
 44
1.0
  0
MTEXT
  5
149
330
1F
100
AcDbEntity
  8
10
100
AcDbMText
 10
628.0888888855
 20
837.9820025258
 30
0.0
 40
3.5
 41
0.0
 71
     2
 72
     1
  1
13
  7
SLDTEXTSTYLE5
 73
     1
 44
1.0
  0
MTEXT
  5
14A
330
1F
100
AcDbEntity
  8
10
100
AcDbMText
 10
227.5444444427
 20
837.9820025258
 30
0.0
 40
3.5
 41
0.0
 71
     2
 72
     1
  1
5
  7
SLDTEXTSTYLE5
 73
     1
 44
1.0
  0
MTEXT
  5
14B
330
1F
100
AcDbEntity
  8
10
100
AcDbMText
 10
1028.0888888855
 20
837.9820025258
 30
0.0
 40
3.5
 41
0.0
 71
     2
 72
     1
  1
21
  7
SLDTEXTSTYLE5
 73
     1
 44
1.0
  0
MTEXT
  5
14C
330
1F
100
AcDbEntity
  8
10
100
AcDbMText
 10
127.5444444427
 20
837.9820025258
 30
0.0
 40
3.5
 41
0.0
 71
     2
 72
     1
  1
3
  7
SLDTEXTSTYLE5
 73
     1
 44
1.0
  0
MTEXT
  5
14D
330
1F
100
AcDbEntity
  8
10
100
AcDbMText
 10
1171.5888888855
 20
837.9820025258
 30
0.0
 40
3.5
 41
0.0
 71
     2
 72
     1
  1
24
  7
SLDTEXTSTYLE5
 73
     1
 44
1.0
  0
MTEXT
  5
14E
330
1F
100
AcDbEntity
  8
10
100
AcDbMText
 10
778.0913194045
 20
837.9820025258
 30
0.0
 40
3.5
 41
0.0
 71
     2
 72
     1
  1
16
  7
SLDTEXTSTYLE5
 73
     1
 44
1.0
  0
MTEXT
  5
14F
330
1F
100
AcDbEntity
  8
10
100
AcDbMText
 10
13.32031252
 20
747.5277481799
 30
0.0
 40
3.5
 41
0.0
 71
     2
 72
     1
  1
B
  7
SLDTEXTSTYLE5
 73
     1
 44
1.0
  0
MTEXT
  5
150
330
1F
100
AcDbEntity
  8
10
100
AcDbMText
 10
13.4272569427
 20
697.5277481799
 30
0.0
 40
3.5
 41
0.0
 71
     2
 72
     1
  1
C
  7
SLDTEXTSTYLE5
 73
     1
 44
1.0
  0
MTEXT
  5
151
330
1F
100
AcDbEntity
  8
10
100
AcDbMText
 10
13.42968752
 20
647.5277481799
 30
0.0
 40
3.5
 41
0.0
 71
     2
 72
     1
  1
D
  7
SLDTEXTSTYLE5
 73
     1
 44
1.0
  0
MTEXT
  5
152
330
1F
100
AcDbEntity
  8
10
100
AcDbMText
 10
13.3178819427
 20
597.5277481799
 30
0.0
 40
3.5
 41
0.0
 71
     2
 72
     1
  1
E
  7
SLDTEXTSTYLE5
 73
     1
 44
1.0
  0
MTEXT
  5
153
330
1F
100
AcDbEntity
  8
10
100
AcDbMText
 10
13.224305544
 20
547.5277481799
 30
0.0
 40
3.5
 41
0.0
 71
     2
 72
     1
  1
F
  7
SLDTEXTSTYLE5
 73
     1
 44
1.0
  0
MTEXT
  5
154
330
1F
100
AcDbEntity
  8
10
100
AcDbMText
 10
13.53906252
 20
497.5277481799
 30
0.0
 40
3.5
 41
0.0
 71
     2
 72
     1
  1
G
  7
SLDTEXTSTYLE5
 73
     1
 44
1.0
  0
MTEXT
  5
155
330
1F
100
AcDbEntity
  8
10
100
AcDbMText
 10
13.42968752
 20
447.5277481799
 30
0.0
 40
3.5
 41
0.0
 71
     2
 72
     1
  1
H
  7
SLDTEXTSTYLE5
 73
     1
 44
1.0
  0
MTEXT
  5
156
330
1F
100
AcDbEntity
  8
10
100
AcDbMText
 10
13.015277795
 20
397.5277481799
 30
0.0
 40
3.5
 41
0.0
 71
     2
 72
     1
  1
J
  7
SLDTEXTSTYLE5
 73
     1
 44
1.0
  0
MTEXT
  5
157
330
1F
100
AcDbEntity
  8
10
100
AcDbMText
 10
13.32031252
 20
347.5277481799
 30
0.0
 40
3.5
 41
0.0
 71
     2
 72
     1
  1
K
  7
SLDTEXTSTYLE5
 73
     1
 44
1.0
  0
MTEXT
  5
158
330
1F
100
AcDbEntity
  8
10
100
AcDbMText
 10
13.180555549
 20
297.5277481799
 30
0.0
 40
3.5
 41
0.0
 71
     2
 72
     1
  1
L
  7
SLDTEXTSTYLE5
 73
     1
 44
1.0
  0
MTEXT
  5
159
330
1F
100
AcDbEntity
  8
10
100
AcDbMText
 10
13.5973958042
 20
247.5277481799
 30
0.0
 40
3.5
 41
0.0
 71
     2
 72
     1
  1
M
  7
SLDTEXTSTYLE5
 73
     1
 44
1.0
  0
MTEXT
  5
15A
330
1F
100
AcDbEntity
  8
10
100
AcDbMText
 10
13.5487847016
 20
197.5277481799
 30
0.0
 40
3.5
 41
0.0
 71
     2
 72
     1
  1
N
  7
SLDTEXTSTYLE5
 73
     1
 44
1.0
  0
MTEXT
  5
15B
330
1F
100
AcDbEntity
  8
10
100
AcDbMText
 10
13.4442708562
 20
147.5277481799
 30
0.0
 40
3.5
 41
0.0
 71
     2
 72
     1
  1
P
  7
SLDTEXTSTYLE5
 73
     1
 44
1.0
  0
MTEXT
  5
15C
330
1F
100
AcDbEntity
  8
10
100
AcDbMText
 10
13.32031252
 20
807.7777481799
 30
0.0
 40
3.5
 41
0.0
 71
     2
 72
     1
  1
A
  7
SLDTEXTSTYLE5
 73
     1
 44
1.0
  0
MTEXT
  5
15D
330
1F
100
AcDbEntity
  8
10
100
AcDbMText
 10
1184.65625002
 20
37.2777481799
 30
0.0
 40
3.5
 41
0.0
 71
     2
 72
     1
  1
T
  7
SLDTEXTSTYLE5
 73
     1
 44
1.0
  0
MTEXT
  5
15E
330
1F
100
AcDbEntity
  8
10
100
AcDbMText
 10
1184.92968752
 20
97.5277481799
 30
0.0
 40
3.5
 41
0.0
 71
     2
 72
     1
  1
R
  7
SLDTEXTSTYLE5
 73
     1
 44
1.0
  0
MTEXT
  5
15F
330
1F
100
AcDbEntity
  8
10
100
AcDbMText
 10
1184.9442708562
 20
147.5277481799
 30
0.0
 40
3.5
 41
0.0
 71
     2
 72
     1
  1
P
  7
SLDTEXTSTYLE5
 73
     1
 44
1.0
  0
MTEXT
  5
160
330
1F
100
AcDbEntity
  8
10
100
AcDbMText
 10
1185.0487847016
 20
197.5277481799
 30
0.0
 40
3.5
 41
0.0
 71
     2
 72
     1
  1
N
  7
SLDTEXTSTYLE5
 73
     1
 44
1.0
  0
MTEXT
  5
161
330
1F
100
AcDbEntity
  8
10
100
AcDbMText
 10
1185.0973958042
 20
247.5277481799
 30
0.0
 40
3.5
 41
0.0
 71
     2
 72
     1
  1
M
  7
SLDTEXTSTYLE5
 73
     1
 44
1.0
  0
MTEXT
  5
162
330
1F
100
AcDbEntity
  8
10
100
AcDbMText
 10
1184.680555549
 20
297.5277481799
 30
0.0
 40
3.5
 41
0.0
 71
     2
 72
     1
  1
L
  7
SLDTEXTSTYLE5
 73
     1
 44
1.0
  0
MTEXT
  5
163
330
1F
100
AcDbEntity
  8
10
100
AcDbMText
 10
1184.82031252
 20
347.5277481799
 30
0.0
 40
3.5
 41
0.0
 71
     2
 72
     1
  1
K
  7
SLDTEXTSTYLE5
 73
     1
 44
1.0
  0
MTEXT
  5
164
330
1F
100
AcDbEntity
  8
10
100
AcDbMText
 10
1184.515277795
 20
397.5277481799
 30
0.0
 40
3.5
 41
0.0
 71
     2
 72
     1
  1
J
  7
SLDTEXTSTYLE5
 73
     1
 44
1.0
  0
MTEXT
  5
165
330
1F
100
AcDbEntity
  8
10
100
AcDbMText
 10
1184.92968752
 20
447.5277481799
 30
0.0
 40
3.5
 41
0.0
 71
     2
 72
     1
  1
H
  7
SLDTEXTSTYLE5
 73
     1
 44
1.0
  0
MTEXT
  5
166
330
1F
100
AcDbEntity
  8
10
100
AcDbMText
 10
1185.03906252
 20
497.5277481799
 30
0.0
 40
3.5
 41
0.0
 71
     2
 72
     1
  1
G
  7
SLDTEXTSTYLE5
 73
     1
 44
1.0
  0
MTEXT
  5
167
330
1F
100
AcDbEntity
  8
10
100
AcDbMText
 10
1184.724305544
 20
547.5277481799
 30
0.0
 40
3.5
 41
0.0
 71
     2
 72
     1
  1
F
  7
SLDTEXTSTYLE5
 73
     1
 44
1.0
  0
MTEXT
  5
168
330
1F
100
AcDbEntity
  8
10
100
AcDbMText
 10
1184.8178819427
 20
597.5277481799
 30
0.0
 40
3.5
 41
0.0
 71
     2
 72
     1
  1
E
  7
SLDTEXTSTYLE5
 73
     1
 44
1.0
  0
MTEXT
  5
169
330
1F
100
AcDbEntity
  8
10
100
AcDbMText
 10
1184.92968752
 20
647.5277481799
 30
0.0
 40
3.5
 41
0.0
 71
     2
 72
     1
  1
D
  7
SLDTEXTSTYLE5
 73
     1
 44
1.0
  0
MTEXT
  5
16A
330
1F
100
AcDbEntity
  8
10
100
AcDbMText
 10
1184.9272569427
 20
697.5277481799
 30
0.0
 40
3.5
 41
0.0
 71
     2
 72
     1
  1
C
  7
SLDTEXTSTYLE5
 73
     1
 44
1.0
  0
MTEXT
  5
16B
330
1F
100
AcDbEntity
  8
10
100
AcDbMText
 10
1184.82031252
 20
747.5277481799
 30
0.0
 40
3.5
 41
0.0
 71
     2
 72
     1
  1
B
  7
SLDTEXTSTYLE5
 73
     1
 44
1.0
  0
MTEXT
  5
16C
330
1F
100
AcDbEntity
  8
10
100
AcDbMText
 10
1184.82031252
 20
807.7777481799
 30
0.0
 40
3.5
 41
0.0
 71
     2
 72
     1
  1
A
  7
SLDTEXTSTYLE5
 73
     1
 44
1.0
  0
LINE
  5
16D
330
1F
100
AcDbEntity
  8
0
  6
Continuous
 62
     7
100
AcDbLine
 10
614.300716388
 20
398.9193795126
 30
0.0
 11
614.4351805189
 21
398.9193795126
 31
0.0
  0
LINE
  5
16E
330
1F
100
AcDbEntity
  8
0
  6
Continuous
 62
     7
100
AcDbLine
 10
614.300716388
 20
398.9193795126
 30
0.0
 11
614.300716388
 21
399.1883077744
 31
0.0
  0
LINE
  5
16F
330
1F
100
AcDbEntity
  8
0
  6
Continuous
 62
     7
100
AcDbLine
 10
614.300716388
 20
398.9193795126
 30
0.0
 11
614.4351805189
 21
398.9193795126
 31
0.0
  0
LINE
  5
170
330
1F
100
AcDbEntity
  8
0
  6
Continuous
 62
     7
100
AcDbLine
 10
614.300716388
 20
398.9193795126
 30
0.0
 11
614.300716388
 21
399.1883077744
 31
0.0
  0
LINE
  5
171
330
1F
100
AcDbEntity
  8
0
  6
Continuous
 62
     7
100
AcDbLine
 10
614.300716388
 20
398.9193795126
 30
0.0
 11
614.4351805189
 21
398.9193795126
 31
0.0
  0
LINE
  5
172
330
1F
100
AcDbEntity
  8
0
  6
Continuous
 62
     7
100
AcDbLine
 10
614.300716388
 20
398.9193795126
 30
0.0
 11
614.300716388
 21
399.1883077744
 31
0.0
  0
POINT
  5
173
330
1F
100
AcDbEntity
  8
0
  6
Continuous
 62
     7
100
AcDbPoint
 10
614.300716388
 20
398.9193795126
 30
0.0
  0
POINT
  5
174
330
1F
100
AcDbEntity
  8
0
  6
Continuous
 62
     7
100
AcDbPoint
 10
614.300716388
 20
398.9193795126
 30
0.0
  0
POINT
  5
175
330
1F
100
AcDbEntity
  8
0
  6
Continuous
 62
     7
100
AcDbPoint
 10
614.300716388
 20
398.9193795126
 30
0.0
  0
SPLINE
  5
176
330
1F
100
AcDbEntity
  8
0
  6
Continuous
 62
     7
370
    25
100
AcDbSpline
210
0.0
220
0.0
230
1.0
 70
    11
 71
     3
 72
   230
 73
   226
 74
     0
 42
0.00000001
 43
0.00000001
 40
0.0
 40
0.0
 40
0.0
 40
0.0
 40
0.0078124999999999
 40
0.0078124999999999
 40
0.0156249999999998
 40
0.0156249999999998
 40
0.0234374999999997
 40
0.0234374999999997
 40
0.0312499999999996
 40
0.0312499999999996
 40
0.0390624999999995
 40
0.0390624999999995
 40
0.0468749999999994
 40
0.0468749999999994
 40
0.0624999999999992
 40
0.0624999999999992
 40
0.0703124999999991
 40
0.0703124999999991
 40
0.0781249999999991
 40
0.0781249999999991
 40
0.085937499999999
 40
0.085937499999999
 40
0.0937499999999989
 40
0.0937499999999989
 40
0.1015624999999989
 40
0.1015624999999989
 40
0.1093749999999988
 40
0.1093749999999988
 40
0.1171874999999988
 40
0.1171874999999988
 40
0.1249999999999987
 40
0.1249999999999987
 40
0.1328124999999986
 40
0.1328124999999986
 40
0.1406249999999986
 40
0.1406249999999986
 40
0.1562499999999984
 40
0.1562499999999984
 40
0.1640624999999984
 40
0.1640624999999984
 40
0.1718749999999983
 40
0.1718749999999983
 40
0.1796874999999983
 40
0.1796874999999983
 40
0.1874999999999982
 40
0.1874999999999982
 40
0.1953124999999981
 40
0.1953124999999981
 40
0.203124999999998
 40
0.203124999999998
 40
0.2187499999999978
 40
0.2187499999999978
 40
0.2265624999999978
 40
0.2265624999999978
 40
0.2343749999999977
 40
0.2343749999999977
 40
0.2499999999999976
 40
0.2499999999999976
 40
0.2656249999999974
 40
0.2656249999999974
 40
0.2734374999999974
 40
0.2734374999999974
 40
0.2812499999999973
 40
0.2812499999999973
 40
0.2968749999999973
 40
0.2968749999999973
 40
0.3046874999999973
 40
0.3046874999999973
 40
0.3124999999999973
 40
0.3124999999999973
 40
0.3203124999999974
 40
0.3203124999999974
 40
0.3281249999999974
 40
0.3281249999999974
 40
0.3359374999999974
 40
0.3359374999999974
 40
0.3437499999999974
 40
0.3437499999999974
 40
0.3593749999999974
 40
0.3593749999999974
 40
0.3671874999999975
 40
0.3671874999999975
 40
0.3749999999999975
 40
0.3749999999999975
 40
0.3828124999999975
 40
0.3828124999999975
 40
0.3906249999999976
 40
0.3906249999999976
 40
0.3984374999999976
 40
0.3984374999999976
 40
0.4062499999999976
 40
0.4062499999999976
 40
0.4140624999999976
 40
0.4140624999999976
 40
0.4218749999999976
 40
0.4218749999999976
 40
0.4296874999999976
 40
0.4296874999999976
 40
0.4374999999999976
 40
0.4374999999999976
 40
0.4531249999999977
 40
0.4531249999999977
 40
0.4609374999999978
 40
0.4609374999999978
 40
0.4687499999999978
 40
0.4687499999999978
 40
0.4765624999999978
 40
0.4765624999999978
 40
0.4843749999999978
 40
0.4843749999999978
 40
0.4921874999999979
 40
0.4921874999999979
 40
0.4999999999999979
 40
0.4999999999999979
 40
0.5078124999999979
 40
0.5078124999999979
 40
0.5156249999999979
 40
0.5156249999999979
 40
0.5234374999999979
 40
0.5234374999999979
 40
0.531249999999998
 40
0.531249999999998
 40
0.539062499999998
 40
0.539062499999998
 40
0.546874999999998
 40
0.546874999999998
 40
0.5624999999999981
 40
0.5624999999999981
 40
0.5703124999999981
 40
0.5703124999999981
 40
0.5781249999999982
 40
0.5781249999999982
 40
0.5859374999999982
 40
0.5859374999999982
 40
0.5937499999999982
 40
0.5937499999999982
 40
0.6015624999999982
 40
0.6015624999999982
 40
0.6093749999999982
 40
0.6093749999999982
 40
0.6171874999999982
 40
0.6171874999999982
 40
0.6249999999999982
 40
0.6249999999999982
 40
0.6328124999999984
 40
0.6328124999999984
 40
0.6406249999999986
 40
0.6406249999999986
 40
0.6562499999999987
 40
0.6562499999999987
 40
0.6640624999999987
 40
0.6640624999999987
 40
0.6718749999999987
 40
0.6718749999999987
 40
0.6796874999999988
 40
0.6796874999999988
 40
0.6874999999999988
 40
0.6874999999999988
 40
0.6953124999999988
 40
0.6953124999999988
 40
0.7031249999999988
 40
0.7031249999999988
 40
0.7187499999999989
 40
0.7187499999999989
 40
0.7265624999999991
 40
0.7265624999999991
 40
0.7343749999999992
 40
0.7343749999999992
 40
0.7499999999999993
 40
0.7499999999999993
 40
0.7656249999999994
 40
0.7656249999999994
 40
0.7734374999999994
 40
0.7734374999999994
 40
0.7812499999999996
 40
0.7812499999999996
 40
0.7968749999999996
 40
0.7968749999999996
 40
0.8046874999999996
 40
0.8046874999999996
 40
0.8124999999999996
 40
0.8124999999999996
 40
0.8203124999999996
 40
0.8203124999999996
 40
0.8281249999999997
 40
0.8281249999999997
 40
0.8359374999999997
 40
0.8359374999999997
 40
0.8437499999999997
 40
0.8437499999999997
 40
0.8593749999999997
 40
0.8593749999999997
 40
0.8671874999999997
 40
0.8671874999999997
 40
0.8749999999999997
 40
0.8749999999999997
 40
0.8828124999999998
 40
0.8828124999999998
 40
0.8906249999999998
 40
0.8906249999999998
 40
0.8984374999999998
 40
0.8984374999999998
 40
0.9062499999999998
 40
0.9062499999999998
 40
0.9140624999999998
 40
0.9140624999999998
 40
0.9218749999999998
 40
0.9218749999999998
 40
0.9296874999999999
 40
0.9296874999999999
 40
0.9374999999999999
 40
0.9374999999999999
 40
0.9531249999999999
 40
0.9531249999999999
 40
0.9609374999999999
 40
0.9609374999999999
 40
0.9687499999999999
 40
0.9687499999999999
 40
0.9765625
 40
0.9765625
 40
0.984375
 40
0.984375
 40
0.9921875
 40
0.9921875
 40
1.0
 40
1.0
 40
1.0
 40
1.0
 10
776.8007163879681
 20
398.9193795125612
 30
0.0
 10
776.8007161073274
 20
401.6479535263404
 30
0.0
 10
777.1901492995249
 20
404.3761296031115
 30
0.0
 10
778.4918337857011
 20
409.8110504249111
 30
0.0
 10
779.3903562057553
 20
412.5170002259083
 30
0.0
 10
781.2029387873182
 20
417.9090908651333
 30
0.0
 10
782.1087098951393
 20
420.5955134858989
 30
0.0
 10
783.5830281499359
 20
425.9912266007562
 30
0.0
 10
784.1538787725087
 20
428.7028964645518
 30
0.0
 10
784.8094032856353
 20
434.1849031606011
 30
0.0
 10
784.8962176752513
 20
436.9568205779931
 30
0.0
 10
784.5490596953293
 20
442.5170951347791
 30
0.0
 10
784.1165682656199
 20
445.3038829562653
 30
0.0
 10
782.0777014942659
 20
453.5163315447297
 30
0.0
 10
779.7326479226999
 20
458.7701207318221
 30
0.0
 10
775.0084265349329
 20
465.6341469750441
 30
0.0
 10
773.2329164464239
 20
467.7560858590199
 30
0.0
 10
769.342471364661
 20
471.679144208687
 30
0.0
 10
767.2244748877774
 20
473.4806471373196
 30
0.0
 10
762.7693329550563
 20
476.9036016456229
 30
0.0
 10
760.4291016866044
 20
478.5257056707882
 30
0.0
 10
755.8094118194724
 20
481.8435278218206
 30
0.0
 10
753.5393216611089
 20
483.5456528030149
 30
0.0
 10
749.4593230598529
 20
487.3086193313308
 30
0.0
 10
747.6609499854573
 20
489.3768591735057
 30
0.0
 10
744.6919066996101
 20
493.9639352122978
 30
0.0
 10
743.5165102875778
 20
496.4783551322599
 30
0.0
 10
741.52440295667
 20
501.7384043016742
 30
0.0
 10
740.6970529089922
 20
504.4753211670476
 30
0.0
 10
738.988976353486
 20
509.8924216257601
 30
0.0
 10
738.1040906733492
 20
512.5708901505232
 30
0.0
 10
736.0078503799433
 20
517.7316667159147
 30
0.0
 10
734.7969644893325
 20
520.2172577060483
 30
0.0
 10
731.9363517168697
 20
524.9415607899515
 30
0.0
 10
730.2877842103532
 20
527.1820152031743
 30
0.0
 10
724.7146072166453
 20
533.4424290721495
 30
0.0
 10
720.1615584238393
 20
537.000109237024
 30
0.0
 10
712.7086966559644
 20
540.9364643318052
 30
0.0
 10
710.1230351072167
 20
542.0136485114704
 30
0.0
 10
704.834277744028
 20
543.6663187643094
 30
0.0
 10
702.1316376905854
 20
544.2399738987252
 30
0.0
 10
696.6427698852204
 20
544.9523370631701
 30
0.0
 10
693.8536137370176
 20
545.089579979102
 30
0.0
 10
688.2114362757922
 20
545.1474224296684
 30
0.0
 10
685.3559834841174
 20
545.0675382608972
 30
0.0
 10
679.6797915412084
 20
545.0992779493429
 30
0.0
 10
676.863708871803
 20
545.2231003283406
 30
0.0
 10
671.4201972564542
 20
546.1020251007167
 30
0.0
 10
668.7975607504169
 20
546.8693045826951
 30
0.0
 10
661.2863207313312
 20
550.2230761936089
 30
0.0
 10
656.7724645030698
 20
553.8555216404715
 30
0.0
 10
649.9079819889673
 20
558.8612272344526
 30
0.0
 10
647.5968750856439
 20
560.4531294374025
 30
0.0
 10
642.8060325443037
 20
563.2555240059946
 30
0.0
 10
640.3247475590084
 20
564.4689470400492
 30
0.0
 10
632.5675477726626
 20
567.4064650617644
 30
0.0
 10
626.9498833802187
 20
568.4193793265586
 30
0.0
 10
615.651556708816
 20
568.4193796985628
 30
0.0
 10
610.0338910077189
 20
567.4064659787427
 30
0.0
 10
602.2766912114341
 20
564.4689497654978
 30
0.0
 10
599.7954065402354
 20
563.2555274504141
 30
0.0
 10
595.0045644431897
 20
560.4531339478172
 30
0.0
 10
592.6934575983016
 20
558.8612320595703
 30
0.0
 10
585.828973485714
 20
553.8555260879281
 30
0.0
 10
581.3151132444987
 20
550.2230784254916
 30
0.0
 10
573.803871730461
 20
546.8693046164676
 30
0.0
 10
571.1812356140957
 20
546.1020246420334
 30
0.0
 10
565.7377262079261
 20
545.2230994939874
 30
0.0
 10
562.9216452673302
 20
545.0992772037788
 30
0.0
 10
557.2454561299992
 20
545.0675378436207
 30
0.0
 10
554.3900043248203
 20
545.1474222285664
 30
0.0
 10
548.7478273428632
 20
545.0895802150903
 30
0.0
 10
545.958670749523
 20
544.9523375387504
 30
0.0
 10
540.469801835621
 20
544.2399750464285
 30
0.0
 10
537.7671611947245
 20
543.6663203601273
 30
0.0
 10
532.4784033500681
 20
542.0136511353901
 30
0.0
 10
529.8927418757216
 20
540.9364675177569
 30
0.0
 10
522.4398804046834
 20
537.0001136820599
 30
0.0
 10
517.8868312165281
 20
533.4424333682938
 30
0.0
 10
512.3136527532231
 20
527.1820198624351
 30
0.0
 10
510.6650847621819
 20
524.9415657798758
 30
0.0
 10
507.8044714022602
 20
520.2172638372296
 30
0.0
 10
506.5935854009564
 20
517.7316736325796
 30
0.0
 10
504.4973448266663
 20
512.5708979550523
 30
0.0
 10
503.6124589374679
 20
509.8924294640933
 30
0.0
 10
501.9043815107726
 20
504.4753276597974
 30
0.0
 10
501.0770307912092
 20
501.7384094208972
 30
0.0
 10
499.0849223872657
 20
496.4783574177224
 30
0.0
 10
497.9095256317775
 20
493.963936118842
 30
0.0
 10
494.9404828202965
 20
489.3768588388679
 30
0.0
 10
493.1421105900382
 20
487.3086191729423
 30
0.0
 10
489.0621142167814
 20
483.5456540500302
 30
0.0
 10
486.7920253825976
 20
481.8435302184497
 30
0.0
 10
482.1723373057555
 20
478.5257098313464
 30
0.0
 10
479.8321064506721
 20
476.9036063656401
 30
0.0
 10
475.3769642400088
 20
473.4806522242552
 30
0.0
 10
473.2589671217759
 20
471.6791491604758
 30
0.0
 10
469.3685206863024
 20
467.7560907553353
 30
0.0
 10
467.593009934006
 20
465.6341520027692
 30
0.0
 10
462.8687872981177
 20
458.7701268020022
 30
0.0
 10
460.5237338076764
 20
453.5163387093893
 30
0.0
 10
458.4848662454649
 20
445.3038897330299
 30
0.0
 10
458.0523744125111
 20
442.5171015854
 30
0.0
 10
457.7052154159108
 20
436.9568267766567
 30
0.0
 10
457.7920291986965
 20
434.1849094906486
 30
0.0
 10
458.4475525943246
 20
428.7029035394714
 30
0.0
 10
459.0184027150916
 20
425.9912342357215
 30
0.0
 10
460.4927203673153
 20
420.5955213750931
 30
0.0
 10
461.3984913831422
 20
417.909098370198
 30
0.0
 10
463.2110742193591
 20
412.5170056531658
 30
0.0
 10
464.1095969730017
 20
409.8110542008346
 30
0.0
 10
465.4112823545825
 20
404.3761306155386
 30
0.0
 10
465.8007161073351
 20
401.6479535263412
 30
0.0
 10
465.8007166686011
 20
396.1908054987813
 30
0.0
 10
465.4112834764068
 20
393.4626294220105
 30
0.0
 10
464.1095989902612
 20
388.0277086002122
 30
0.0
 10
463.211076570186
 20
385.321758799215
 30
0.0
 10
461.3984939886166
 20
379.9296681599884
 30
0.0
 10
460.492722880802
 20
377.2432455392217
 30
0.0
 10
459.018404626003
 20
371.8475324243637
 30
0.0
 10
458.4475540034296
 20
369.1358625605686
 30
0.0
 10
457.7920294903013
 20
363.6538558645215
 30
0.0
 10
457.7052151006833
 20
360.8819384471304
 30
0.0
 10
458.0523730806032
 20
355.321663890345
 30
0.0
 10
458.484864510313
 20
352.5348760688584
 30
0.0
 10
460.5237312816712
 20
344.3224274803925
 30
0.0
 10
462.8687848532394
 20
339.0686382932976
 30
0.0
 10
467.593006241004
 20
332.204612050078
 30
0.0
 10
469.3685163295124
 20
330.0826731661028
 30
0.0
 10
473.2589614112728
 20
326.1596148164355
 30
0.0
 10
475.3769578881555
 20
324.3581118878021
 30
0.0
 10
479.8320998208769
 20
320.9351573794983
 30
0.0
 10
482.1723310893315
 20
319.3130533543341
 30
0.0
 10
486.7920209564684
 20
315.9952312033051
 30
0.0
 10
489.062111114835
 20
314.2931062221122
 30
0.0
 10
493.1421097160889
 20
310.5301396937939
 30
0.0
 10
494.94048279048
 20
308.4618998516165
 30
0.0
 10
497.9095260763207
 20
303.8748238128244
 30
0.0
 10
499.0849224883523
 20
301.3604038928629
 30
0.0
 10
501.0770298192626
 20
296.1003547234495
 30
0.0
 10
501.904379866943
 20
293.3634378580754
 30
0.0
 10
503.6124564224509
 20
287.9463373993614
 30
0.0
 10
504.4973421025873
 20
285.2678688745966
 30
0.0
 10
506.5935823959907
 20
280.1070923092048
 30
0.0
 10
507.8044682866013
 20
277.621501319072
 30
0.0
 10
510.6650810590684
 20
272.8971982351725
 30
0.0
 10
512.3136485655878
 20
270.6567438219519
 30
0.0
 10
517.8868255593001
 20
264.3963299529792
 30
0.0
 10
522.4398743520935
 20
260.8386497880961
 30
0.0
 10
529.892736119962
 20
256.9022946933142
 30
0.0
 10
532.4783976687112
 20
255.82511051365
 30
0.0
 10
537.7671550319075
 20
254.1724402608131
 30
0.0
 10
540.4697950853562
 20
253.5987851263979
 30
0.0
 10
545.9586628907267
 20
252.8864219619537
 30
0.0
 10
548.7478190389281
 20
252.7491790460212
 30
0.0
 10
554.3899965001461
 20
252.6913365954539
 30
0.0
 10
557.2454492918146
 20
252.7712207642246
 30
0.0
 10
562.9216412347181
 20
252.7394810757799
 30
0.0
 10
565.7377239041243
 20
252.6156586967818
 30
0.0
 10
571.1812355194784
 20
251.7367339244058
 30
0.0
 10
573.8038720255198
 20
250.9694544424278
 30
0.0
 10
581.3151120446124
 20
247.6156828315132
 30
0.0
 10
585.8289682728689
 20
243.9832373846507
 30
0.0
 10
592.6934507869641
 20
238.9775317906706
 30
0.0
 10
595.0045576902861
 20
237.3856295877221
 30
0.0
 10
599.795400231629
 20
234.5832350191307
 30
0.0
 10
602.2766852169268
 20
233.3698119850745
 30
0.0
 10
610.0338850032751
 20
230.4322939633532
 30
0.0
 10
615.651549395714
 20
229.4193796985577
 30
0.0
 10
626.9498760671227
 20
229.4193793265648
 30
0.0
 10
632.5675417682179
 20
230.4322930463867
 30
0.0
 10
640.324741564501
 20
233.3698092596233
 30
0.0
 10
642.8060262357008
 20
234.5832315747037
 30
0.0
 10
647.5968683327475
 20
237.3856250772978
 30
0.0
 10
649.9079751776361
 20
238.9775269655455
 30
0.0
 10
656.7724592902208
 20
243.983232937198
 30
0.0
 10
661.28631953143
 20
247.6156805996415
 30
0.0
 10
668.7975610454736
 20
250.9694544086554
 30
0.0
 10
671.4201971618421
 20
251.7367343830854
 30
0.0
 10
676.8637065680144
 20
252.615659531128
 30
0.0
 10
679.6797875086096
 20
252.7394818213375
 30
0.0
 10
685.3559766459368
 20
252.7712211814994
 30
0.0
 10
688.2114284511142
 20
252.6913367965579
 30
0.0
 10
693.8536054330705
 20
252.7491788100374
 30
0.0
 10
696.6427620264113
 20
252.8864214863767
 30
0.0
 10
702.1316309403143
 20
253.5987839786958
 30
0.0
 10
704.8342715812108
 20
254.1724386649941
 30
0.0
 10
710.1230294258678
 20
255.8251078897281
 30
0.0
 10
712.7086909002142
 20
256.9022915073601
 30
0.0
 10
720.1615523712509
 20
260.8386453430592
 30
0.0
 10
724.7146015594071
 20
264.3963256568335
 30
0.0
 10
730.2877800227114
 20
270.6567391626915
 30
0.0
 10
731.9363480137534
 20
272.8971932452473
 30
0.0
 10
734.7969613736772
 20
277.62149518789
 30
0.0
 10
736.0078473749807
 20
280.1070853925386
 30
0.0
 10
738.1040879492706
 20
285.2678610700655
 30
0.0
 10
738.9889738384688
 20
287.9463295610265
 30
0.0
 10
740.6970512651626
 20
293.3634313653249
 30
0.0
 10
741.5244019847254
 20
296.1003496042256
 30
0.0
 10
743.5165103886675
 20
301.3604016073999
 30
0.0
 10
744.6919071441565
 20
303.874822906279
 30
0.0
 10
747.6609499556395
 20
308.4619001862536
 30
0.0
 10
749.4593221858992
 20
310.53013985218
 30
0.0
 10
753.5393185591577
 20
314.2931049750944
 30
0.0
 10
755.8094073933407
 20
315.9952288066747
 30
0.0
 10
760.4290954701796
 20
319.3130491937752
 30
0.0
 10
762.769326325261
 20
320.9351526594795
 30
0.0
 10
767.2244685359219
 20
324.3581068008621
 30
0.0
 10
769.3424656541558
 20
326.1596098646422
 30
0.0
 10
773.2329120896322
 20
330.0826682697856
 30
0.0
 10
775.0084228419291
 20
332.2046070223529
 30
0.0
 10
779.7326454778193
 20
339.0686322231217
 30
0.0
 10
782.0776989682576
 20
344.3224203157313
 30
0.0
 10
784.1165665304737
 20
352.5348692920922
 30
0.0
 10
784.5490583634296
 20
355.3216574397241
 30
0.0
 10
784.8962173600285
 20
360.8819322484669
 30
0.0
 10
784.8094035772406
 20
363.6538495344726
 30
0.0
 10
784.1538801816075
 20
369.1358554856453
 30
0.0
 10
783.5830300608372
 20
371.8475247893924
 30
0.0
 10
782.1087124086165
 20
377.2432376500231
 30
0.0
 10
781.2029413927881
 20
379.9296606549215
 30
0.0
 10
779.3903585565935
 20
385.3217533719579
 30
0.0
 10
778.4918358029835
 20
388.0277048242907
 30
0.0
 10
777.1901504213746
 20
393.4626284095854
 30
0.0
 10
776.8007166686089
 20
396.190805498782
 30
0.0
 10
776.8007163879681
 20
398.9193795125612
 30
0.0
  0
CIRCLE
  5
177
330
1F
100
AcDbEntity
  8
0
  6
Continuous
 62
     7
370
    25
100
AcDbCircle
 10
621.300716388
 20
398.9193795126
 30
0.0
 40
75.0
  0
CIRCLE
  5
178
330
1F
100
AcDbEntity
  8
0
  6
Continuous
 62
     7
370
    25
100
AcDbCircle
 10
563.675716388
 20
498.7288072987
 30
0.0
 40
27.0
  0
CIRCLE
  5
179
330
1F
100
AcDbEntity
  8
0
  6
Continuous
 62
     7
370
    25
100
AcDbCircle
 10
736.550716388
 20
398.9193795126
 30
0.0
 40
27.0
  0
CIRCLE
  5
17A
330
1F
100
AcDbEntity
  8
0
  6
Continuous
 62
     7
370
    25
100
AcDbCircle
 10
506.050716388
 20
398.9193795126
 30
0.0
 40
27.00000000000006
  0
CIRCLE
  5
17B
330
1F
100
AcDbEntity
  8
0
  6
Continuous
 62
     7
370
    25
100
AcDbCircle
 10
563.675716388
 20
299.1099517264
 30
0.0
 40
27.0
  0
CIRCLE
  5
17C
330
1F
100
AcDbEntity
  8
0
  6
Continuous
 62
     7
370
    25
100
AcDbCircle
 10
678.925716388
 20
299.1099517264
 30
0.0
 40
26.99999999999989
  0
CIRCLE
  5
17D
330
1F
100
AcDbEntity
  8
0
  6
Continuous
 62
     7
370
    25
100
AcDbCircle
 10
678.925716388
 20
498.7288072987
 30
0.0
 40
26.99999999999989
  0
LINE
  5
17E
330
1F
100
AcDbEntity
  8
0
  6
Continuous
 62
     7
100
AcDbLine
 10
358.0797346739
 20
648.3551308614
 30
0.0
 11
358.1748151727
 21
648.4100196651
 31
0.0
  0
LINE
  5
17F
330
1F
100
AcDbEntity
  8
0
  6
Continuous
 62
     7
100
AcDbLine
 10
358.0797346739
 20
648.3551308614
 30
0.0
 11
358.0797346739
 21
648.5747217627
 31
0.0
  0
LINE
  5
180
330
1F
100
AcDbEntity
  8
0
  6
Continuous
 62
     7
100
AcDbLine
 10
358.0797346739
 20
648.3551308614
 30
0.0
 11
358.1748151727
 21
648.4100196651
 31
0.0
  0
LINE
  5
181
330
1F
100
AcDbEntity
  8
0
  6
Continuous
 62
     7
100
AcDbLine
 10
358.0797346739
 20
648.3551308614
 30
0.0
 11
358.0797346739
 21
648.5747217627
 31
0.0
  0
LINE
  5
182
330
1F
100
AcDbEntity
  8
0
  6
Continuous
 62
     7
100
AcDbLine
 10
358.0797346739
 20
648.3551308614
 30
0.0
 11
358.1748151727
 21
648.4100196651
 31
0.0
  0
LINE
  5
183
330
1F
100
AcDbEntity
  8
0
  6
Continuous
 62
     7
100
AcDbLine
 10
358.0797346739
 20
648.3551308614
 30
0.0
 11
358.0797346739
 21
648.5747217627
 31
0.0
  0
POINT
  5
184
330
1F
100
AcDbEntity
  8
0
  6
Continuous
 62
     7
100
AcDbPoint
 10
358.0797346739
 20
648.3551308614
 30
0.0
  0
POINT
  5
185
330
1F
100
AcDbEntity
  8
0
  6
Continuous
 62
     7
100
AcDbPoint
 10
358.0797346739
 20
648.3551308614
 30
0.0
  0
POINT
  5
186
330
1F
100
AcDbEntity
  8
0
  6
Continuous
 62
     7
100
AcDbPoint
 10
358.0797346739
 20
648.3551308614
 30
0.0
  0
SPLINE
  5
187
330
1F
100
AcDbEntity
  8
0
  6
Continuous
 62
     7
370
    25
100
AcDbSpline
210
0.0
220
0.0
230
1.0
 70
     8
 71
     3
 72
     9
 73
     5
 74
     0
 42
0.00000001
 43
0.00000001
 40
0.0
 40
0.0
 40
0.0
 40
0.0
 40
0.4524794298072959
 40
1.0
 40
1.0
 40
1.0
 40
1.0
 10
257.0861820452275
 20
532.1115685485348
 30
0.0
 10
261.3586898511932
 20
529.645110473478
 30
0.0
 10
270.801125295795
 20
524.1941265997858
 30
0.0
 10
280.2157516843025
 20
518.759161501611
 30
0.0
 10
285.3704532926894
 20
515.7834063120807
 30
0.0
  0
SPLINE
  5
188
330
1F
100
AcDbEntity
  8
0
  6
Continuous
 62
     7
370
    25
100
AcDbSpline
210
0.0
220
0.0
230
1.0
 70
     8
 71
     3
 72
     9
 73
     5
 74
     0
 42
0.00000001
 43
0.00000001
 40
0.0
 40
0.0
 40
0.0
 40
0.0
 40
0.4524797397917719
 40
1.0
 40
1.0
 40
1.0
 40
1.0
 10
288.6052608059145
 20
500.1902373954694
 30
0.0
 10
292.8849217930043
 20
497.7196971542089
 30
0.0
 10
302.3431596116949
 20
492.2596952491567
 30
0.0
 10
311.742954118892
 20
486.8331943456975
 30
0.0
 10
316.8895320533765
 20
483.8620751590153
 30
0.0
  0
SPLINE
  5
189
330
1F
100
AcDbEntity
  8
0
  6
Continuous
 62
     7
370
    25
100
AcDbSpline
210
0.0
220
0.0
230
1.0
 70
     8
 71
     3
 72
     9
 73
     5
 74
     0
 42
0.00000001
 43
0.00000001
 40
0.0
 40
0.0
 40
0.0
 40
0.0
 40
0.4524797397917716
 40
1.0
 40
1.0
 40
1.0
 40
1.0
 10
465.7379747259611
 20
785.9067188737248
 30
0.0
 10
461.4583137388715
 20
788.3772591149852
 30
0.0
 10
452.0000759201814
 20
793.8372610200372
 30
0.0
 10
442.6002814129838
 20
799.2637619234965
 30
0.0
 10
437.4537034784991
 20
802.2348811101789
 30
0.0
  0
SPLINE
  5
18A
330
1F
100
AcDbEntity
  8
0
  6
Continuous
 62
     7
370
    25
100
AcDbSpline
210
0.0
220
0.0
230
1.0
 70
     8
 71
     3
 72
     9
 73
     5
 74
     0
 42
0.00000001
 43
0.00000001
 40
0.0
 40
0.0
 40
0.0
 40
0.0
 40
0.6424358754886391
 40
1.0
 40
1.0
 40
1.0
 40
1.0
 10
497.2570534866518
 20
753.9853877206468
 30
0.0
 10
492.9837489383985
 20
756.452304741013
 30
0.0
 10
486.332027402762
 20
760.2922475500754
 30
0.0
 10
479.6998922979642
 20
764.1209080402513
 30
0.0
 10
477.3284787155761
 20
765.4898996764722
 30
0.0
  0
SPLINE
  5
18B
330
1F
100
AcDbEntity
  8
0
  6
Continuous
 62
     7
370
    25
100
AcDbSpline
210
0.0
220
0.0
230
1.0
 70
    11
 71
     3
 72
   230
 73
   226
 74
     0
 42
0.00000001
 43
0.00000001
 40
0.0
 40
0.0
 40
0.0
 40
0.0
 40
0.0078124999999999
 40
0.0078124999999999
 40
0.0156249999999998
 40
0.0156249999999998
 40
0.0234374999999997
 40
0.0234374999999997
 40
0.0312499999999996
 40
0.0312499999999996
 40
0.0390624999999995
 40
0.0390624999999995
 40
0.0468749999999994
 40
0.0468749999999994
 40
0.0624999999999992
 40
0.0624999999999992
 40
0.0703124999999991
 40
0.0703124999999991
 40
0.0781249999999991
 40
0.0781249999999991
 40
0.085937499999999
 40
0.085937499999999
 40
0.0937499999999989
 40
0.0937499999999989
 40
0.1015624999999989
 40
0.1015624999999989
 40
0.1093749999999988
 40
0.1093749999999988
 40
0.1171874999999988
 40
0.1171874999999988
 40
0.1249999999999987
 40
0.1249999999999987
 40
0.1328124999999986
 40
0.1328124999999986
 40
0.1406249999999986
 40
0.1406249999999986
 40
0.1562499999999984
 40
0.1562499999999984
 40
0.1640624999999984
 40
0.1640624999999984
 40
0.1718749999999983
 40
0.1718749999999983
 40
0.1796874999999983
 40
0.1796874999999983
 40
0.1874999999999982
 40
0.1874999999999982
 40
0.1953124999999981
 40
0.1953124999999981
 40
0.203124999999998
 40
0.203124999999998
 40
0.2187499999999978
 40
0.2187499999999978
 40
0.2265624999999978
 40
0.2265624999999978
 40
0.2343749999999977
 40
0.2343749999999977
 40
0.2499999999999976
 40
0.2499999999999976
 40
0.2656249999999974
 40
0.2656249999999974
 40
0.2734374999999974
 40
0.2734374999999974
 40
0.2812499999999973
 40
0.2812499999999973
 40
0.2968749999999973
 40
0.2968749999999973
 40
0.3046874999999973
 40
0.3046874999999973
 40
0.3124999999999973
 40
0.3124999999999973
 40
0.3203124999999974
 40
0.3203124999999974
 40
0.3281249999999974
 40
0.3281249999999974
 40
0.3359374999999974
 40
0.3359374999999974
 40
0.3437499999999974
 40
0.3437499999999974
 40
0.3593749999999974
 40
0.3593749999999974
 40
0.3671874999999975
 40
0.3671874999999975
 40
0.3749999999999975
 40
0.3749999999999975
 40
0.3828124999999975
 40
0.3828124999999975
 40
0.3906249999999976
 40
0.3906249999999976
 40
0.3984374999999976
 40
0.3984374999999976
 40
0.4062499999999976
 40
0.4062499999999976
 40
0.4140624999999976
 40
0.4140624999999976
 40
0.4218749999999976
 40
0.4218749999999976
 40
0.4296874999999976
 40
0.4296874999999976
 40
0.4374999999999976
 40
0.4374999999999976
 40
0.4531249999999977
 40
0.4531249999999977
 40
0.4609374999999978
 40
0.4609374999999978
 40
0.4687499999999978
 40
0.4687499999999978
 40
0.4765624999999978
 40
0.4765624999999978
 40
0.4843749999999978
 40
0.4843749999999978
 40
0.4921874999999979
 40
0.4921874999999979
 40
0.4999999999999979
 40
0.4999999999999979
 40
0.5078124999999979
 40
0.5078124999999979
 40
0.5156249999999979
 40
0.5156249999999979
 40
0.5234374999999979
 40
0.5234374999999979
 40
0.531249999999998
 40
0.531249999999998
 40
0.539062499999998
 40
0.539062499999998
 40
0.546874999999998
 40
0.546874999999998
 40
0.5624999999999981
 40
0.5624999999999981
 40
0.5703124999999981
 40
0.5703124999999981
 40
0.5781249999999982
 40
0.5781249999999982
 40
0.5859374999999982
 40
0.5859374999999982
 40
0.5937499999999982
 40
0.5937499999999982
 40
0.6015624999999982
 40
0.6015624999999982
 40
0.6093749999999982
 40
0.6093749999999982
 40
0.6171874999999982
 40
0.6171874999999982
 40
0.6249999999999982
 40
0.6249999999999982
 40
0.6328124999999984
 40
0.6328124999999984
 40
0.6406249999999986
 40
0.6406249999999986
 40
0.6562499999999987
 40
0.6562499999999987
 40
0.6640624999999987
 40
0.6640624999999987
 40
0.6718749999999987
 40
0.6718749999999987
 40
0.6796874999999988
 40
0.6796874999999988
 40
0.6874999999999988
 40
0.6874999999999988
 40
0.6953124999999988
 40
0.6953124999999988
 40
0.7031249999999988
 40
0.7031249999999988
 40
0.7187499999999989
 40
0.7187499999999989
 40
0.7265624999999991
 40
0.7265624999999991
 40
0.7343749999999992
 40
0.7343749999999992
 40
0.7499999999999993
 40
0.7499999999999993
 40
0.7656249999999994
 40
0.7656249999999994
 40
0.7734374999999994
 40
0.7734374999999994
 40
0.7812499999999996
 40
0.7812499999999996
 40
0.7968749999999996
 40
0.7968749999999996
 40
0.8046874999999996
 40
0.8046874999999996
 40
0.8124999999999996
 40
0.8124999999999996
 40
0.8203124999999996
 40
0.8203124999999996
 40
0.8281249999999997
 40
0.8281249999999997
 40
0.8359374999999997
 40
0.8359374999999997
 40
0.8437499999999997
 40
0.8437499999999997
 40
0.8593749999999997
 40
0.8593749999999997
 40
0.8671874999999997
 40
0.8671874999999997
 40
0.8749999999999997
 40
0.8749999999999997
 40
0.8828124999999998
 40
0.8828124999999998
 40
0.8906249999999998
 40
0.8906249999999998
 40
0.8984374999999998
 40
0.8984374999999998
 40
0.9062499999999998
 40
0.9062499999999998
 40
0.9140624999999998
 40
0.9140624999999998
 40
0.9218749999999998
 40
0.9218749999999998
 40
0.9296874999999999
 40
0.9296874999999999
 40
0.9374999999999999
 40
0.9374999999999999
 40
0.9531249999999999
 40
0.9531249999999999
 40
0.9609374999999999
 40
0.9609374999999999
 40
0.9687499999999999
 40
0.9687499999999999
 40
0.9765625
 40
0.9765625
 40
0.984375
 40
0.984375
 40
0.9921875
 40
0.9921875
 40
1.0
 40
1.0
 40
1.0
 40
1.0
 10
501.2688578641748
 20
698.3601277105821
 30
0.0
 10
501.2688576657318
 20
700.588119636525
 30
0.0
 10
501.5442285167538
 20
702.9747549537805
 30
0.0
 10
502.4646584438945
 20
707.9439425009215
 30
0.0
 10
503.1000097401629
 20
710.5202414445433
 30
0.0
 10
504.3816991750465
 20
715.6630070743258
 30
0.0
 10
505.0221760675897
 20
718.2263202220939
 30
0.0
 10
506.0646765031835
 20
723.2339628809141
 30
0.0
 10
506.4683288494494
 20
725.6811755325177
 30
0.0
 10
506.9318546779151
 20
730.4250454958806
 30
0.0
 10
506.9932417215172
 20
732.7238671803108
 30
0.0
 10
506.7477639597713
 20
737.1223469857704
 30
0.0
 10
506.4419463370188
 20
739.2213282203257
 30
0.0
 10
505.0002498170584
 20
745.0948539727907
 30
0.0
 10
503.3420465343583
 20
748.4275268818533
 30
0.0
 10
500.0015175552419
 20
752.1038381117892
 30
0.0
 10
498.7460423315919
 20
753.1117173914417
 30
0.0
 10
495.9950822324436
 20
754.726959179678
 30
0.0
 10
494.49743256111
 20
755.3333850913685
 30
0.0
 10
491.3471714893342
 20
756.309760138029
 30
0.0
 10
489.6923780898673
 20
756.6789823801481
 30
0.0
 10
486.4257640578394
 20
757.5023434322286
 30
0.0
 10
484.8205679129558
 20
757.9655379363755
 30
0.0
 10
481.9355732347759
 20
759.3726817033602
 30
0.0
 10
480.6639314387675
 20
760.3273807602541
 30
0.0
 10
478.5645007977086
 20
762.8609400416918
 30
0.0
 10
477.7333700241783
 20
764.4342649418641
 30
0.0
 10
476.3247374216419
 20
767.9161234689292
 30
0.0
 10
475.739712592514
 20
769.8132001431247
 30
0.0
 10
474.5319200773297
 20
773.5392399719838
 30
0.0
 10
473.9062114123302
 20
775.3651049121544
 30
0.0
 10
472.4239456858663
 20
778.7233958088871
 30
0.0
 10
471.5677200613724
 20
780.2586937621935
 30
0.0
 10
469.544961371615
 20
782.948566301807
 30
0.0
 10
468.3792481085134
 20
784.1050368247693
 30
0.0
 10
464.4384168635097
 20
786.9419267949396
 30
0.0
 10
461.2189251870434
 20
787.9883448612104
 30
0.0
 10
455.9489560917331
 20
788.1602510443805
 30
0.0
 10
454.1206172767602
 20
787.9843383575818
 30
0.0
 10
450.3809010811993
 20
787.1749188612298
 30
0.0
 10
448.4698459723037
 20
786.5401030589445
 30
0.0
 10
444.5886303260936
 20
784.8811985550865
 30
0.0
 10
442.6163990999112
 20
783.8547181448207
 30
0.0
 10
438.6267771564208
 20
781.5987891425236
 30
0.0
 10
436.6076671240695
 20
780.3679530474734
 30
0.0
 10
432.5939933099221
 20
778.076825225219
 30
0.0
 10
430.6027221580036
 20
777.0283948836625
 30
0.0
 10
426.7535781813228
 20
775.524009311099
 30
0.0
 10
424.8990941233164
 20
775.0799534633113
 30
0.0
 10
419.5878453707011
 20
774.7523262166517
 30
0.0
 10
416.3960670223964
 20
775.8757917507867
 30
0.0
 10
411.542144887338
 20
777.1610450565678
 30
0.0
 10
409.9079455239511
 20
777.5174949622259
 30
0.0
 10
406.5203082753723
 20
777.8501231418807
 30
0.0
 10
404.7657748362137
 20
777.8280619763989
 30
0.0
 10
399.2806062642697
 20
777.0601449114782
 30
0.0
 10
395.3083176779426
 20
775.5940773578794
 30
0.0
 10
387.3191942725328
 20
770.9820548893581
 30
0.0
 10
383.346904760848
 20
767.8618155742641
 30
0.0
 10
377.8617361818762
 20
762.2966932812153
 30
0.0
 10
376.1072029648172
 20
760.2930139722424
 30
0.0
 10
372.7195660304023
 20
756.0491041311637
 30
0.0
 10
371.0853667083353
 20
753.8058480831644
 30
0.0
 10
366.2314434429773
 20
746.916374608521
 30
0.0
 10
363.0396622570856
 20
742.1077567868216
 30
0.0
 10
357.7284124473796
 20
736.3031443469599
 30
0.0
 10
355.873928664913
 20
734.6060582338118
 30
0.0
 10
352.0247862503577
 20
731.6663173618496
 30
0.0
 10
350.0335163208921
 20
730.4156757467472
 30
0.0
 10
346.019844490588
 20
728.0727158358565
 30
0.0
 10
344.0007351557946
 20
726.9723376880636
 30
0.0
 10
340.011113551198
 20
724.621947795214
 30
0.0
 10
338.038882010256
 20
723.3713385148768
 30
0.0
 10
334.157665580192
 20
720.5490869140187
 30
0.0
 10
332.2466100559037
 20
718.9774455794395
 30
0.0
 10
328.5068935198937
 20
715.4690813059723
 30
0.0
 10
326.6785547575304
 20
713.5340394192381
 30
0.0
 10
321.4085858721154
 20
707.2775575817451
 30
0.0
 10
318.1890939160949
 20
702.5139932645437
 30
0.0
 10
314.248261631929
 20
695.1271160846904
 30
0.0
 10
313.0825480262168
 20
692.624741748736
 30
0.0
 10
311.0597889210632
 20
687.59944242898
 30
0.0
 10
310.2035632182976
 20
685.0755680082814
 30
0.0
 10
308.7212972932186
 20
680.0058901420018
 30
0.0
 10
308.0955884803901
 20
677.4575972967943
 30
0.0
 10
306.8877953491822
 20
672.3370684580591
 30
0.0
 10
306.3027700449593
 20
669.7645350978157
 30
0.0
 10
304.8941366836722
 20
664.6563012342772
 30
0.0
 10
304.0630056672819
 20
662.1233719025713
 30
0.0
 10
301.9635753616504
 20
657.1658607783775
 30
0.0
 10
300.6919341625373
 20
654.7429558439586
 30
0.0
 10
297.8069410597908
 20
650.0048701797311
 30
0.0
 10
296.2017458512436
 20
647.6883571349695
 30
0.0
 10
292.9351330851418
 20
643.0934459723807
 30
0.0
 10
291.2803399779704
 20
640.8136405647163
 30
0.0
 10
288.1300787096599
 20
636.2000516910074
 30
0.0
 10
286.632428584824
 20
633.8644759026231
 30
0.0
 10
283.8814675284576
 20
629.0730425931483
 30
0.0
 10
282.6259918354393
 20
626.6156223109544
 30
0.0
 10
279.2854619737676
 20
619.0824187597182
 30
0.0
 10
277.6272587484314
 20
613.8352260189732
 30
0.0
 10
276.1855616692503
 20
606.2971522558855
 30
0.0
 10
275.8797437613609
 20
603.845081078906
 30
0.0
 10
275.6342652807149
 20
599.1631780618084
 30
0.0
 10
275.6956518952231
 20
596.9352322088533
 30
0.0
 10
276.1591769334982
 20
592.7265379275568
 30
0.0
 10
276.5628289249337
 20
590.7453726073219
 30
0.0
 10
277.6053289344441
 20
586.9413752927413
 30
0.0
 10
278.2458057619376
 20
585.1175406736431
 30
0.0
 10
279.5274953768889
 20
581.4545805741336
 30
0.0
 10
280.1628469090399
 20
579.6118414106891
 30
0.0
 10
281.0832774693271
 20
575.7053577460963
 30
0.0
 10
281.3586487167215
 20
573.6366582480974
 30
0.0
 10
281.3586491135964
 20
569.180674396204
 30
0.0
 10
281.0832782625768
 20
566.79403907895
 30
0.0
 10
280.1628483354579
 20
561.8248515318226
 30
0.0
 10
279.5274970391745
 20
559.2485525881922
 30
0.0
 10
278.2458076042861
 20
554.1057869584056
 30
0.0
 10
277.6053307117476
 20
551.5424738106394
 30
0.0
 10
276.5628302761521
 20
546.5348311518176
 30
0.0
 10
276.1591779298859
 20
544.0876185002141
 30
0.0
 10
275.6956521014189
 20
539.3437485368526
 30
0.0
 10
275.6342650578154
 20
537.0449268524221
 30
0.0
 10
275.8797428195597
 20
532.6464470469622
 30
0.0
 10
276.1855604423127
 20
530.5474658124066
 30
0.0
 10
277.627256962276
 20
524.6739400599421
 30
0.0
 10
279.2854602449776
 20
521.3412671508786
 30
0.0
 10
282.6259892240925
 20
517.6649559209435
 30
0.0
 10
283.8814644477418
 20
516.6570766412913
 30
0.0
 10
286.6324245468885
 20
515.0418348530536
 30
0.0
 10
288.1300742182215
 20
514.4354089413622
 30
0.0
 10
291.2803352899973
 20
513.4590338947015
 30
0.0
 10
292.9351286894662
 20
513.0898116525844
 30
0.0
 10
296.2017427214976
 20
512.2664506005087
 30
0.0
 10
297.8069388663835
 20
511.8032560963641
 30
0.0
 10
300.6919335445618
 20
510.3961123293766
 30
0.0
 10
301.9635753405669
 20
509.4414132724789
 30
0.0
 10
304.0630059816214
 20
506.9078539910385
 30
0.0
 10
304.8941367551512
 20
505.3345290908664
 30
0.0
 10
306.3027693576893
 20
501.8526705638029
 30
0.0
 10
306.8877941868191
 20
499.9555938896082
 30
0.0
 10
308.0955867020045
 20
496.2295540607485
 30
0.0
 10
308.7212953670038
 20
494.4036891205762
 30
0.0
 10
310.2035610934659
 20
491.0453982238423
 30
0.0
 10
311.0597867179597
 20
489.5101002705366
 30
0.0
 10
313.0825454077201
 20
486.8202277309277
 30
0.0
 10
314.2482586708238
 20
485.6637572079685
 30
0.0
 10
318.1890899158306
 20
482.826867237802
 30
0.0
 10
321.408581592288
 20
481.780449171519
 30
0.0
 10
326.6785506875937
 20
481.6085429883458
 30
0.0
 10
328.5068895025676
 20
481.7844556751457
 30
0.0
 10
332.2466056981339
 20
482.5938751715026
 30
0.0
 10
334.1576608070339
 20
483.2286909737911
 30
0.0
 10
338.0388764532479
 20
484.8875954776518
 30
0.0
 10
340.0111076794292
 20
485.9140758879166
 30
0.0
 10
344.0007296229144
 20
488.1700048902098
 30
0.0
 10
346.0198396552613
 20
489.400840985257
 30
0.0
 10
350.0335134694048
 20
491.69196880751
 30
0.0
 10
352.0247846213239
 20
492.7403991490666
 30
0.0
 10
355.8739285980085
 20
494.2447847216322
 30
0.0
 10
357.7284126560177
 20
494.688840569422
 30
0.0
 10
363.0396614086378
 20
495.0164678160836
 30
0.0
 10
366.2314397569391
 20
493.8930022819469
 30
0.0
 10
371.0853618919923
 20
492.6077489761636
 30
0.0
 10
372.7195612553784
 20
492.251299070506
 30
0.0
 10
376.1071985039588
 20
491.918670890853
 30
0.0
 10
377.8617319431194
 20
491.9407320563344
 30
0.0
 10
383.3469005150652
 20
492.7086491212513
 30
0.0
 10
387.3191891013888
 20
494.1747166748468
 30
0.0
 10
395.3083125068027
 20
498.7867391433799
 30
0.0
 10
399.2806020184863
 20
501.9069784584747
 30
0.0
 10
404.7657705974569
 20
507.4721007515159
 30
0.0
 10
406.5203038145164
 20
509.4757800604863
 30
0.0
 10
409.9079407489321
 20
513.7196899015632
 30
0.0
 10
411.5421400709996
 20
515.9629459495636
 30
0.0
 10
416.3960633363555
 20
522.8524194242141
 30
0.0
 10
419.587844522243
 20
527.6610372459169
 30
0.0
 10
424.899094331953
 20
533.4656496857725
 30
0.0
 10
426.7535781144219
 20
535.1627357989186
 30
0.0
 10
430.6027205289791
 20
538.102476670879
 30
0.0
 10
432.5939904584441
 20
539.353118285982
 30
0.0
 10
436.6076622887456
 20
541.6960781968743
 30
0.0
 10
438.6267716235379
 20
542.7964563446699
 30
0.0
 10
442.6163932281339
 20
545.1468462375219
 30
0.0
 10
444.5886247690763
 20
546.3974555178589
 30
0.0
 10
448.4698411991411
 20
549.2197071187151
 30
0.0
 10
450.3808967234294
 20
550.791348453292
 30
0.0
 10
454.1206132594399
 20
554.299712726757
 30
0.0
 10
455.948952021803
 20
556.23475461349
 30
0.0
 10
461.2189209072171
 20
562.4912364509839
 30
0.0
 10
464.4384128632382
 20
567.2548007681925
 30
0.0
 10
468.3792451474035
 20
574.641677948045
 30
0.0
 10
469.5449587531164
 20
577.1440522839968
 30
0.0
 10
471.5677178582712
 20
582.1693516037508
 30
0.0
 10
472.4239435610369
 20
584.6932260244482
 30
0.0
 10
473.9062094861156
 20
589.7629038907273
 30
0.0
 10
474.531918298944
 20
592.3111967359365
 30
0.0
 10
475.7397114301509
 20
597.431725574673
 30
0.0
 10
476.3247367343732
 20
600.0042589349167
 30
0.0
 10
477.7333700956594
 20
605.1124927984541
 30
0.0
 10
478.5645011120504
 20
607.6454221301593
 30
0.0
 10
480.6639314176832
 20
612.6029332543543
 30
0.0
 10
481.9355726167973
 20
615.0258381887745
 30
0.0
 10
484.820565719545
 20
619.7639238530046
 30
0.0
 10
486.4257609280916
 20
622.0804368977658
 30
0.0
 10
489.6923736941911
 20
626.6753480603509
 30
0.0
 10
491.347166801361
 20
628.9551534680129
 30
0.0
 10
494.4974280696699
 20
633.5687423417188
 30
0.0
 10
495.9950781945067
 20
635.9043181301042
 30
0.0
 10
498.746039250875
 20
640.6957514395824
 30
0.0
 10
500.0015149438938
 20
643.1531717217774
 30
0.0
 10
503.3420448055668
 20
650.686375273016
 30
0.0
 10
505.0002480309008
 20
655.9335680137572
 30
0.0
 10
506.4419451100851
 20
663.471641776848
 30
0.0
 10
506.747763017976
 20
665.92371295383
 30
0.0
 10
506.993241498621
 20
670.6056159709265
 30
0.0
 10
506.9318548841112
 20
672.8335618238787
 30
0.0
 10
506.4683298458326
 20
677.0422561051696
 30
0.0
 10
506.0646778543949
 20
679.0234214254009
 30
0.0
 10
505.0221778448865
 20
682.8274187399845
 30
0.0
 10
504.3817010173921
 20
684.6512533590848
 30
0.0
 10
503.1000114024564
 20
688.3142134586069
 30
0.0
 10
502.4646598703284
 20
690.1569526220659
 30
0.0
 10
501.5442293100214
 20
694.0634362866463
 30
0.0
 10
501.2688580626178
 20
696.1321357846392
 30
0.0
 10
501.2688578641748
 20
698.3601277105821
 30
0.0
  0
SPLINE
  5
18C
330
1F
100
AcDbEntity
  8
0
  6
Continuous
 62
     7
370
    25
100
AcDbSpline
210
0.0
220
0.0
230
1.0
 70
     8
 71
     3
 72
    73
 73
    69
 74
     0
 42
0.00000001
 43
0.00000001
 40
0.0
 40
0.0
 40
0.0
 40
0.0
 40
0.0124262287846788
 40
0.030866948246131
 40
0.0491062612269708
 40
0.0671756536022722
 40
0.0854439703593037
 40
0.1040259282551425
 40
0.1177698817922838
 40
0.1311947841034179
 40
0.1445593377751835
 40
0.1582126023334121
 40
0.1720954875068318
 40
0.1859057145282618
 40
0.2019155859274885
 40
0.2178209122357813
 40
0.233871865252606
 40
0.2500929069558017
 40
0.2666069905950055
 40
0.2829435876042079
 40
0.2991361440449287
 40
0.3154533266121309
 40
0.3320596984921116
 40
0.3451210863724063
 40
0.357931175889812
 40
0.3705151012237766
 40
0.3831954528510363
 40
0.396163392473975
 40
0.4147453446380642
 40
0.4330136629417905
 40
0.4510830576645114
 40
0.4693223695251516
 40
0.4877630881354875
 40
0.5061448974108497
 40
0.5242882657591296
 40
0.5423882574116563
 40
0.5561090903044109
 40
0.5699949200926887
 40
0.5837784995270751
 40
0.5972431422909028
 40
0.6105893820943389
 40
0.6241941617544219
 40
0.6405435164417331
 40
0.6567883824002806
 40
0.6727576985360878
 40
0.6886757147521306
 40
0.7050569522197733
 40
0.7215897847054326
 40
0.7380761187906172
 40
0.7543693739779819
 40
0.7705619305059564
 40
0.7834063301360865
 40
0.7964380769222735
 40
0.8095292604271556
 40
0.8224216331428232
 40
0.8350424325945195
 40
0.8484335476046831
 40
0.8621336559141191
 40
0.8760243027657524
 40
0.8898064082987275
 40
0.9033813719966715
 40
0.9168748238943781
 40
0.9328897823829874
 40
0.9490889243619175
 40
0.9653256737270196
 40
0.9814132571624707
 40
0.9949278068937906
 40
0.9999999999999999
 40
0.9999999999999999
 40
0.9999999999999999
 40
0.9999999999999999
 10
437.3731700145391
 20
802.0894307074253
 30
0.0
 10
436.4202974063175
 20
802.6352065236629
 30
0.0
 10
434.05334682197
 20
803.9909222573508
 30
0.0
 10
429.5067356491231
 20
804.6294558386855
 30
0.0
 10
424.0434695051476
 20
804.1545864608652
 30
0.0
 10
418.2398531803495
 20
802.2199110053498
 30
0.0
 10
412.301763732949
 20
799.1230795921124
 30
0.0
 10
406.8405235659742
 20
795.7905495177893
 30
0.0
 10
401.8946343588586
 20
793.1140047013104
 30
0.0
 10
397.5611478083879
 20
791.5220681056894
 30
0.0
 10
393.494144725749
 20
791.109688186114
 30
0.0
 10
389.7516107159722
 20
791.6843256091427
 30
0.0
 10
386.1793009675734
 20
792.7157550987556
 30
0.0
 10
382.372747444134
 20
793.7427960775312
 30
0.0
 10
378.1466433723427
 20
794.282121450651
 30
0.0
 10
373.3541129226688
 20
793.854466611252
 30
0.0
 10
368.2724679954273
 20
792.3317335160235
 30
0.0
 10
362.9978610008603
 20
789.7572175421063
 30
0.0
 10
357.6920101913553
 20
786.2124746163086
 30
0.0
 10
352.5236357651938
 20
781.7662086385212
 30
0.0
 10
347.6581003302314
 20
776.5332872551505
 30
0.0
 10
343.1414788753265
 20
770.6835681203985
 30
0.0
 10
339.1715636559812
 20
764.9445964186427
 30
0.0
 10
335.4667557832627
 20
759.6792506238312
 30
0.0
 10
331.8826490024543
 20
755.1565862458829
 30
0.0
 10
328.0094318668905
 20
751.235873867777
 30
0.0
 10
323.9155205546768
 20
748.0868438529307
 30
0.0
 10
319.1348222721994
 20
745.1618218975194
 30
0.0
 10
313.7574964573851
 20
742.2343081535349
 30
0.0
 10
307.8178608858624
 20
738.4761482686532
 30
0.0
 10
302.0202004880217
 20
733.7064811890455
 30
0.0
 10
296.5343996703162
 20
727.8872971788769
 30
0.0
 10
291.5214771218544
 20
721.2335505543755
 30
0.0
 10
287.1592896489687
 20
714.0118187070032
 30
0.0
 10
283.6344919742426
 20
706.46331896985
 30
0.0
 10
281.2642508426665
 20
699.4649993848482
 30
0.0
 10
279.6360482634283
 20
693.139672656027
 30
0.0
 10
278.3417157891878
 20
687.4520845669081
 30
0.0
 10
276.8910985785756
 20
681.76049142918
 30
0.0
 10
274.9055197994714
 20
676.0692493640616
 30
0.0
 10
272.1586793605409
 20
670.5184697421162
 30
0.0
 10
268.6053141364395
 20
664.9283799605255
 30
0.0
 10
264.5165791154262
 20
659.2647838709212
 30
0.0
 10
260.2676183050759
 20
653.2556881398391
 30
0.0
 10
256.3912858358762
 20
646.9904849485328
 30
0.0
 10
253.0806292830472
 20
640.3945301705451
 30
0.0
 10
250.4522059195405
 20
633.565247692986
 30
0.0
 10
248.5704540431334
 20
626.6864301917062
 30
0.0
 10
247.4990036033487
 20
620.0166913908139
 30
0.0
 10
247.2963571241734
 20
613.7677470118284
 30
0.0
 10
247.9239844026117
 20
608.4992885542148
 30
0.0
 10
249.0586753759797
 20
604.0671237794721
 30
0.0
 10
250.3838973709349
 20
600.2182627394593
 30
0.0
 10
251.7417564967586
 20
596.3959784108183
 30
0.0
 10
252.7985336154757
 20
592.3381086879504
 30
0.0
 10
253.2194488685023
 20
587.7244465880248
 30
0.0
 10
252.7623423363621
 20
582.5028633688972
 30
0.0
 10
251.5903170651765
 20
576.8868401930187
 30
0.0
 10
250.1304177186706
 20
571.1681717070712
 30
0.0
 10
248.7662950119905
 20
565.4810150308627
 30
0.0
 10
247.7758187304695
 20
559.9341825112416
 30
0.0
 10
247.2998916507852
 20
554.2986823542316
 30
0.0
 10
247.5392789222348
 20
548.7163624616036
 30
0.0
 10
248.6302389581883
 20
543.412586183729
 30
0.0
 10
250.492276892435
 20
538.7999761991524
 30
0.0
 10
252.9895912288155
 20
535.287387793904
 30
0.0
 10
255.2690579249394
 20
533.1393069439445
 30
0.0
 10
256.7304734393812
 20
532.3915331942153
 30
0.0
 10
257.1292835893065
 20
532.1874709283555
 30
0.0
  0
SPLINE
  5
18D
330
1F
100
AcDbEntity
  8
0
  6
Continuous
 62
     7
370
    25
100
AcDbSpline
210
0.0
220
0.0
230
1.0
 70
     8
 71
     3
 72
    14
 73
    10
 74
     0
 42
0.00000001
 43
0.00000001
 40
0.0
 40
0.0
 40
0.0
 40
0.0
 40
0.0050834121303715
 40
0.1646417962715442
 40
0.3249052493013766
 40
0.4832533771388666
 40
0.7048960324359043
 40
0.9270698203280807
 40
0.9999999999999999
 40
0.9999999999999999
 40
0.9999999999999999
 40
0.9999999999999999
 10
277.0147568162898
 20
520.6070565927171
 30
0.0
 10
277.0341991467062
 20
520.57162211581
 30
0.0
 10
277.663898278187
 20
519.4239685755692
 30
0.0
 10
278.4492865271197
 20
516.6725523080013
 30
0.0
 10
279.7284935818236
 20
512.7799394351191
 30
0.0
 10
281.2918223757085
 20
508.4737168246041
 30
0.0
 10
283.6684345034284
 20
504.3537476772427
 30
0.0
 10
286.2707351017114
 20
501.4528552323163
 30
0.0
 10
288.2072444913626
 20
500.5570562920735
 30
0.0
 10
288.6858215125033
 20
500.3356740510922
 30
0.0
  0
LWPOLYLINE
  5
18E
330
1F
100
AcDbEntity
  8
0
  6
Continuous
 62
     7
370
    25
100
AcDbPolyline
 90
       83
 70
   128
 43
0.0
 10
338.2807448007
 20
604.269092823
 10
338.4363541917
 20
609.0468433919
 10
338.902269187
 20
613.9762189992
 10
339.6757556121
 20
619.028292109
 10
340.7522743411
 20
624.1734151472
 10
342.1255079341
 20
629.3813944861
 10
343.7873977102
 20
634.621667632
 10
345.7281910395
 20
639.8634825784
 10
347.9364985749
 20
645.0760782709
 10
350.3993610899
 20
650.2288651253
 10
353.1023255277
 20
655.2916045393
 10
356.0295298183
 20
660.234586345
 10
359.163795963
 20
665.0288031596
 10
362.4867308418
 20
669.6461206126
 10
365.9788341514
 20
674.0594424492
 10
369.6196128411
 20
678.2428695419
 10
373.3877013738
 20
682.1718518771
 10
377.2609871077
 20
685.8233326241
 10
381.2167400621
 20
689.175883442
 10
385.2317463055
 20
692.2098302295
 10
389.2824441849
 20
694.9073685804
 10
393.3450625944
 20
697.2526682671
 10
397.3957604738
 20
699.2319661385
 10
401.4107667173
 20
700.8336468875
 10
405.3665196716
 20
702.0483112148
 10
409.2398054055
 20
702.868830987
 10
413.0078939383
 20
703.2903910678
 10
416.648672628
 20
703.3105175751
 10
420.1407759376
 20
702.9290923985
 10
423.4637108163
 20
702.1483538926
 10
426.597976961
 20
700.9728837414
 10
429.5251812517
 20
699.4095800712
 10
432.2281456895
 20
697.4676169695
 10
434.6910082044
 20
695.158390648
 10
436.8993157399
 20
692.495452565
 10
438.8401090691
 20
689.4944299
 10
440.5019988453
 20
686.1729338473
 10
441.8752324382
 20
682.5504562664
 10
442.9517511672
 20
678.6482552964
 10
443.7252375923
 20
674.489230604
 10
444.1911525876
 20
670.0977889999
 10
444.3467619787
 20
665.4997012097
 10
444.1911525876
 20
660.7219506409
 10
443.7252375923
 20
655.7925750335
 10
442.9517511672
 20
650.7405019237
 10
441.8752324382
 20
645.5953788855
 10
440.5019988453
 20
640.3873995466
 10
438.8401090691
 20
635.1471264007
 10
436.8993157399
 20
629.9053114543
 10
434.6910082044
 20
624.6927157618
 10
432.2281456895
 20
619.5399289075
 10
429.5251812517
 20
614.4771894935
 10
426.597976961
 20
609.5342076878
 10
423.4637108163
 20
604.7399908731
 10
420.1407759376
 20
600.1226734201
 10
416.648672628
 20
595.7093515835
 10
413.0078939383
 20
591.5259244908
 10
409.2398054055
 20
587.5969421557
 10
405.3665196716
 20
583.9454614087
 10
401.4107667173
 20
580.5929105908
 10
397.3957604738
 20
577.5589638033
 10
393.3450625944
 20
574.8614254523
 10
389.2824441849
 20
572.5161257656
 10
385.2317463055
 20
570.5368278943
 10
381.2167400621
 20
568.9351471452
 10
377.2609871077
 20
567.7204828179
 10
373.3877013738
 20
566.8999630457
 10
369.6196128411
 20
566.4784029649
 10
365.9788341514
 20
566.4582764576
 10
362.4867308418
 20
566.8397016342
 10
359.163795963
 20
567.6204401401
 10
356.0295298183
 20
568.7959102913
 10
353.1023255277
 20
570.3592139615
 10
350.3993610899
 20
572.3011770632
 10
347.9364985749
 20
574.6104033847
 10
345.7281910395
 20
577.2733414678
 10
343.7873977102
 20
580.2743641328
 10
342.1255079341
 20
583.5958601855
 10
340.7522743411
 20
587.2183377663
 10
339.6757556121
 20
591.1205387364
 10
338.902269187
 20
595.2795634288
 10
338.4363541917
 20
599.6710050328
 10
338.2807448007
 20
604.269092823
  0
LWPOLYLINE
  5
18F
330
1F
100
AcDbEntity
  8
0
  6
Continuous
 62
     7
370
    25
100
AcDbPolyline
 90
       50
 70
   128
 43
0.0
 10
331.4748420318
 20
681.8385999832
 10
331.631586128
 20
684.7483433024
 10
332.0992446831
 20
687.7912815981
 10
332.8701387565
 20
690.9174499078
 10
333.9316102888
 20
694.0755166341
 10
335.2662299467
 20
697.2136264087
 10
336.8520833125
 20
700.280251556
 10
338.6631307176
 20
703.2250381757
 10
340.6696348138
 20
705.999632953
 10
342.8386488593
 20
708.5584771184
 10
345.1345577034
 20
710.8595545213
 10
347.5196625863
 20
712.8650815345
 10
349.9548001519
 20
714.5421274598
 10
352.3999855086
 20
715.8631552496
 10
354.8150687804
 20
716.806473664
 10
357.1603943669
 20
717.3565934407
 10
359.3974520867
 20
717.5044816282
 10
361.4895095139
 20
717.2477099067
 10
363.4022151233
 20
716.5904944605
 10
365.1041623419
 20
715.5436267492
 10
366.5674052432
 20
714.1242963117
 10
367.7679174193
 20
712.3558085146
 10
368.6859864935
 20
710.2672018784
 10
369.306537797
 20
707.8927712666
 10
369.6193818944
 20
705.271504764
 10
369.6193818944
 20
702.4464434942
 10
369.306537797
 20
699.4639748851
 10
368.6859864935
 20
696.3730709889
 10
367.7679174193
 20
693.224484362
 10
366.5674052432
 20
690.0699147098
 10
365.1041623419
 20
686.9611599789
 10
363.4022151233
 20
683.9492658358
 10
361.4895095139
 20
681.0836874993
 10
359.3974520867
 20
678.4114776863
 10
357.1603943669
 20
675.9765140081
 10
354.8150687804
 20
673.8187785011
 10
352.3999855086
 20
671.9737011224
 10
349.9548001519
 20
670.4715779918
 10
347.5196625863
 20
669.3370739295
 10
345.1345577034
 20
668.5888174608
 10
342.8386488593
 20
668.2390949362
 10
340.6696348138
 20
668.29364879
 10
338.6631307176
 20
668.7515832493
 10
336.8520833125
 20
669.605379043
 10
335.2662299467
 20
670.8410168678
 10
333.9316102888
 20
672.4382075848
 10
332.8701387565
 20
674.3707253665
 10
332.0992446831
 20
676.6068383244
 10
331.631586128
 20
679.1098295455
 10
331.4748420318
 20
681.8385999832
  0
LWPOLYLINE
  5
190
330
1F
100
AcDbEntity
  8
0
  6
Continuous
 62
     7
370
    25
100
AcDbPolyline
 90
       50
 70
   128
 43
0.0
 10
412.9688985635
 20
728.884117427
 10
413.1256426598
 20
731.7938607462
 10
413.5933012149
 20
734.8367990419
 10
414.3641952882
 20
737.9629673515
 10
415.4256668205
 20
741.1210340779
 10
416.7602864785
 20
744.2591438525
 10
418.3461398442
 20
747.3257689998
 10
420.1571872494
 20
750.2705556195
 10
422.1636913456
 20
753.0451503968
 10
424.332705391
 20
755.6039945622
 10
426.6286142351
 20
757.9050719651
 10
429.0137191181
 20
759.9105989783
 10
431.4488566836
 20
761.5876449036
 10
433.8940420403
 20
762.9086726934
 10
436.3091253122
 20
763.8519911078
 10
438.6544508986
 20
764.4021108845
 10
440.8915086184
 20
764.549999072
 10
442.9835660456
 20
764.2932273504
 10
444.8962716551
 20
763.6360119043
 10
446.5982188736
 20
762.589144193
 10
448.061461775
 20
761.1698137555
 10
449.2619739511
 20
759.4013259583
 10
450.1800430253
 20
757.3127193222
 10
450.8005943287
 20
754.9382887104
 10
451.1134384262
 20
752.3170222078
 10
451.1134384262
 20
749.491960938
 10
450.8005943287
 20
746.5094923289
 10
450.1800430253
 20
743.4185884327
 10
449.2619739511
 20
740.2700018058
 10
448.061461775
 20
737.1154321536
 10
446.5982188736
 20
734.0066774227
 10
444.8962716551
 20
730.9947832796
 10
442.9835660456
 20
728.1292049431
 10
440.8915086184
 20
725.4569951301
 10
438.6544508986
 20
723.0220314519
 10
436.3091253122
 20
720.8642959448
 10
433.8940420403
 20
719.0192185662
 10
431.4488566836
 20
717.5170954356
 10
429.0137191181
 20
716.3825913733
 10
426.6286142351
 20
715.6343349045
 10
424.332705391
 20
715.28461238
 10
422.1636913456
 20
715.3391662337
 10
420.1571872494
 20
715.7971006931
 10
418.3461398442
 20
716.6508964868
 10
416.7602864785
 20
717.8865343116
 10
415.4256668205
 20
719.4837250286
 10
414.3641952882
 20
721.4162428103
 10
413.5933012149
 20
723.6523557682
 10
413.1256426598
 20
726.1553469893
 10
412.9688985635
 20
728.884117427
  0
LWPOLYLINE
  5
191
330
1F
100
AcDbEntity
  8
0
  6
Continuous
 62
     7
370
    25
100
AcDbPolyline
 90
       50
 70
   128
 43
0.0
 10
453.7159268294
 20
670.9084049505
 10
453.8726709257
 20
673.8181482697
 10
454.3403294807
 20
676.8610865654
 10
455.1112235541
 20
679.9872548751
 10
456.1726950864
 20
683.1453216014
 10
457.5073147443
 20
686.2834313761
 10
459.0931681101
 20
689.3500565233
 10
460.9042155153
 20
692.294843143
 10
462.9107196115
 20
695.0694379203
 10
465.0797336569
 20
697.6282820857
 10
467.375642501
 20
699.9293594886
 10
469.7607473839
 20
701.9348865018
 10
472.1958849495
 20
703.6119324272
 10
474.6410703062
 20
704.9329602169
 10
477.056153578
 20
705.8762786313
 10
479.4014791645
 20
706.426398408
 10
481.6385368843
 20
706.5742865956
 10
483.7305943115
 20
706.317514874
 10
485.643299921
 20
705.6602994278
 10
487.3452471395
 20
704.6134317166
 10
488.8084900408
 20
703.1941012791
 10
490.009002217
 20
701.4256134819
 10
490.9270712912
 20
699.3370068458
 10
491.5476225946
 20
696.9625762339
 10
491.860466692
 20
694.3413097313
 10
491.860466692
 20
691.5162484615
 10
491.5476225946
 20
688.5337798524
 10
490.9270712912
 20
685.4428759562
 10
490.009002217
 20
682.2942893293
 10
488.8084900408
 20
679.1397196771
 10
487.3452471395
 20
676.0309649462
 10
485.643299921
 20
673.0190708031
 10
483.7305943115
 20
670.1534924666
 10
481.6385368843
 20
667.4812826536
 10
479.4014791645
 20
665.0463189755
 10
477.056153578
 20
662.8885834684
 10
474.6410703062
 20
661.0435060897
 10
472.1958849495
 20
659.5413829591
 10
469.7607473839
 20
658.4068788968
 10
467.375642501
 20
657.6586224281
 10
465.0797336569
 20
657.3088999035
 10
462.9107196115
 20
657.3634537573
 10
460.9042155153
 20
657.8213882166
 10
459.0931681101
 20
658.6751840103
 10
457.5073147443
 20
659.9108218352
 10
456.1726950864
 20
661.5080125521
 10
455.1112235541
 20
663.4405303338
 10
454.3403294807
 20
665.6766432917
 10
453.8726709257
 20
668.1796345128
 10
453.7159268294
 20
670.9084049505
  0
LWPOLYLINE
  5
192
330
1F
100
AcDbEntity
  8
0
  6
Continuous
 62
     7
370
    25
100
AcDbPolyline
 90
       50
 70
   128
 43
0.0
 10
290.7278137659
 20
576.817370063
 10
290.8845578622
 20
579.7271133821
 10
291.3522164172
 20
582.7700516779
 10
292.1231104906
 20
585.8962199875
 10
293.1845820229
 20
589.0542867138
 10
294.5192016808
 20
592.1923964885
 10
296.1050550466
 20
595.2590216357
 10
297.9161024518
 20
598.2038082555
 10
299.922606548
 20
600.9784030328
 10
302.0916205934
 20
603.5372471981
 10
304.3875294375
 20
605.8383246011
 10
306.7726343204
 20
607.8438516143
 10
309.207771886
 20
609.5208975396
 10
311.6529572427
 20
610.8419253294
 10
314.0680405145
 20
611.7852437437
 10
316.413366101
 20
612.3353635205
 10
318.6504238208
 20
612.483251708
 10
320.742481248
 20
612.2264799864
 10
322.6551868575
 20
611.5692645402
 10
324.357134076
 20
610.522396829
 10
325.8203769773
 20
609.1030663915
 10
327.0208891535
 20
607.3345785943
 10
327.9389582277
 20
605.2459719582
 10
328.5595095311
 20
602.8715413463
 10
328.8723536285
 20
600.2502748437
 10
328.8723536285
 20
597.4252135739
 10
328.5595095311
 20
594.4427449649
 10
327.9389582277
 20
591.3518410686
 10
327.0208891535
 20
588.2032544417
 10
325.8203769773
 20
585.0486847896
 10
324.357134076
 20
581.9399300586
 10
322.6551868575
 20
578.9280359156
 10
320.742481248
 20
576.062457579
 10
318.6504238208
 20
573.3902477661
 10
316.413366101
 20
570.9552840879
 10
314.0680405145
 20
568.7975485808
 10
311.6529572427
 20
566.9524712022
 10
309.207771886
 20
565.4503480716
 10
306.7726343204
 20
564.3158440092
 10
304.3875294375
 20
563.5675875405
 10
302.0916205934
 20
563.2178650159
 10
299.922606548
 20
563.2724188697
 10
297.9161024518
 20
563.730353329
 10
296.1050550466
 20
564.5841491228
 10
294.5192016808
 20
565.8197869476
 10
293.1845820229
 20
567.4169776646
 10
292.1231104906
 20
569.3494954463
 10
291.3522164172
 20
571.5856084041
 10
290.8845578622
 20
574.0885996253
 10
290.7278137659
 20
576.817370063
  0
LWPOLYLINE
  5
193
330
1F
100
AcDbEntity
  8
0
  6
Continuous
 62
     7
370
    25
100
AcDbPolyline
 90
       50
 70
   128
 43
0.0
 10
331.4748420318
 20
518.8416575865
 10
331.631586128
 20
521.7514009057
 10
332.0992446831
 20
524.7943392014
 10
332.8701387565
 20
527.920507511
 10
333.9316102888
 20
531.0785742374
 10
335.2662299467
 20
534.216684012
 10
336.8520833125
 20
537.2833091593
 10
338.6631307176
 20
540.228095779
 10
340.6696348138
 20
543.0026905563
 10
342.8386488593
 20
545.5615347216
 10
345.1345577034
 20
547.8626121246
 10
347.5196625863
 20
549.8681391378
 10
349.9548001519
 20
551.5451850631
 10
352.3999855086
 20
552.8662128529
 10
354.8150687804
 20
553.8095312673
 10
357.1603943669
 20
554.359651044
 10
359.3974520867
 20
554.5075392315
 10
361.4895095139
 20
554.2507675099
 10
363.4022151233
 20
553.5935520638
 10
365.1041623419
 20
552.5466843525
 10
366.5674052432
 20
551.127353915
 10
367.7679174193
 20
549.3588661178
 10
368.6859864935
 20
547.2702594817
 10
369.306537797
 20
544.8958288699
 10
369.6193818944
 20
542.2745623673
 10
369.6193818944
 20
539.4495010975
 10
369.306537797
 20
536.4670324884
 10
368.6859864935
 20
533.3761285922
 10
367.7679174193
 20
530.2275419653
 10
366.5674052432
 20
527.0729723131
 10
365.1041623419
 20
523.9642175821
 10
363.4022151233
 20
520.9523234391
 10
361.4895095139
 20
518.0867451026
 10
359.3974520867
 20
515.4145352896
 10
357.1603943669
 20
512.9795716114
 10
354.8150687804
 20
510.8218361043
 10
352.3999855086
 20
508.9767587257
 10
349.9548001519
 20
507.4746355951
 10
347.5196625863
 20
506.3401315328
 10
345.1345577034
 20
505.591875064
 10
342.8386488593
 20
505.2421525395
 10
340.6696348138
 20
505.2967063932
 10
338.6631307176
 20
505.7546408526
 10
336.8520833125
 20
506.6084366463
 10
335.2662299467
 20
507.8440744711
 10
333.9316102888
 20
509.4412651881
 10
332.8701387565
 20
511.3737829698
 10
332.0992446831
 20
513.6098959277
 10
331.631586128
 20
516.1128871488
 10
331.4748420318
 20
518.8416575865
  0
LWPOLYLINE
  5
194
330
1F
100
AcDbEntity
  8
0
  6
Continuous
 62
     7
370
    25
100
AcDbPolyline
 90
       50
 70
   128
 43
0.0
 10
412.9688985635
 20
565.8871750303
 10
413.1256426598
 20
568.7969183494
 10
413.5933012149
 20
571.8398566452
 10
414.3641952882
 20
574.9660249548
 10
415.4256668205
 20
578.1240916811
 10
416.7602864785
 20
581.2622014558
 10
418.3461398442
 20
584.3288266031
 10
420.1571872494
 20
587.2736132228
 10
422.1636913456
 20
590.0482080001
 10
424.332705391
 20
592.6070521654
 10
426.6286142351
 20
594.9081295684
 10
429.0137191181
 20
596.9136565816
 10
431.4488566836
 20
598.5907025069
 10
433.8940420403
 20
599.9117302967
 10
436.3091253122
 20
600.855048711
 10
438.6544508986
 20
601.4051684878
 10
440.8915086184
 20
601.5530566753
 10
442.9835660456
 20
601.2962849537
 10
444.8962716551
 20
600.6390695076
 10
446.5982188736
 20
599.5922017963
 10
448.061461775
 20
598.1728713588
 10
449.2619739511
 20
596.4043835616
 10
450.1800430253
 20
594.3157769255
 10
450.8005943287
 20
591.9413463136
 10
451.1134384262
 20
589.3200798111
 10
451.1134384262
 20
586.4950185413
 10
450.8005943287
 20
583.5125499322
 10
450.1800430253
 20
580.4216460359
 10
449.2619739511
 20
577.2730594091
 10
448.061461775
 20
574.1184897569
 10
446.5982188736
 20
571.0097350259
 10
444.8962716551
 20
567.9978408829
 10
442.9835660456
 20
565.1322625464
 10
440.8915086184
 20
562.4600527334
 10
438.6544508986
 20
560.0250890552
 10
436.3091253122
 20
557.8673535481
 10
433.8940420403
 20
556.0222761695
 10
431.4488566836
 20
554.5201530389
 10
429.0137191181
 20
553.3856489765
 10
426.6286142351
 20
552.6373925078
 10
424.332705391
 20
552.2876699833
 10
422.1636913456
 20
552.342223837
 10
420.1571872494
 20
552.8001582964
 10
418.3461398442
 20
553.6539540901
 10
416.7602864785
 20
554.8895919149
 10
415.4256668205
 20
556.4867826319
 10
414.3641952882
 20
558.4193004136
 10
413.5933012149
 20
560.6554133715
 10
413.1256426598
 20
563.1584045926
 10
412.9688985635
 20
565.8871750303
  0
LWPOLYLINE
  5
195
330
1F
100
AcDbEntity
  8
0
  6
Continuous
 62
     7
370
    25
100
AcDbPolyline
 90
       33
 70
   128
 43
0.0
 10
411.9003730778
 20
703.2069651157
 10
412.2177275978
 20
702.5010960837
 10
413.5909611908
 20
698.8786185029
 10
414.6674799198
 20
694.9764175328
 10
415.4409663449
 20
690.8173928404
 10
415.9068813402
 20
686.4259512364
 10
416.0624907312
 20
681.8278634462
 10
415.9068813402
 20
677.0501128773
 10
415.4409663449
 20
672.12073727
 10
414.6674799198
 20
667.0686641602
 10
413.5909611908
 20
661.923541122
 10
412.2177275978
 20
656.7155617831
 10
410.5558378217
 20
651.4752886372
 10
408.6150444924
 20
646.2334736908
 10
406.4067369569
 20
641.0208779983
 10
403.943874442
 20
635.8680911439
 10
401.2409100042
 20
630.8053517299
 10
398.3137057136
 20
625.8623699242
 10
395.1794395689
 20
621.0681531096
 10
391.8565046901
 20
616.4508356565
 10
388.3644013805
 20
612.03751382
 10
384.7236226908
 20
607.8540867273
 10
380.9555341581
 20
603.9251043921
 10
377.0822484241
 20
600.2736236451
 10
373.1264954698
 20
596.9210728272
 10
369.1114892264
 20
593.8871260397
 10
365.060791347
 20
591.1895876888
 10
360.9981729374
 20
588.8442880021
 10
356.947475058
 20
586.8649901307
 10
352.9324688146
 20
585.2633093816
 10
348.9767158603
 20
584.0486450544
 10
345.1034301263
 20
583.2281252822
 10
342.4428624541
 20
582.8899911535
  0
ENDSEC
  0
SECTION
  2
OBJECTS
  0
DICTIONARY
  5
C
330
0
100
AcDbDictionary
281
     1
  3
ACAD_GROUP
350
D
  3
ACAD_LAYOUT
350
1A
  3
ACAD_MLINESTYLE
350
17
  3
ACAD_PLOTSETTINGS
350
19
  3
ACAD_PLOTSTYLENAME
350
E
  3
ACAD_SCALELIST
350
47
  3
DWGPROPS
350
196
  0
DICTIONARY
  5
D
102
{ACAD_REACTORS
330
C
102
}
330
C
100
AcDbDictionary
281
     1
  0
DICTIONARY
  5
1A
102
{ACAD_REACTORS
330
C
102
}
330
C
100
AcDbDictionary
281
     1
  3
Layout1
350
1E
  3
Layout2
350
26
  3
Model
350
22
  0
DICTIONARY
  5
17
102
{ACAD_REACTORS
330
C
102
}
330
C
100
AcDbDictionary
281
     1
  3
Standard
350
18
  0
DICTIONARY
  5
19
102
{ACAD_REACTORS
330
C
102
}
330
C
100
AcDbDictionary
281
     1
  0
ACDBDICTIONARYWDFLT
  5
E
102
{ACAD_REACTORS
330
C
102
}
330
C
100
AcDbDictionary
281
     1
  3
Normal
350
F
100
AcDbDictionaryWithDefault
340
F
  0
DICTIONARY
  5
47
102
{ACAD_REACTORS
330
C
102
}
330
C
100
AcDbDictionary
281
     1
  3
A0
350
48
  3
A1
350
49
  3
A2
350
4A
  3
A3
350
4B
  3
A4
350
4C
  3
A5
350
4D
  3
A6
350
4E
  3
A7
350
4F
  3
A8
350
50
  3
A9
350
51
  3
B0
350
52
  3
B1
350
53
  3
B2
350
54
  3
B3
350
55
  3
B4
350
56
  3
B5
350
57
  3
B6
350
58
  0
XRECORD
  5
196
102
{ACAD_REACTORS
330
C
102
}
330
C
100
AcDbXrecord
280
     1
  1
DWGPROPS COOKIE
  2

  3

  4

  6

  7

  8
Semitia
  9

300
=
301
=
302
=
303
=
304
=
305
=
306
=
307
=
308
=
309
=
 40
0.0
 41
2460359.815283773
 42
2460359.815287083
  1

 90
        0
  0
LAYOUT
  5
1E
102
{ACAD_REACTORS
330
1A
102
}
330
1A
100
AcDbPlotSettings
  1

  2
none_device
  4

  6

 40
0.0
 41
0.0
 42
0.0
 43
0.0
 44
0.0
 45
0.0
 46
0.0
 47
0.0
 48
0.0
 49
0.0
140
0.0
141
0.0
142
1.0
143
1.0
 70
   688
 72
     1
 73
     0
 74
     5
  7

 75
    16
147
1.0
148
0.0
149
0.0
100
AcDbLayout
  1
Layout1
 70
     1
 71
     1
 10
0.0
 20
0.0
 11
420.0
 21
297.0
 12
0.0
 22
0.0
 32
0.0
 14
1.0000000000E+20
 24
1.0000000000E+20
 34
1.0000000000E+20
 15
-1.0000000000E+20
 25
-1.0000000000E+20
 35
-1.0000000000E+20
146
0.0
 13
0.0
 23
0.0
 33
0.0
 16
1.0
 26
0.0
 36
0.0
 17
0.0
 27
1.0
 37
0.0
 76
     0
330
1B
  0
LAYOUT
  5
26
102
{ACAD_REACTORS
330
1A
102
}
330
1A
100
AcDbPlotSettings
  1

  2
none_device
  4

  6

 40
0.0
 41
0.0
 42
0.0
 43
0.0
 44
0.0
 45
0.0
 46
0.0
 47
0.0
 48
0.0
 49
0.0
140
0.0
141
0.0
142
1.0
143
1.0
 70
   688
 72
     1
 73
     0
 74
     5
  7

 75
    16
147
1.0
148
0.0
149
0.0
100
AcDbLayout
  1
Layout2
 70
     1
 71
     2
 10
0.0
 20
0.0
 11
0.0
 21
0.0
 12
0.0
 22
0.0
 32
0.0
 14
0.0
 24
0.0
 34
0.0
 15
0.0
 25
0.0
 35
0.0
146
0.0
 13
0.0
 23
0.0
 33
0.0
 16
1.0
 26
0.0
 36
0.0
 17
0.0
 27
1.0
 37
0.0
 76
     0
330
23
  0
LAYOUT
  5
22
102
{ACAD_REACTORS
330
1A
102
}
330
1A
100
AcDbPlotSettings
  1

  2
none_device
  4
Letter_(8.50_x_11.00_Inches)
  6

 40
6.35
 41
6.35
 42
6.35000508
 43
6.35000508
 44
215.9
 45
279.4
 46
0.0
 47
0.0
 48
0.0
 49
0.0
140
0.0
141
0.0
142
1.0
143
1.0
 70
  1712
 72
     1
 73
     0
 74
     0
  7

 75
     0
147
1.0
148
0.0
149
0.0
100
AcDbLayout
  1
Model
 70
     1
 71
     0
 10
0.0
 20
0.0
 11
1189.0
 21
841.0
 12
0.0
 22
0.0
 32
0.0
 14
0.0
 24
0.0
 34
0.0
 15
1189.0
 25
841.0
 35
0.0
146
0.0
 13
0.0
 23
0.0
 33
0.0
 16
1.0
 26
0.0
 36
0.0
 17
0.0
 27
1.0
 37
0.0
 76
     0
330
1F
331
29
  0
MLINESTYLE
  5
18
102
{ACAD_REACTORS
330
17
102
}
330
17
100
AcDbMlineStyle
  2
Standard
 70
     0
  3

 62
   256
 51
90.0
 52
90.0
 71
     2
 49
0.5
 62
   256
  6
BYLAYER
 49
-0.5
 62
   256
  6
BYLAYER
  0
ACDBPLACEHOLDER
  5
F
102
{ACAD_REACTORS
330
E
102
}
330
E
  0
SCALE
  5
48
102
{ACAD_REACTORS
330
47
102
}
330
47
100
AcDbScale
 70
     0
300
1:1
140
1.0
141
1.0
290
     1
  0
SCALE
  5
49
102
{ACAD_REACTORS
330
47
102
}
330
47
100
AcDbScale
 70
     0
300
1:2
140
1.0
141
2.0
290
     0
  0
SCALE
  5
4A
102
{ACAD_REACTORS
330
47
102
}
330
47
100
AcDbScale
 70
     0
300
1:4
140
1.0
141
4.0
290
     0
  0
SCALE
  5
4B
102
{ACAD_REACTORS
330
47
102
}
330
47
100
AcDbScale
 70
     0
300
1:5
140
1.0
141
5.0
290
     0
  0
SCALE
  5
4C
102
{ACAD_REACTORS
330
47
102
}
330
47
100
AcDbScale
 70
     0
300
1:8
140
1.0
141
8.0
290
     0
  0
SCALE
  5
4D
102
{ACAD_REACTORS
330
47
102
}
330
47
100
AcDbScale
 70
     0
300
1:10
140
1.0
141
10.0
290
     0
  0
SCALE
  5
4E
102
{ACAD_REACTORS
330
47
102
}
330
47
100
AcDbScale
 70
     0
300
1:16
140
1.0
141
16.0
290
     0
  0
SCALE
  5
4F
102
{ACAD_REACTORS
330
47
102
}
330
47
100
AcDbScale
 70
     0
300
1:20
140
1.0
141
20.0
290
     0
  0
SCALE
  5
50
102
{ACAD_REACTORS
330
47
102
}
330
47
100
AcDbScale
 70
     0
300
1:30
140
1.0
141
30.0
290
     0
  0
SCALE
  5
51
102
{ACAD_REACTORS
330
47
102
}
330
47
100
AcDbScale
 70
     0
300
1:40
140
1.0
141
40.0
290
     0
  0
SCALE
  5
52
102
{ACAD_REACTORS
330
47
102
}
330
47
100
AcDbScale
 70
     0
300
1:50
140
1.0
141
50.0
290
     0
  0
SCALE
  5
53
102
{ACAD_REACTORS
330
47
102
}
330
47
100
AcDbScale
 70
     0
300
1:100
140
1.0
141
100.0
290
     0
  0
SCALE
  5
54
102
{ACAD_REACTORS
330
47
102
}
330
47
100
AcDbScale
 70
     0
300
2:1
140
2.0
141
1.0
290
     0
  0
SCALE
  5
55
102
{ACAD_REACTORS
330
47
102
}
330
47
100
AcDbScale
 70
     0
300
4:1
140
4.0
141
1.0
290
     0
  0
SCALE
  5
56
102
{ACAD_REACTORS
330
47
102
}
330
47
100
AcDbScale
 70
     0
300
8:1
140
8.0
141
1.0
290
     0
  0
SCALE
  5
57
102
{ACAD_REACTORS
330
47
102
}
330
47
100
AcDbScale
 70
     0
300
10:1
140
10.0
141
1.0
290
     0
  0
SCALE
  5
58
102
{ACAD_REACTORS
330
47
102
}
330
47
100
AcDbScale
 70
     0
300
100:1
140
100.0
141
1.0
290
     0
  0
ENDSEC
  0
EOF
